<svg width="37" height="36" viewBox="0 0 37 36" fill="none" xmlns="http://www.w3.org/2000/svg">
<rect x="0.5" width="36" height="36" rx="12" fill="#57EE9F"/>
<path fill-rule="evenodd" clip-rule="evenodd" d="M21.2314 19.6929L19.685 19.6797L19.6816 21.2295H21.2331L21.2314 19.6929Z" fill="black"/>
<path fill-rule="evenodd" clip-rule="evenodd" d="M19.6816 19.3439H21.2331L21.2314 17.8074L19.685 17.7925L19.6816 19.3439Z" fill="black"/>
<path fill-rule="evenodd" clip-rule="evenodd" d="M19.3701 19.3454V17.7939L17.822 17.7956L17.8203 19.3305L19.3701 19.3454Z" fill="black"/>
<path fill-rule="evenodd" clip-rule="evenodd" d="M19.3701 19.6797L17.822 19.6813L17.8203 21.2162L19.3717 21.2311L19.3701 19.6797Z" fill="black"/>
<path fill-rule="evenodd" clip-rule="evenodd" d="M17.9958 13.8201C18.2839 13.5453 19.4727 12.3283 19.6168 12.2654L20.5473 13.2207C20.8668 13.5337 21.1632 13.8284 21.4844 14.1413L25.2446 17.8684C25.5592 18.183 25.8622 18.4827 26.1818 18.7906C26.3987 18.9976 26.9467 19.5241 27.1123 19.7377L25.69 19.7427L25.6784 22.9416C22.9729 22.9317 20.4065 23.4731 18.2922 24.5178C17.7921 24.7646 17.2938 25.0543 16.8715 25.3424C15.9394 25.9782 15.6496 26.2696 14.8979 27.0296L14.5038 27.47C14.0949 27.9568 13.6843 28.6539 13.6031 28.7648C13.6594 29.1655 13.8101 29.4188 14.1793 29.7235C14.2124 29.7516 14.2538 29.7781 14.3002 29.8046C14.4989 29.399 15.3234 28.5165 15.6993 28.1638C15.8814 27.9916 16.0271 27.8376 16.2275 27.6671C17.7425 26.3673 19.4661 25.3722 21.453 24.7099C22.2842 24.4318 23.9266 24.0112 24.7926 23.9615V23.9963C24.9251 23.7115 25.1519 23.4665 25.4168 23.3274L25.4996 23.286C25.9334 23.0906 26.2596 23.1469 26.7861 23.1469C27.8209 23.1469 28.8558 23.1469 29.8923 23.1469C30.2913 23.1469 30.5264 23.1502 30.8046 23.0161L31.043 22.8754C31.0712 22.8538 31.0977 22.8406 31.1225 22.8191C31.3079 22.6618 31.4735 22.4548 31.5563 22.2213C31.5977 22.1021 31.6523 21.9448 31.6523 21.7925V13.3217C31.6523 13.0419 31.5315 12.7753 31.3858 12.5568C31.3344 12.479 31.2086 12.3465 31.139 12.2886C31.0364 12.2058 30.9453 12.1429 30.8162 12.0833C30.692 12.0253 30.5794 11.9872 30.4221 11.9624C30.1754 11.921 27.109 11.9425 26.7861 11.9425C26.1685 11.9425 25.5874 12.022 25.1072 11.5369C24.5889 11.0153 24.6668 10.5682 24.6668 9.89105V6.76171C24.6668 6.1673 24.6403 5.94377 24.3356 5.53315C24.2197 5.37751 24.0641 5.2732 23.9051 5.17716C23.7578 5.08775 23.4813 5 23.2975 5H14.9443C14.7671 5 14.4889 5.0861 14.3432 5.17385C14.2323 5.23843 14.1296 5.303 14.0386 5.39572C13.8978 5.53812 13.7985 5.65733 13.7107 5.85271C13.5833 6.13749 13.5766 6.35439 13.5766 6.76171V10.4176C13.5766 10.8348 13.4905 11.1345 13.224 11.4458C13.017 11.6859 12.7537 11.8332 12.4441 11.9094C12.1875 11.9707 11.7487 11.9425 11.4341 11.9425H8.29482C7.86102 11.9425 7.68054 11.9359 7.36595 12.07C7.13746 12.1677 6.92552 12.3432 6.78479 12.5303C6.64239 12.7191 6.5 13.0519 6.5 13.2986V21.7925C6.5 22.0541 6.63577 22.3455 6.77651 22.5459C6.91725 22.7512 7.12587 22.9101 7.34774 23.0161C7.6259 23.1502 7.86267 23.1469 8.26005 23.1469H11.3778C11.9043 23.1469 12.3547 23.0823 12.7802 23.3042C12.8067 23.3191 12.8315 23.329 12.8613 23.3456L13.022 23.4549C13.3663 23.7248 13.5766 24.1238 13.5766 24.5841V28.24C13.5766 28.4138 13.5816 28.5645 13.5948 28.6986V19.7692L11.9474 19.799C11.9888 19.7079 12.0053 19.7063 12.0798 19.6367L14.5502 17.226C14.6628 17.0571 14.4923 14.6679 14.5966 14.1976H16.3963L16.403 15.3682C16.6265 15.196 17.3153 14.4758 17.6001 14.2009C17.7392 14.0685 17.8584 13.9542 17.9958 13.8201Z" fill="black"/>
<path fill-rule="evenodd" clip-rule="evenodd" d="M23.159 26.8063C20.3922 26.7749 17.4036 27.3908 15.1916 29.0449C15.0061 29.184 14.4332 29.6492 14.3008 29.8065C14.4895 29.9158 14.7578 30.0002 14.9432 30.0002H23.2964C23.4371 30.0002 23.616 29.9489 23.7219 29.9092C23.8395 29.8661 23.9587 29.8015 24.0564 29.7287C24.2021 29.6211 24.3395 29.4853 24.4339 29.3313C24.5763 29.1012 24.6674 28.8164 24.6657 28.5316V26.8941C24.159 26.8626 23.6822 26.8129 23.159 26.8063Z" fill="black"/>
</svg>
