<svg width="610" height="380" viewBox="0 0 610 380" fill="none" xmlns="http://www.w3.org/2000/svg">
<g clip-path="url(#clip0_690_716)">
<path d="M290.363 497.134C291.224 497.07 292.085 497.005 292.868 496.981C309.743 496.166 326.541 495.392 343.493 494.535C347.054 494.312 350.651 493.97 354.207 493.55C356.747 493.279 357.821 491.207 356.925 488.801C355.21 483.949 351.832 481.186 346.615 481.106C343.006 481.056 339.279 480.971 335.676 481.117C317.068 481.67 298.459 482.223 279.816 482.895C277.073 482.976 274.408 483.016 271.72 483.567C264.822 484.988 262.371 492.082 266.888 497.518C268.271 499.164 269.921 500.566 271.684 501.808C278.249 506.242 284.968 510.592 291.61 514.984C297.373 518.853 303.172 522.604 308.935 526.473C309.695 526.96 310.342 527.608 310.882 528.611C310.016 528.48 309.03 528.313 308.164 528.182C292.892 524.949 277.619 521.716 262.311 518.601C257.972 517.749 253.485 517.177 249.045 516.877C240.48 516.308 235.726 522.451 238.949 530.475C240.516 534.312 243.169 537.763 245.662 541.102C248.974 545.593 252.707 549.757 256.209 554.047C256.096 554.207 255.984 554.367 255.871 554.527C254.998 554.2 254.132 554.069 253.295 553.623C246.481 550.021 239.667 546.418 232.811 542.739C229.303 540.843 225.944 538.667 222.365 537.008C213.936 533.179 207.549 535.919 204.243 544.569C203.228 547.305 202.492 550.191 201.519 553.005C200.616 555.581 199.833 558.193 198.652 560.621C195.108 567.905 189.445 572.545 181.177 574.007C159.649 577.824 137.188 563.821 130.493 542.132C126.76 530.2 126.831 518.313 131.455 506.564C136.696 493.189 144.383 481.585 156.563 473.339C163.288 468.824 170.749 466.602 178.821 466.44C186.621 466.326 193.364 468.872 199.014 474.195C204.143 479.103 204.439 483.723 200.302 489.534C193.381 499.232 179.13 503.814 167.763 496.189C166.244 495.214 164.57 494.322 162.831 493.864C159.471 492.983 156.48 493.896 154.206 496.513C152.01 499.089 151.511 502.046 152.627 505.229C153.013 506.316 153.595 507.397 154.254 508.436C156.604 512.25 158.8 516.146 161.418 519.717C163.709 522.865 166.421 525.687 169.17 528.391C171.271 530.446 172.784 529.931 173.046 526.903C173.455 523.595 173.236 520.228 173.176 516.974C173.188 516.072 172.885 515.139 172.69 513.851C173.788 513.857 174.69 513.87 175.592 513.882C189.784 513.813 201.661 508.518 210.577 497.348C219.421 486.416 219.035 473.679 209.467 463.294C200.261 453.212 188.633 448.615 175.011 449.373C159.43 450.189 146.336 456.736 135.581 468C124.178 479.911 116.207 493.759 112.853 509.902C108.181 533.028 112.283 554.519 129.27 571.666C146.46 589.003 167.353 593.992 190.793 585.96C201.542 582.267 208.712 574.326 213.105 563.997C214.791 560.102 215.764 555.994 217.094 551.993C217.378 551.043 217.503 549.98 217.735 548.561C220.275 549.584 222.299 550.387 224.288 551.308C231.286 554.513 238.212 557.955 245.246 561.041C248.784 562.623 252.582 563.765 256.334 564.634C265.018 566.533 270.069 561.127 267.149 552.741C265.475 547.966 262.56 543.659 259.996 539.264C258.423 536.525 256.542 533.953 254.447 530.799C256.097 530.907 257.272 530.872 258.376 531.074C271.351 533.552 284.326 536.03 297.337 538.389C303.843 539.569 310.348 540.748 316.883 541.613C319.441 541.929 322.332 541.569 324.861 540.905C329.099 539.72 331.004 535.31 329.158 531.324C328.191 529.156 326.719 527.16 325.098 525.443C318.165 517.922 309.945 511.89 301.57 505.941C297.682 503.154 293.758 500.485 289.793 497.74C290.298 497.568 290.369 497.33 290.363 497.134Z" fill="#068940"/>
<path d="M585.749 502.791C585.785 500.083 585.797 497.886 585.963 495.606C586.824 477.419 585.376 459.378 583.025 441.326C581.441 429.134 580.871 416.795 579.91 404.467C579.821 402.822 580.005 401.13 580.064 399.206C581.132 399.528 581.999 399.659 582.788 399.832C591.733 402.586 600.132 406.73 608.044 411.633C621.548 419.901 635.194 427.694 649.51 434.329C650.145 434.585 650.668 435.001 651.427 435.488C640.031 441.122 628.789 446.673 617.238 452.391C617.167 451.334 617.102 450.473 617.078 449.689C616.817 443.656 616.437 437.587 614.146 431.85C613.469 430.222 612.555 428.523 611.416 427.145C607.795 422.82 601.972 423.464 599.895 428.664C598.909 431.086 598.446 433.924 598.565 436.549C598.63 439.999 599.521 443.503 600.055 446.9C600.862 451.544 601.746 456.146 602.435 460.754C603.384 467.512 608.364 470.11 614.591 467.258C626.462 461.766 638.215 456.239 650.258 451.252C655.369 449.1 660.907 448.112 666.231 446.541C667.94 446.02 669.81 445.611 671.513 444.894C678.055 442.071 679.669 434.531 674.766 429.303C673.187 427.663 671.3 426.189 669.347 425.149C663.851 422.331 658.277 419.555 652.484 417.295C641.135 412.846 630.19 407.484 619.429 401.724C610.941 397.23 602.115 393.216 593.294 389.399C589.003 387.526 584.385 386.526 579.838 385.288C576.004 384.264 572.389 385.313 569.119 387.372C567.54 388.321 566.958 389.829 566.78 391.717C564.643 411.786 569 431.348 571.362 451.087C573.469 468.872 574.163 486.621 573.528 504.488C573.362 508.062 573.077 511.601 572.911 515.175C572.661 518.595 575.107 521.661 578.716 521.711C580.716 521.73 582.942 521.428 584.681 520.592C599.615 513.95 614.472 507.35 629.281 500.477C642.12 494.564 654.84 488.616 668.658 485.264C682.595 481.947 696.573 481.296 710.385 485.514C713.353 486.407 716.143 487.893 718.701 489.503C721.218 491.037 721.384 492.64 719.894 495.234C717.656 499.027 714.653 502.137 710.409 503.126C704.764 504.471 698.983 505.191 693.326 506.144C691.765 506.387 690.922 505.745 690.287 504.195C687.925 498.695 681.983 498.008 678.202 502.632C673.703 508.139 675.282 516.252 681.503 519.676C682.779 520.383 684.286 520.966 685.705 521.198C697.707 522.607 709.59 522.685 721.016 518.03C728.376 515.066 734.223 510.028 738.33 503.238C744.266 493.372 742.64 482.398 734.324 474.525C728.994 469.428 722.512 466.443 715.585 464.295C697.891 458.78 680.274 459.696 662.485 463.99C645.515 468.143 630.017 475.586 615.238 484.733C606.037 490.381 596.802 496.147 587.643 501.871C587.138 502.043 586.598 502.334 585.749 502.791Z" fill="#068940"/>
<path d="M557.065 285.82C556.091 284.75 555.403 284.026 554.714 283.301C538.302 267.039 519 256.315 496.314 251.694C482.229 248.818 468.838 250.746 455.809 256.86C451.981 258.621 450.497 261.411 450.378 265.259C450.23 270.716 451.601 275.853 453.672 280.812C461.205 299.064 470.939 316.23 483.249 331.712C486.591 335.888 491.238 339.162 495.613 342.484C497.417 343.804 500.023 344.393 502.267 344.679C505.217 344.984 507.11 342.77 506.202 339.973C505.466 337.68 504.024 335.37 502.552 333.374C499.531 329.423 496.124 325.68 492.948 321.813C492.622 321.391 492.372 320.928 491.957 320.156C492.889 319.853 493.743 319.593 494.521 319.373C501.4 317.364 508.28 315.356 515.118 313.27C516.049 312.967 516.94 312.588 517.747 312.054C522.792 309.04 523.748 303.05 519.243 299.3C513.491 294.529 507.36 290.161 501.46 285.668C500.777 285.139 499.905 284.812 499.074 284.562C496.979 283.997 495.067 284.328 493.667 285.978C492.189 287.67 491.975 289.676 493.091 291.565C494.082 293.223 495.501 294.749 496.913 296.08C499.697 298.665 502.671 301.048 505.894 303.894C503.217 304.837 500.967 305.649 498.759 306.538C495.037 307.943 491.316 309.348 487.636 310.831C486.591 311.293 485.926 311.352 485.267 310.313C476.702 296.799 469.028 282.905 463.514 267.85C462.956 266.258 463.282 265.385 464.748 264.596C468.838 262.396 473.213 261.834 477.682 261.819C485.096 261.913 492.242 263.544 499.175 265.887C516.726 271.877 532.563 280.782 545.372 294.601C547.479 296.853 549.319 299.348 551.236 301.801C555.308 306.78 560.21 306.83 563.778 301.625C566.668 297.381 569.197 292.834 571.37 288.18C580.392 268.887 594.572 254.187 612.551 243.219C623.176 236.705 635.184 233.132 647.162 229.873C647.512 229.784 647.904 229.772 648.254 229.684C655.062 247.329 666.535 262.365 675.664 278.961C668.334 281.611 661.235 284.136 653.827 286.827C651.583 278.774 646.71 271.937 646.378 263.552C646.236 260.144 644.39 257.453 641.06 256.257C637.771 255.139 635.023 256.319 632.584 258.628C630.945 260.206 628.945 261.481 627.265 262.983C621.573 267.938 617.169 273.992 614.047 280.949C609.898 290.251 606.936 299.91 605.28 309.962C604.027 317.806 603.95 325.614 606.621 333.537C605.487 333.649 604.626 333.714 603.807 333.856C589.069 335.313 574.29 336.694 560.074 341.157C556.851 342.194 553.592 343.35 550.375 344.583C546.576 346.03 544.611 348.481 545.122 351.094C545.668 353.588 548.505 355.348 552.494 354.994C557.385 354.652 562.305 353.996 567.184 353.263C582.605 351.039 598.103 348.774 613.524 346.551C615.008 346.35 616.569 346.107 617.928 345.674C621.964 344.299 623.608 340.328 621.074 336.912C616.943 331.268 616.438 324.968 617.103 318.437C618.409 305.885 622.006 293.892 627.467 282.59C628.351 280.72 629.634 279.034 630.72 277.355C631.094 276.755 631.628 276.268 632.346 275.384C632.892 276.584 633.236 277.594 633.735 278.52C636.643 283.925 639.475 289.372 642.573 294.576C643.481 296.078 645.013 297.445 646.639 298.064C648.147 298.646 650.384 298.737 651.815 298.067C659.323 294.823 666.624 291.193 674.168 287.831C677.534 286.319 681.107 285.193 684.597 283.912C686.77 283.142 688.313 281.017 687.803 278.404C687.381 276.141 686.526 273.813 685.327 271.77C679.914 262.634 674.234 253.742 668.821 244.606C665.473 238.939 662.588 233.023 659.431 227.155C659.348 227 659.265 226.846 659.223 226.769C656.706 220.057 654.261 218.286 647.049 218.383C638.739 218.473 630.94 221.176 623.218 223.838C599.938 231.983 582.096 247.458 567.304 266.569C563.493 271.507 561.125 277.462 558.115 282.964C557.825 283.718 557.617 284.627 557.065 285.82Z" fill="#068940"/>
<path d="M189.24 304.205C186.444 303.817 183.803 303.347 181.013 303.155C176.965 302.844 172.976 303.198 169.474 305.381C167.551 306.615 165.765 308.472 164.886 310.538C163.42 313.916 166.18 317.011 169.89 316.509C180.2 315.143 190.012 316.734 198.927 322.392C200.084 323.064 201.319 323.694 202.547 324.129C206.192 325.354 209.373 322.945 208.709 319.121C208.459 317.363 207.462 315.51 206.358 314.013C205.254 312.516 203.723 311.149 202.091 310.335C199.265 308.967 198.695 306.984 199.396 304.217C200.12 300.94 200.292 297.561 201.372 294.391C203.646 287.89 208.27 283.909 215.292 284.014C220.824 284.124 226.373 284.822 231.858 285.953C240.536 287.657 249.071 289.835 257.684 291.972C279.77 297.513 300.919 294.1 321.592 285.365C345.477 275.202 364.27 258.718 380.171 238.71C387.953 228.947 395.01 218.578 402.311 208.476C402.875 207.675 403.516 206.832 404.347 205.787C404.721 206.482 405.006 206.827 405.137 207.254C409.766 220.297 412.212 233.718 411.024 247.6C410.241 256.685 407.279 265.049 402.251 272.534C400.376 275.336 397.907 277.959 395.099 279.768C390.95 282.598 386.19 284.662 381.56 287.153C380.759 285.294 380.023 283.001 378.901 280.916C377.613 278.523 376.248 276.17 374.538 274.103C372.3 271.424 368.798 271.018 366.056 272.394C363.278 273.888 361.8 276.874 362.768 280.337C363.872 284.423 365.284 288.342 366.584 292.423C368.881 299.65 370.009 307.109 369.849 314.763C369.777 317.589 369.107 320.041 366.893 322.029C365.937 322.842 365.225 323.922 364.554 325.08C363.1 327.555 363.569 328.796 366.228 329.855C371.19 331.865 378.431 328.865 381.043 323.178C382.48 320.115 383.352 316.558 383.797 313.132C384.32 309.665 384.136 306.179 384.029 302.652C384.023 301.162 384.361 300.681 385.798 300.207C394.303 297.522 402.631 294.136 409.386 288.012C420.302 278.156 425.4 265.256 427.051 251.125C429.657 228.414 426.214 206.667 413.927 186.792C409.802 180.05 403.766 178.817 397.931 184.247C395.527 186.436 393.408 188.971 391.687 191.689C386.327 199.851 381.044 207.97 376.082 216.316C366.045 233.168 353.265 247.512 337.625 259.313C325.011 268.789 311.104 275.674 295.689 279.388C285.569 281.847 275.479 281.401 265.335 279.192C255.743 277.084 246.222 274.739 236.666 272.513C229.638 270.917 222.622 269.714 215.345 270.244C202.981 271.121 193.401 278.467 189.406 290.275C188 294.318 187.81 298.403 188.991 302.447C189.08 302.798 189.21 303.225 189.222 303.617C189.388 303.926 189.276 304.086 189.24 304.205Z" fill="#068940"/>
<path d="M392.652 447.571C390.225 445.094 388.201 442.997 386.218 440.977C370.465 425.754 354.712 410.532 338.959 395.31C338.312 394.662 337.469 394.02 336.633 393.575C334.959 392.683 333.433 392.807 331.979 393.987C330.566 395.245 330.264 396.902 330.94 398.529C331.611 399.961 332.4 401.428 333.493 402.533C339.576 409.217 345.702 415.978 352.053 422.418C362.007 432.596 372.192 442.649 382.413 452.583C386.776 456.807 391.287 460.753 395.84 464.776C398.137 466.825 400.214 466.803 401.983 464.358C403.336 462.435 404.328 460.208 404.886 457.917C405.544 455.073 405.729 452.086 406.031 449.135C406.655 443.821 408.863 439.048 411.854 434.252C412.661 435.013 413.267 435.583 413.795 436.195C421.945 445.053 430.017 453.953 438.244 462.77C440.191 464.909 442.523 466.84 444.737 468.735C445.823 469.645 447.177 470.31 448.524 470.78C450.346 471.393 452.139 471.026 453.463 469.418C454.709 467.851 454.656 466.087 453.706 464.507C452.554 462.737 451.284 460.931 449.901 459.285C440.434 448.348 430.925 437.334 421.381 426.438C420.081 424.947 419.82 424.091 421.381 422.554C434.683 409.92 450.234 401.652 468.421 398.837C481.182 396.849 492.43 400.555 502.367 408.85C512.944 417.597 509.406 431.549 498.965 436.37C494.519 438.464 489.949 440.326 485.343 442.306C483.901 438.701 482.619 435.209 481.105 431.841C480.013 429.442 478.766 427.125 477.211 424.975C475.324 422.206 472.006 421.403 469.418 422.696C466.711 423.953 465.233 426.939 466.391 430.199C468.337 436.222 470.676 442.232 472.973 448.166C475.139 453.671 477.306 459.177 479.781 464.517C481.253 467.807 483.188 470.848 485.082 473.813C486.684 476.236 488.862 476.956 490.797 476.114C492.851 475.308 493.961 473.117 493.207 470.237C491.694 464.28 489.949 458.448 488.239 452.497C488.014 451.523 487.67 450.514 487.367 449.581C490.994 448.924 494.472 448.546 497.897 447.699C507.275 445.342 514.855 440.566 519.128 431.496C525.242 418.448 523.242 405.484 512.849 395.045C500.432 382.509 485.13 378.296 467.922 381.082C452.353 383.585 438.476 390.155 425.94 399.589C420.42 403.754 415.226 408.341 409.64 412.94C408.709 411.948 407.652 410.724 406.518 409.542C398.749 401.574 391.092 393.447 383.209 385.639C380.865 383.316 377.944 381.403 375.036 379.881C373.481 379.025 371.089 379.017 369.338 379.462C366.655 380.208 365.539 383.497 366.993 386.2C368.198 388.439 369.789 390.471 371.605 392.182C381.802 401.333 391.24 411.29 400.41 421.491C401.182 422.37 401.829 423.018 400.927 424.3C396.398 431.417 392.967 438.54 392.652 447.571Z" fill="#068940"/>
<path d="M598.738 152.272C592.013 150.315 587.846 144.79 587.941 138.864C587.983 136.352 588.185 133.954 588.149 131.483C588.025 126.074 583.751 123.494 578.925 125.991C575.685 127.735 573.571 130.465 572.539 133.909C570.788 139.531 571.66 145.036 574.402 150.132C578.516 157.777 584.528 163.404 592.737 166.455C598.37 168.601 603.777 168.48 608.585 164.101C608.965 163.697 610.099 163.585 610.657 163.882C618.486 168.631 626.25 167.341 633.853 163.35C652.687 153.415 658.439 128.414 645.992 111.014C637.641 99.377 626.547 91.7045 612.616 88.7451C589.212 83.7137 566.764 86.9306 546.12 99.2335C524.822 111.987 517.616 132.991 526.359 156.267C530.2 166.548 535.435 176.277 540.088 186.22C544.783 196.24 549.633 206.177 554.096 216.322C555.443 219.381 556.292 222.807 556.63 226.21C557.378 232.778 551.716 237.418 545.281 236.001C543.898 235.65 542.432 235.144 541.067 235.381C540.052 235.529 538.788 236.508 538.188 237.428C537.85 237.908 538.562 239.417 539.209 240.065C546.819 246.625 558.215 246.168 565.017 239.023C569.386 234.382 570.977 228.647 569.736 222.643C568.49 216.443 566.81 210.178 564.323 204.446C557.794 189.538 550.571 175.004 543.964 160.137C541.566 154.756 539.631 149.126 538.207 143.52C534.735 129.854 539.744 119.193 550.791 111.059C557.118 106.36 564.122 103.288 571.714 101.493C584.754 98.3598 597.836 97.8926 610.859 101.938C620.991 105.05 629.087 110.85 635.076 119.576C641.89 129.651 639.249 143.419 629.212 149.915C626.558 151.642 623.614 152.828 620.7 151.11C617.667 149.356 615.667 146.748 615.471 142.871C615.382 139.931 614.901 137.004 613.993 134.207C612.693 130.126 609.334 127.951 605.57 127.985C601.849 128.095 598.548 130.468 597.177 134.392C595.551 138.952 596.317 143.519 597.824 147.985C598.252 149.149 598.37 150.479 598.738 152.272Z" fill="#068940"/>
<path d="M195.447 366.783C181.618 341.265 159.531 330.546 132.162 335.714C125.651 336.927 119.08 338.77 113.002 341.343C107.618 343.543 102.828 347.216 97.7829 350.229C97.1656 350.561 96.7145 351.202 96.1803 351.689C86.2025 361.439 85.6741 373.772 94.9336 384.323C100.501 390.787 107.612 395.126 115.791 397.197C124.089 399.304 132.636 400.58 141.006 402.449C147.915 404.009 154.824 405.569 161.59 407.604C166.891 409.133 171.449 412.057 175.557 415.622C177.207 417.025 178.97 418.267 180.655 419.55C184.383 422.224 187.09 422.262 190.485 419.14C198.035 412.091 202.522 403.602 202.398 393.015C202.297 383.211 199.359 374.237 195.447 366.783ZM186.757 406.11C172.138 397.248 156.961 390.678 139.842 389.931C137.486 389.805 135.046 389.525 132.72 389.084C128.066 388.202 123.335 387.362 118.747 386.047C112.337 384.12 106.9 380.672 103.119 374.94C100.038 370.325 100.305 366.198 104.508 362.543C107.108 360.347 110.07 358.455 113.126 357.109C123.075 352.851 133.735 351.397 144.431 352.412C156.504 353.583 166.731 358.536 174.512 368.19C178.833 373.631 182.264 379.452 184.579 385.974C186.775 392.459 187.956 399.092 186.757 406.11Z" fill="#068940"/>
<path d="M326.346 367.245C325.854 367.809 325.741 367.969 325.509 368.094C314.131 374.316 303.001 381.002 290.709 385.525C288.228 386.462 285.758 387.79 283.527 389.19C281.259 390.709 280.47 393.125 281.2 395.222C281.936 397.514 284.013 398.786 286.874 398.74C291.694 398.636 295.706 396.477 299.796 394.277C308.901 389.377 318.09 384.633 327.32 379.965C330.293 378.464 333.475 377.35 336.49 375.927C337.998 375.215 339.464 374.426 340.764 373.328C344.474 370.237 344.99 365.279 341.292 362.29C331.326 354.31 320.719 347.172 308.629 342.824C305.892 341.807 302.491 342.144 299.488 342.664C288.917 344.469 279.538 349.416 270.29 354.79C262.622 359.215 254.87 363.486 247.236 367.792C246.774 368.041 246.269 368.213 245.301 368.634C245.385 367.494 245.557 366.705 245.61 365.879C246.501 355.144 247.741 344.32 248.121 333.561C248.353 328.258 247.207 322.801 245.99 317.581C245.32 314.855 243.67 312.158 241.8 309.978C237.74 305.391 231.341 306.444 229.163 312.197C228 315.212 227.121 318.573 227.293 321.667C228.207 337.604 227.002 353.488 226.818 369.419C226.729 375.541 227.5 381.598 227.922 387.744C228.029 388.682 228.331 389.615 228.634 390.547C229.981 394.9 232.866 395.638 235.941 392.291C237.763 390.315 238.903 387.81 240.404 385.608C241.004 384.688 241.639 383.649 242.488 383.192C258.015 375.435 273.626 367.832 289.16 360.27C290.436 359.683 291.837 359.327 293.232 358.776C300.752 355.924 307.976 356.22 314.897 360.76C318.535 363.084 322.358 365.01 326.346 367.245Z" fill="#068940"/>
<path d="M324.478 195.492C321.053 197.633 317.669 199.852 314.043 201.804C300.581 209.147 286.875 216.223 273.496 223.72C267.021 227.404 260.836 231.628 254.77 235.888C248.323 240.551 251.392 246.069 255.98 248.679C258.093 249.832 260.206 250.985 262.462 251.663C273.858 255.09 285.427 257.728 297.429 257.842C312.487 257.904 325.546 252.77 334.538 240.264C343.115 228.28 346.196 214.773 343.204 200.152C342.142 194.849 338.913 191.807 334.556 191.662C333.144 191.626 331.63 192.141 330.235 192.693C328.3 193.535 326.413 194.65 324.561 195.646C324.561 195.646 324.519 195.569 324.478 195.492ZM272.529 239.675C273.336 239.141 273.603 238.897 273.989 238.69C282.851 233.523 291.879 228.665 300.575 223.19C310.001 217.222 319.135 210.714 328.514 204.472C329.974 203.488 331.6 202.812 333.529 201.774C332.686 210.193 331.232 217.846 327.564 224.898C323.486 232.669 317.206 237.641 309.181 240.664C296.966 245.146 285.011 242.716 272.529 239.675Z" fill="#068940"/>
<path d="M476.074 160.822C476.448 158.928 476.911 157.384 476.905 155.894C477.054 151.731 477.665 147.32 476.763 143.424C474.721 134.267 465.295 131.173 457.692 136.459C453.851 139.123 451.258 142.809 449.625 147.173C447.37 152.967 445.785 158.898 446.129 165.085C446.639 172.876 447.5 180.578 448.479 188.316C449.037 192.496 450.913 196.167 454.712 198.604C456.552 199.804 458.32 199.948 460.339 199.26C472.245 194.945 482.057 187.475 491.168 178.888C493.875 176.336 495.941 173.333 496.73 169.622C498.178 163.067 494.409 157.727 487.666 157.771C484.568 157.745 481.547 158.972 478.472 159.731C477.807 159.79 477.154 160.24 476.074 160.822ZM484.871 169.033C484.995 169.265 485.12 169.496 485.322 169.687C478.876 178.233 470.269 184.059 461.11 189.784C460.974 189.16 460.885 188.81 460.837 188.537C460.434 181.684 460.072 174.909 459.668 168.056C459.342 162.457 459.923 157.065 461.645 151.758C462.221 150.054 463.152 148.457 464.126 146.938C464.5 146.338 465.473 146.113 466.203 145.621C466.577 146.316 467.224 146.963 467.284 147.628C467.462 149.624 467.64 151.619 467.503 153.584C467.147 158.655 466.476 163.696 466.12 168.767C465.705 174.467 469.824 177.129 474.958 174.466C477.196 173.262 479.267 171.749 481.505 170.545C482.467 169.928 483.749 169.537 484.871 169.033Z" fill="#068940"/>
<path d="M441.527 327.774C434.867 316.322 424.687 310.348 412.062 307.782C408.946 307.168 405.527 306.917 403.141 309.694C401.966 311.024 400.844 312.822 400.583 314.556C400.233 317.234 400.399 320.132 400.678 322.869C401.176 327.679 401.871 332.483 402.488 337.329C402.85 340.221 403.657 340.982 406.637 340.971C408.792 340.907 410.94 340.647 413.059 340.702C421.417 340.885 429.774 341.068 438.096 341.37C441.823 341.455 444.227 339.266 443.681 335.477C443.444 332.817 442.31 330.34 441.527 327.774Z" fill="#068940"/>
<path d="M21.4987 398.744C22.3475 399.581 24.051 401.453 25.9385 402.927C30.6395 406.67 35.4948 410.331 40.3501 413.992C44.683 417.236 46.161 416.839 50.8145 413.837C54.9695 411.203 59.4984 409.264 63.9857 407.248C67.5056 405.653 71.2747 404.521 74.8301 402.807C76.4149 402.054 77.9404 400.636 78.8723 399.039C80.1069 397.08 79.0504 394.562 76.9551 392.702C71.3163 387.77 65.642 382.957 60.0032 378.025C57.0651 375.524 53.9132 375.029 50.4765 376.779C42.5228 380.859 34.4918 384.981 26.5381 389.062C25.9979 389.353 25.3747 389.489 24.7515 389.625C20.3473 390.501 18.7624 393.843 21.4987 398.744ZM67.3276 397.185C61.2317 400.466 55.7531 403.413 50.1558 406.326C49.6928 406.575 48.66 406.135 48.2564 405.754C44.9562 402.95 41.6916 400.026 38.4271 397.103C37.5011 396.307 36.5752 395.511 35.5305 394.679C41.5789 392.42 47.3127 390.131 52.9753 388.08C53.557 387.867 54.4236 387.998 54.9815 388.295C58.988 391.118 62.959 394.06 67.3276 397.185Z" fill="#068940"/>
<path d="M321.763 318.232C323.995 322.01 327.592 325.551 332.661 327.205C340.424 329.798 347.891 325.183 348.544 316.966C348.764 313.86 348.034 310.469 346.924 307.482C345.387 303.33 342.039 300.252 338.318 297.774C330.358 292.597 320.843 296.921 319.324 306.302C318.7 310.321 319.478 313.985 321.763 318.232ZM331.284 308.927C334.531 308.674 337.118 311.264 337.344 314.827C337.475 316.549 336.703 316.964 335.195 316.382C332.851 315.353 331.106 312.11 331.284 308.927Z" fill="#068940"/>
<path d="M65.0129 355.714C66.206 354.972 67.5178 354.267 68.6278 353.371C70.539 351.745 71.0139 349.299 70.0524 347.327C69.0493 345.277 66.6987 344.053 64.2829 344.556C62.9593 344.87 61.7188 345.338 60.4426 345.926C49.5804 351.073 38.7182 356.221 27.856 361.368C26.0397 362.246 24.1878 363.243 22.4605 364.471C19.926 366.233 19.3383 368.839 20.7807 371.15C22.1399 373.306 24.5498 373.901 27.298 372.721C35.6909 368.902 44.0008 364.929 52.3938 361.11C56.5309 359.183 60.7156 357.528 64.8942 355.678C64.9714 355.637 65.0129 355.714 65.0129 355.714Z" fill="#068940"/>
<path d="M571.749 50.8902C569.28 52.2189 566.888 53.506 564.187 54.9591C566.621 57.6327 569.013 60.2289 571.69 63.1698C568.051 64.7293 564.721 66.1227 561.006 67.7238C560.157 64.2971 559.32 61.2623 558.477 58.0316C555.159 59.8169 551.995 61.5192 548.523 63.3876C549.764 66.8026 550.927 70.2592 552.399 73.5497C553.45 75.872 555.551 76.6333 557.955 75.7381C564.353 73.3905 570.871 71.0786 577.228 68.6538C581.181 67.1241 582.172 63.6036 579.56 60.2293C577.228 57.0036 574.432 54.027 571.749 50.8902Z" fill="#068940"/>
<path d="M525.059 232.444C525.683 231.013 526.626 229.808 526.668 228.591C526.543 220.593 523.748 213.733 517.213 208.984C511.04 204.539 504.006 204.042 497.079 207.072C495.221 207.873 493.553 209.766 492.509 211.523C491.422 213.203 492.034 215.264 493.53 216.749C494.984 218.157 496.586 217.992 498.367 217.233C506.891 213.841 512.423 215.246 518.168 222.411C520.418 225.482 522.359 228.719 525.059 232.444Z" fill="#068940"/>
<path d="M625.871 55.1262C622.755 49.3349 615.264 46.694 609.696 49.2915C605.44 51.1832 602.799 55.8903 603.41 60.5401C603.98 65.1126 607.625 68.9269 612.32 69.8857C617.804 71.0172 622.202 68.6506 625.693 64.7811C628.346 61.7603 627.135 58.0306 625.871 55.1262ZM618.54 60.365C618.356 60.7627 618.315 61.98 617.662 62.4309C616.166 63.5344 613.317 62.6777 612.444 61.0561C611.738 59.7434 612.219 58.7877 613.453 58.1234C614.997 57.293 617.335 58.1257 618.54 60.365Z" fill="#068940"/>
<path d="M472.297 227.774C471.573 227.168 470.433 225.79 469.032 224.851C464.913 222.188 460.681 219.686 456.407 217.106C456.087 216.881 455.731 216.773 455.333 216.589C452.597 215.572 449.991 216.277 448.525 218.361C447.017 220.367 446.993 223.466 448.934 225.409C453.991 230.554 459.909 234.34 466.794 236.411C469.05 237.089 471.305 236.473 472.736 234.508C474.166 232.544 473.87 230.513 472.297 227.774Z" fill="#068940"/>
<path d="M423.696 377.298C421.084 372.63 415.268 370.88 410.561 373.413C405.777 375.987 404.037 382.001 406.732 386.824C409.427 391.648 415.44 393.391 420.105 390.781C424.848 388.13 426.432 382.199 423.696 377.298Z" fill="#068940"/>
<path d="M144.306 313.347C141.261 309.907 138.62 306.847 135.824 303.871C134.406 302.344 132.144 302.764 130.904 304.527C128.909 307.293 126.915 310.059 125.039 312.86C124.701 313.341 124.327 313.941 124.149 314.534C123.466 316.594 124.41 317.978 126.606 317.992C131.271 317.971 136.02 318.104 140.679 317.887C141.855 317.852 143.362 317.141 144.08 316.256C144.609 315.574 144.253 314.172 144.306 313.347Z" fill="#068940"/>
<path d="M588.808 177.829C586.6 173.54 581.448 171.732 577.436 173.891C573.655 175.926 572.343 180.515 574.302 184.34C576.462 188.355 581.496 190.128 585.318 188.171C589.218 186.172 590.761 181.458 588.808 177.829Z" fill="#068940"/>
<path d="M261.756 325.429C260.629 327.031 259.602 328.082 259.091 329.352C257.756 333.158 256.699 337.112 255.601 340.989C255.316 341.938 255.31 343.037 255.536 344.011C256.141 347.17 259.234 348.294 261.4 346.033C265.24 342.075 268.042 337.481 269.051 331.959C269.49 329.632 268.95 327.333 266.718 326.144C265.33 325.597 263.49 325.691 261.756 325.429Z" fill="#068940"/>
<path d="M366.859 199.173C370.527 197.299 371.963 192.942 370.171 189.425C368.254 185.677 363.226 184.101 359.522 186.094C355.7 188.051 353.818 193.246 355.646 196.643C357.516 200.118 362.846 201.332 366.859 199.173Z" fill="#068940"/>
<path d="M532.858 359.187C536.746 356.797 538.206 353.223 536.616 349.897C534.983 346.493 530.906 345.202 526.964 347.124C525.302 347.919 523.735 349.26 522.56 350.589C520.857 352.601 520.619 355.119 522.026 357.548C523.35 359.823 525.534 360.739 528.074 360.467C529.635 360.225 531.262 359.549 532.858 359.187Z" fill="#068940"/>
<path d="M509.8 106.628C511.628 110.026 515.741 111.198 519.024 109.531C522.419 107.705 523.624 103.471 521.677 100.038C519.849 96.6407 515.73 95.2725 512.447 96.9391C509.088 98.6472 507.889 103.076 509.8 106.628Z" fill="#068940"/>
<path d="M8.10726 382.549C10.8851 381.055 11.8408 377.653 10.3095 374.992C8.7781 372.331 5.37698 371.373 2.64065 372.945C0.0586468 374.433 -0.938571 377.758 0.474083 380.383C2.00545 383.045 5.40654 384.003 8.10726 382.549Z" fill="#068940"/>
<path d="M517.796 229.481C515.76 225.698 509.676 225.486 507.391 229.006C506.34 230.567 506.5 231.975 508.334 232.979C509.29 233.461 510.287 234.019 511.094 234.78C513.308 236.675 515.243 237.128 516.816 235.983C518.579 234.636 519.001 231.721 517.796 229.481Z" fill="#068940"/>
<path d="M510.744 126.134C512.288 125.304 512.745 123.564 511.914 122.02C511.083 120.476 509.225 119.982 507.842 120.925C506.34 121.833 505.99 123.216 506.744 124.802C507.498 126.388 509.278 126.923 510.744 126.134Z" fill="#068940"/>
<path d="M373.144 182.748C374.361 182.79 375.667 183.183 376.635 182.762C377.988 182.133 378.178 180.637 377.276 179.33C376.373 178.023 374.949 177.595 373.845 178.686C373.043 179.416 372.931 180.871 372.533 181.981C372.735 182.171 372.978 182.439 373.144 182.748Z" fill="#068940"/>
</g>
<defs>
<clipPath id="clip0_690_716">
<rect width="1127.55" height="784" fill="white" transform="matrix(-0.880614 0.473835 0.473835 0.880614 664.727 0.663086)"/>
</clipPath>
</defs>
</svg>
