<svg width="19" height="18" viewBox="0 0 19 18" fill="none" xmlns="http://www.w3.org/2000/svg">
<path d="M9.39 0.271973C6.9996 0.271973 6.69901 0.282983 5.75981 0.324823C4.82061 0.368866 4.1809 0.516407 3.62046 0.734417C3.0326 0.95553 2.50013 1.30237 2.06026 1.75069C1.61222 2.19078 1.26542 2.72319 1.04399 3.31089C0.825978 3.87023 0.677335 4.51104 0.634394 5.44694C0.592554 6.38834 0.581543 6.68783 0.581543 9.08153C0.581543 11.473 0.592554 11.7725 0.634394 12.7117C0.678436 13.6498 0.825978 14.2895 1.04399 14.85C1.2697 15.4291 1.57029 15.9202 2.06026 16.4102C2.54913 16.9001 3.0402 17.2018 3.61936 17.4264C4.1809 17.6444 4.81951 17.7931 5.75761 17.836C6.69791 17.8779 6.9974 17.8889 9.39 17.8889C11.7826 17.8889 12.081 17.8779 13.0213 17.836C13.9583 17.792 14.6002 17.6444 15.1606 17.4264C15.7481 17.2052 16.2802 16.8584 16.7197 16.4102C17.2097 15.9202 17.5103 15.4291 17.736 14.85C17.9529 14.2895 18.1016 13.6498 18.1456 12.7117C18.1874 11.7725 18.1985 11.473 18.1985 9.08043C18.1985 6.68783 18.1874 6.38834 18.1456 5.44804C18.1016 4.51104 17.9529 3.87023 17.736 3.31089C17.5146 2.72317 17.1678 2.19076 16.7197 1.75069C16.28 1.3022 15.7475 0.955339 15.1595 0.734417C14.598 0.516407 13.9572 0.367765 13.0202 0.324823C12.0799 0.282983 11.7815 0.271973 9.3878 0.271973H9.39ZM8.60054 1.8597H9.3911C11.743 1.8597 12.0215 1.8674 12.9497 1.91035C13.8085 1.94888 14.2754 2.09312 14.5859 2.21314C14.9966 2.37279 15.2906 2.56437 15.5989 2.87267C15.9072 3.18096 16.0976 3.47385 16.2573 3.88564C16.3784 4.19504 16.5215 4.66189 16.5601 5.52071C16.603 6.4489 16.6118 6.72747 16.6118 9.07823C16.6118 11.429 16.603 11.7086 16.5601 12.6368C16.5215 13.4957 16.3773 13.9614 16.2573 14.2719C16.1161 14.6544 15.8907 15.0002 15.5978 15.2838C15.2895 15.5921 14.9966 15.7826 14.5848 15.9422C14.2765 16.0633 13.8096 16.2065 12.9497 16.2461C12.0215 16.2879 11.743 16.2979 9.3911 16.2979C7.03924 16.2979 6.75957 16.2879 5.83138 16.2461C4.97256 16.2065 4.50681 16.0633 4.19631 15.9422C3.81369 15.8012 3.46755 15.5762 3.18334 15.2838C2.89018 14.9997 2.66444 14.6536 2.52271 14.2708C2.40269 13.9614 2.25845 13.4946 2.21992 12.6357C2.17808 11.7075 2.16927 11.429 2.16927 9.07602C2.16927 6.72417 2.17808 6.4467 2.21992 5.51851C2.25955 4.65968 2.40269 4.19284 2.52381 3.88234C2.68346 3.47164 2.87504 3.17766 3.18334 2.86937C3.49164 2.56107 3.78452 2.37059 4.19631 2.21093C4.50681 2.08982 4.97256 1.94668 5.83138 1.90704C6.64396 1.86961 6.95886 1.8586 8.60054 1.85749V1.8597ZM14.0926 3.3219C13.9538 3.3219 13.8164 3.34924 13.6881 3.40236C13.5599 3.45548 13.4433 3.53334 13.3452 3.63149C13.247 3.72965 13.1692 3.84617 13.1161 3.97441C13.0629 4.10266 13.0356 4.24011 13.0356 4.37891C13.0356 4.51772 13.0629 4.65517 13.1161 4.78342C13.1692 4.91166 13.247 5.02818 13.3452 5.12634C13.4433 5.22449 13.5599 5.30235 13.6881 5.35547C13.8164 5.40859 13.9538 5.43593 14.0926 5.43593C14.3729 5.43593 14.6418 5.32457 14.84 5.12634C15.0383 4.92811 15.1496 4.65925 15.1496 4.37891C15.1496 4.09858 15.0383 3.82972 14.84 3.63149C14.6418 3.43326 14.3729 3.3219 14.0926 3.3219ZM9.3911 4.55729C8.7911 4.54792 8.19523 4.65802 7.63819 4.88115C7.08115 5.10429 6.57406 5.43601 6.14645 5.857C5.71884 6.27799 5.37925 6.77984 5.14745 7.33334C4.91565 7.88683 4.79628 8.48091 4.79628 9.08098C4.79628 9.68105 4.91565 10.2751 5.14745 10.8286C5.37925 11.3821 5.71884 11.884 6.14645 12.305C6.57406 12.7259 7.08115 13.0577 7.63819 13.2808C8.19523 13.5039 8.7911 13.614 9.3911 13.6047C10.5786 13.5861 11.7113 13.1014 12.5445 12.255C13.3777 11.4087 13.8448 10.2687 13.8448 9.08098C13.8448 7.8933 13.3777 6.75325 12.5445 5.90691C11.7113 5.06056 10.5786 4.57581 9.3911 4.55729ZM9.3911 6.14391C9.77673 6.14391 10.1586 6.21986 10.5149 6.36744C10.8711 6.51501 11.1948 6.73131 11.4675 7.00399C11.7402 7.27668 11.9565 7.6004 12.1041 7.95667C12.2517 8.31295 12.3276 8.6948 12.3276 9.08043C12.3276 9.46606 12.2517 9.84791 12.1041 10.2042C11.9565 10.5605 11.7402 10.8842 11.4675 11.1569C11.1948 11.4295 10.8711 11.6458 10.5149 11.7934C10.1586 11.941 9.77673 12.0169 9.3911 12.0169C8.61229 12.0169 7.86537 11.7076 7.31467 11.1569C6.76396 10.6062 6.45458 9.85924 6.45458 9.08043C6.45458 8.30161 6.76396 7.5547 7.31467 7.00399C7.86537 6.45329 8.61229 6.14391 9.3911 6.14391Z" fill="#8F8F8F"/>
</svg>
