<svg width="15" height="14" viewBox="0 0 15 14" fill="none" xmlns="http://www.w3.org/2000/svg">
<path d="M3.20495 1.94293C3.20476 2.33229 3.0499 2.70562 2.77444 2.9808C2.49899 3.25598 2.1255 3.41047 1.73614 3.41027C1.34678 3.41008 0.973449 3.25522 0.698269 2.97976C0.423089 2.70431 0.268604 2.33082 0.268799 1.94146C0.268994 1.55211 0.423852 1.17877 0.699307 0.903592C0.974763 0.628412 1.34825 0.473927 1.73761 0.474121C2.12697 0.474316 2.5003 0.629174 2.77548 0.90463C3.05066 1.18009 3.20515 1.55357 3.20495 1.94293ZM3.24899 4.49738H0.312841V13.6875H3.24899V4.49738ZM7.88811 4.49738H4.96664V13.6875H7.85875V8.86491C7.85875 6.17833 11.3601 5.92876 11.3601 8.86491V13.6875H14.2596V7.86662C14.2596 3.3376 9.07725 3.50643 7.85875 5.73057L7.88811 4.49738Z" fill="#8F8F8F"/>
</svg>
