<svg width="15" height="14" viewBox="0 0 15 14" fill="none" xmlns="http://www.w3.org/2000/svg">
<path fill-rule="evenodd" clip-rule="evenodd" d="M14.7629 1.7176C14.7949 1.52331 14.7743 1.324 14.7031 1.14041C14.6319 0.956829 14.5127 0.795698 14.3581 0.67381C14.2035 0.551921 14.0189 0.473734 13.8238 0.447395C13.6287 0.421056 13.43 0.447529 13.2486 0.524056L0.696563 5.80913C-0.17841 6.17762 -0.223186 7.4431 0.696563 7.8248C1.6073 8.20462 2.53131 8.5518 3.46682 8.86566C4.32418 9.149 5.25934 9.41105 6.00879 9.48519C6.21359 9.73036 6.47124 9.96672 6.73402 10.1825C7.13554 10.5128 7.61854 10.8527 8.11769 11.1786C9.11744 11.8319 10.2266 12.4566 10.9738 12.8632C11.8672 13.3477 12.9366 12.7898 13.0967 11.8158L14.7629 1.7176ZM2.10371 6.80962L13.2053 2.13527L11.6506 11.5603C10.9173 11.1617 9.86103 10.565 8.91999 9.94984C8.48627 9.67137 8.06753 9.37025 7.66552 9.0477C7.55806 8.95993 7.45376 8.86837 7.35282 8.77317L10.2603 5.86638C10.3981 5.72875 10.4755 5.54203 10.4756 5.34731C10.4756 5.15259 10.3983 4.96582 10.2607 4.82809C10.1231 4.69035 9.93635 4.61293 9.74164 4.61287C9.54692 4.6128 9.36015 4.69008 9.22241 4.82772L6.03889 8.01124C5.50011 7.94224 4.74992 7.74258 3.92633 7.47099C3.31318 7.26673 2.70567 7.04595 2.10445 6.80889L2.10371 6.80962Z" fill="#8F8F8F"/>
</svg>
