<svg width="16" height="18" viewBox="0 0 16 18" fill="none" xmlns="http://www.w3.org/2000/svg">
<path d="M12.3328 8.43741C12.2565 8.40086 12.1794 8.36587 12.1016 8.33244C11.9658 5.82644 10.5968 4.39213 8.29784 4.37745H8.26701C6.89216 4.37745 5.74853 4.96468 5.04459 6.0327L6.3086 6.8996C6.83417 6.1017 7.65923 5.93214 8.26775 5.93214H8.2883C9.04509 5.93654 9.61691 6.15675 9.98613 6.58543C10.2555 6.89813 10.4354 7.33048 10.5242 7.87514C9.80618 7.75855 9.07732 7.72334 8.35143 7.77017C6.1662 7.89642 4.76051 9.17145 4.85521 10.9427C4.90292 11.8404 5.35068 12.6141 6.11555 13.1184C6.7615 13.5456 7.59464 13.754 8.46007 13.7071C9.6037 13.6447 10.5007 13.2079 11.1261 12.4108C11.601 11.8052 11.9012 11.0205 12.0341 10.0317C12.5788 10.3606 12.9825 10.7929 13.2056 11.3126C13.5844 12.1972 13.6064 13.6498 12.4217 14.8338C11.383 15.8717 10.1344 16.3202 8.24793 16.3342C6.15519 16.3195 4.57187 15.6479 3.54275 14.3398C2.57895 13.114 2.08128 11.3449 2.06293 9.08043C2.08128 6.81592 2.57895 5.04615 3.54275 3.82105C4.57187 2.51299 6.15445 1.84208 8.24793 1.82666C10.3554 1.84135 11.9658 2.51666 13.0346 3.83059C13.5587 4.47581 13.9536 5.28619 14.2142 6.23089L15.6955 5.83598C15.3798 4.67253 14.8829 3.67057 14.2076 2.8389C12.8379 1.15282 10.8339 0.28959 8.25307 0.271973H8.24279C5.66632 0.28959 3.68588 1.15649 2.35507 2.84845C1.17034 4.35322 0.559616 6.44817 0.539062 9.07455V9.0863C0.559616 11.7127 1.17034 13.8069 2.35507 15.3124C3.68588 17.0044 5.66632 17.8713 8.24206 17.8889H8.25307C10.5433 17.8727 12.1574 17.2738 13.4868 15.9444C15.2272 14.2062 15.175 12.0276 14.601 10.6902C14.19 9.73078 13.4053 8.9527 12.3328 8.43741ZM8.37859 12.1538C7.42067 12.2082 6.42605 11.778 6.37613 10.8575C6.33943 10.1749 6.86206 9.41221 8.43731 9.32193C8.61788 9.31091 8.79479 9.30651 8.96875 9.30651C9.5413 9.30651 10.0757 9.36156 10.5623 9.468C10.381 11.7347 9.31669 12.1025 8.37859 12.1538Z" fill="#8F8F8F"/>
</svg>
