<svg width="139" height="28" viewBox="0 0 139 28" fill="none" xmlns="http://www.w3.org/2000/svg">
<path fill-rule="evenodd" clip-rule="evenodd" d="M41.4277 7.60813H43.5625V20.0909H41.4277V14.8263H35.3131V20.0909H33.1602V7.60813H35.3131V12.8002H41.4277V7.60813ZM54.5375 15.4951C54.5375 15.7488 54.5194 16.0387 54.4832 16.2906H47.0112C47.3374 17.6118 48.4773 18.4799 49.9779 18.4799C51.1903 18.4799 52.2215 17.9017 52.747 17.2131L54.1207 18.3892C53.1801 19.5654 51.6615 20.3084 49.9235 20.3084C46.9931 20.3084 44.822 18.208 44.822 15.4407C44.822 12.7096 46.9206 10.6473 49.6897 10.6473C52.4571 10.6473 54.5375 12.7096 54.5375 15.4951ZM49.6716 12.474C48.3505 12.474 47.3193 13.3421 46.9931 14.627H52.3664C52.0584 13.324 50.9909 12.474 49.6716 12.474ZM62.8322 10.8629H64.8583V20.0909H62.8322V18.7698C62.0729 19.7285 60.9511 20.3084 59.5937 20.3084C56.9895 20.3084 55.054 18.2279 55.054 15.4769C55.054 12.7278 56.9895 10.6473 59.5937 10.6473C60.9511 10.6473 62.0729 11.2254 62.8322 12.1841V10.8629ZM59.9924 18.353C61.6198 18.353 62.8322 17.1043 62.8322 15.4769C62.8322 13.8495 61.6198 12.6009 59.9924 12.6009C58.3469 12.6009 57.1345 13.8495 57.1345 15.4769C57.1345 17.1043 58.3469 18.353 59.9924 18.353ZM66.551 20.0909V7.06445H68.5771V20.0909H66.551ZM75.8152 12.7096H73.211V17.0699C73.211 17.938 73.6985 18.353 74.5485 18.353C75.0559 18.353 75.4528 18.208 75.8152 18.0286V19.9278C75.3096 20.1816 74.8022 20.3084 74.1334 20.3084C72.1436 20.3084 71.1849 19.1866 71.1849 17.3943V12.7096H69.6282V10.8629H71.1849V8.4762H73.211V10.8629H75.8152V12.7096ZM82.0603 10.6473C84.2495 10.6473 85.7156 12.0935 85.7156 14.2827V20.0909H83.6895V14.9532C83.6895 13.5415 82.7852 12.6009 81.3915 12.6009C79.9254 12.6009 78.9486 13.5596 78.9486 14.9894V20.0909H76.9225V7.06445H78.9486V12.1116C79.6916 11.1529 80.7591 10.6473 82.0603 10.6473ZM94.8222 13.469C96.0889 13.8677 96.9751 15.187 96.9751 16.7075C96.9751 18.6792 95.4728 20.0909 93.4829 20.0909H87.4046V7.60813H93.0661C94.9128 7.60813 96.3227 8.94557 96.3227 10.756C96.3227 11.9666 95.6902 13.0159 94.8222 13.469ZM92.5423 9.54362H89.4851V12.7278H92.5423C93.4104 12.7278 94.1154 12.0391 94.1154 11.1348C94.1154 10.2305 93.4467 9.54362 92.5423 9.54362ZM92.9755 18.1536C93.9903 18.1536 94.7497 17.3581 94.7497 16.345C94.7497 15.332 93.9903 14.5545 92.9755 14.5545H89.4851V18.1536H92.9755ZM102.002 20.3084C99.4343 20.3084 97.7326 18.7698 97.7326 16.4175V10.8629H99.7606V16.1457C99.7606 17.4668 100.665 18.353 102.002 18.353C103.342 18.353 104.228 17.4668 104.228 16.1457V10.8629H106.256V16.4175C106.256 18.7698 104.554 20.3084 102.002 20.3084ZM113.055 10.6473C115.641 10.6473 117.597 12.7278 117.597 15.4769C117.597 18.2279 115.641 20.3084 113.055 20.3084C111.698 20.3084 110.56 19.7285 109.799 18.7517V20.0909H107.773V7.06445H109.799V12.2022C110.56 11.2254 111.698 10.6473 113.055 10.6473ZM112.657 18.353C114.286 18.353 115.496 17.1043 115.496 15.4769C115.496 13.8495 114.286 12.6009 112.657 12.6009C111.029 12.6009 109.799 13.8495 109.799 15.4769C109.799 17.1043 111.029 18.353 112.657 18.353ZM124.028 10.6473C126.615 10.6473 128.568 12.7278 128.568 15.4769C128.568 18.2279 126.615 20.3084 124.028 20.3084C122.671 20.3084 121.531 19.7285 120.772 18.7517V20.0909H118.744V7.06445H120.772V12.2022C121.531 11.2254 122.671 10.6473 124.028 10.6473ZM123.63 18.353C125.257 18.353 126.471 17.1043 126.471 15.4769C126.471 13.8495 125.257 12.6009 123.63 12.6009C122.001 12.6009 120.772 13.8495 120.772 15.4769C120.772 17.1043 122.001 18.353 123.63 18.353ZM136.972 10.8629H139V20.0909H136.972V18.7698C136.212 19.7285 135.09 20.3084 133.733 20.3084C131.129 20.3084 129.192 18.2279 129.192 15.4769C129.192 12.7278 131.129 10.6473 133.733 10.6473C135.09 10.6473 136.212 11.2254 136.972 12.1841V10.8629ZM134.132 18.353C135.759 18.353 136.972 17.1043 136.972 15.4769C136.972 13.8495 135.759 12.6009 134.132 12.6009C132.486 12.6009 131.272 13.8495 131.272 15.4769C131.272 17.1043 132.486 18.353 134.132 18.353Z" fill="#131316"/>
<path fill-rule="evenodd" clip-rule="evenodd" d="M12.5825 9.65779C12.8978 9.35696 14.199 8.02495 14.3567 7.95608L15.3752 9.00176C15.7249 9.34427 16.0493 9.66685 16.4009 10.0094L20.5165 14.0888C20.8609 14.4331 21.1925 14.7611 21.5423 15.0982C21.7797 15.3247 22.3795 15.901 22.5608 16.1348L21.004 16.1402L20.9914 19.6415C18.0301 19.6306 15.2211 20.2232 12.9069 21.3668C12.3596 21.6368 11.8141 21.9539 11.352 22.2693C10.3317 22.9652 10.0145 23.2841 9.19176 24.116L8.76044 24.598C8.31282 25.1308 7.86338 25.8938 7.77458 26.0152C7.83619 26.4538 8.00111 26.7311 8.40524 27.0645C8.44149 27.0953 8.48679 27.1243 8.53754 27.1533C8.75501 26.7093 9.65751 25.7434 10.0689 25.3574C10.2682 25.1689 10.4277 25.0003 10.647 24.8137C12.3052 23.3911 14.1918 22.3019 16.3665 21.577C17.2762 21.2725 19.074 20.8122 20.0218 20.7579V20.7959C20.1668 20.4842 20.4151 20.216 20.705 20.0638L20.7956 20.0185C21.2704 19.8046 21.6275 19.8662 22.2038 19.8662C23.3364 19.8662 24.4691 19.8662 25.6035 19.8662C26.0403 19.8662 26.2976 19.8699 26.6021 19.7231L26.8631 19.569C26.8939 19.5455 26.9229 19.531 26.9501 19.5074C27.153 19.3352 27.3343 19.1087 27.4249 18.8532C27.4702 18.7227 27.53 18.5505 27.53 18.3838V9.1123C27.53 8.80603 27.3977 8.51426 27.2382 8.27504C27.182 8.18986 27.0443 8.04488 26.9682 7.98146C26.8558 7.89084 26.7561 7.82198 26.6148 7.75674C26.4789 7.69331 26.3556 7.65162 26.1835 7.62444C25.9134 7.57913 22.5571 7.60269 22.2038 7.60269C21.5278 7.60269 20.8917 7.68968 20.3661 7.15869C19.7989 6.58783 19.8841 6.09852 19.8841 5.35731V1.93215C19.8841 1.28155 19.8551 1.03689 19.5216 0.587453C19.3948 0.417101 19.2244 0.302928 19.0504 0.197818C18.8891 0.0999558 18.5865 0.00390625 18.3853 0.00390625H9.2425C9.04859 0.00390625 8.74413 0.0981435 8.58465 0.194193C8.46323 0.264871 8.35087 0.335549 8.2512 0.437035C8.09716 0.592889 7.98842 0.723372 7.89237 0.937218C7.75283 1.24893 7.74558 1.48633 7.74558 1.93215V5.93361C7.74558 6.3903 7.65134 6.71831 7.35957 7.05902C7.13304 7.32179 6.84489 7.48308 6.506 7.56645C6.2251 7.6335 5.74485 7.60269 5.40052 7.60269H1.96449C1.48967 7.60269 1.29214 7.59544 0.94781 7.74224C0.697718 7.84916 0.46575 8.04126 0.311708 8.24604C0.155854 8.45264 0 8.81691 0 9.08693V18.3838C0 18.6701 0.148605 18.9891 0.302647 19.2084C0.456688 19.4331 0.685033 19.6071 0.927875 19.7231C1.23233 19.8699 1.49149 19.8662 1.92643 19.8662H5.3389C5.9152 19.8662 6.40814 19.7955 6.87389 20.0384C6.90288 20.0547 6.93006 20.0656 6.96269 20.0837L7.13847 20.2033C7.51542 20.4987 7.74558 20.9355 7.74558 21.4393V25.4407C7.74558 25.631 7.75102 25.7959 7.76551 25.9427V16.1692L5.96232 16.2018C6.00763 16.1022 6.02575 16.1004 6.1073 16.0242L8.81119 13.3856C8.93442 13.2008 8.74776 10.5857 8.86193 10.071H10.8319L10.8391 11.3523C11.0838 11.1638 11.8377 10.3754 12.1494 10.0746C12.3016 9.92963 12.4321 9.80458 12.5825 9.65779Z" fill="#57EE9F"/>
</svg>
