<svg width="86" height="84" viewBox="0 0 86 84" fill="none" xmlns="http://www.w3.org/2000/svg">
<g filter="url(#filter0_dd_690_2008)">
<rect x="20" width="46" height="44" rx="16" fill="#303030"/>
<rect x="20.5" y="0.5" width="45" height="43" rx="15.5" stroke="#505050"/>
<rect x="25" y="4" width="36" height="36" rx="12" fill="#57EE9F"/>
<path fill-rule="evenodd" clip-rule="evenodd" d="M45.7314 23.6929L44.185 23.6797L44.1816 25.2295H45.7331L45.7314 23.6929Z" fill="black"/>
<path fill-rule="evenodd" clip-rule="evenodd" d="M44.1816 23.3444H45.7331L45.7314 21.8079L44.185 21.793L44.1816 23.3444Z" fill="black"/>
<path fill-rule="evenodd" clip-rule="evenodd" d="M43.8701 23.3454V21.7939L42.322 21.7956L42.3203 23.3305L43.8701 23.3454Z" fill="black"/>
<path fill-rule="evenodd" clip-rule="evenodd" d="M43.8701 23.6797L42.322 23.6813L42.3203 25.2162L43.8717 25.2311L43.8701 23.6797Z" fill="black"/>
<path fill-rule="evenodd" clip-rule="evenodd" d="M42.4958 17.8201C42.7839 17.5453 43.9727 16.3283 44.1168 16.2654L45.0473 17.2207C45.3668 17.5337 45.6632 17.8284 45.9844 18.1413L49.7446 21.8684C50.0592 22.183 50.3622 22.4827 50.6818 22.7906C50.8987 22.9976 51.4467 23.5241 51.6123 23.7377L50.19 23.7427L50.1784 26.9416C47.4729 26.9317 44.9065 27.4731 42.7922 28.5178C42.2921 28.7646 41.7938 29.0543 41.3715 29.3424C40.4394 29.9782 40.1496 30.2696 39.3979 31.0296L39.0038 31.47C38.5949 31.9568 38.1843 32.6539 38.1031 32.7648C38.1594 33.1655 38.3101 33.4188 38.6793 33.7235C38.7124 33.7516 38.7538 33.7781 38.8002 33.8046C38.9989 33.399 39.8234 32.5165 40.1993 32.1638C40.3814 31.9916 40.5271 31.8376 40.7275 31.6671C42.2425 30.3673 43.9661 29.3722 45.953 28.7099C46.7842 28.4318 48.4266 28.0112 49.2926 27.9615V27.9963C49.4251 27.7115 49.6519 27.4665 49.9168 27.3274L49.9996 27.286C50.4334 27.0906 50.7596 27.1469 51.2861 27.1469C52.3209 27.1469 53.3558 27.1469 54.3923 27.1469C54.7913 27.1469 55.0264 27.1502 55.3046 27.0161L55.543 26.8754C55.5712 26.8538 55.5977 26.8406 55.6225 26.8191C55.8079 26.6618 55.9735 26.4548 56.0563 26.2213C56.0977 26.1021 56.1523 25.9448 56.1523 25.7925V17.3217C56.1523 17.0419 56.0315 16.7753 55.8858 16.5568C55.8344 16.479 55.7086 16.3465 55.639 16.2886C55.5364 16.2058 55.4453 16.1429 55.3162 16.0833C55.192 16.0253 55.0794 15.9872 54.9221 15.9624C54.6754 15.921 51.609 15.9425 51.2861 15.9425C50.6685 15.9425 50.0874 16.022 49.6072 15.5369C49.0889 15.0153 49.1668 14.5682 49.1668 13.8911V10.7617C49.1668 10.1673 49.1403 9.94377 48.8356 9.53315C48.7197 9.37751 48.5641 9.2732 48.4051 9.17716C48.2578 9.08775 47.9813 9 47.7975 9H39.4443C39.2671 9 38.9889 9.0861 38.8432 9.17385C38.7323 9.23843 38.6296 9.303 38.5386 9.39572C38.3978 9.53812 38.2985 9.65733 38.2107 9.85271C38.0833 10.1375 38.0766 10.3544 38.0766 10.7617V14.4176C38.0766 14.8348 37.9905 15.1345 37.724 15.4458C37.517 15.6859 37.2537 15.8332 36.9441 15.9094C36.6875 15.9707 36.2487 15.9425 35.9341 15.9425H32.7948C32.361 15.9425 32.1805 15.9359 31.866 16.07C31.6375 16.1677 31.4255 16.3432 31.2848 16.5303C31.1424 16.7191 31 17.0519 31 17.2986V25.7925C31 26.0541 31.1358 26.3455 31.2765 26.5459C31.4172 26.7512 31.6259 26.9101 31.8477 27.0161C32.1259 27.1502 32.3627 27.1469 32.7601 27.1469H35.8778C36.4043 27.1469 36.8547 27.0823 37.2802 27.3042C37.3067 27.3191 37.3315 27.329 37.3613 27.3456L37.522 27.4549C37.8663 27.7248 38.0766 28.1238 38.0766 28.5841V32.24C38.0766 32.4138 38.0816 32.5645 38.0948 32.6986V23.7692L36.4474 23.799C36.4888 23.7079 36.5053 23.7063 36.5798 23.6367L39.0502 21.226C39.1628 21.0571 38.9923 18.6679 39.0966 18.1976H40.8963L40.903 19.3682C41.1265 19.196 41.8153 18.4758 42.1001 18.2009C42.2392 18.0685 42.3584 17.9542 42.4958 17.8201Z" fill="black"/>
<path fill-rule="evenodd" clip-rule="evenodd" d="M47.659 30.8058C44.8922 30.7744 41.9036 31.3903 39.6916 33.0444C39.5061 33.1835 38.9332 33.6487 38.8008 33.806C38.9895 33.9153 39.2578 33.9997 39.4432 33.9997H47.7964C47.9371 33.9997 48.116 33.9484 48.2219 33.9087C48.3395 33.8656 48.4587 33.8011 48.5564 33.7282C48.7021 33.6206 48.8395 33.4848 48.9339 33.3308C49.0763 33.1007 49.1674 32.8159 49.1657 32.5311V30.8936C48.659 30.8621 48.1822 30.8125 47.659 30.8058Z" fill="black"/>
</g>
<defs>
<filter id="filter0_dd_690_2008" x="0" y="0" width="86" height="84" filterUnits="userSpaceOnUse" color-interpolation-filters="sRGB">
<feFlood flood-opacity="0" result="BackgroundImageFix"/>
<feColorMatrix in="SourceAlpha" type="matrix" values="0 0 0 0 0 0 0 0 0 0 0 0 0 0 0 0 0 0 127 0" result="hardAlpha"/>
<feMorphology radius="6" operator="erode" in="SourceAlpha" result="effect1_dropShadow_690_2008"/>
<feOffset dy="8"/>
<feGaussianBlur stdDeviation="5"/>
<feComposite in2="hardAlpha" operator="out"/>
<feColorMatrix type="matrix" values="0 0 0 0 0 0 0 0 0 0 0 0 0 0 0 0 0 0 0.1 0"/>
<feBlend mode="normal" in2="BackgroundImageFix" result="effect1_dropShadow_690_2008"/>
<feColorMatrix in="SourceAlpha" type="matrix" values="0 0 0 0 0 0 0 0 0 0 0 0 0 0 0 0 0 0 127 0" result="hardAlpha"/>
<feMorphology radius="5" operator="erode" in="SourceAlpha" result="effect2_dropShadow_690_2008"/>
<feOffset dy="20"/>
<feGaussianBlur stdDeviation="12.5"/>
<feComposite in2="hardAlpha" operator="out"/>
<feColorMatrix type="matrix" values="0 0 0 0 0 0 0 0 0 0 0 0 0 0 0 0 0 0 0.1 0"/>
<feBlend mode="normal" in2="effect1_dropShadow_690_2008" result="effect2_dropShadow_690_2008"/>
<feBlend mode="normal" in="SourceGraphic" in2="effect2_dropShadow_690_2008" result="shape"/>
</filter>
</defs>
</svg>
