<svg width="36" height="36" viewBox="0 0 36 36" fill="none" xmlns="http://www.w3.org/2000/svg">
<rect width="36" height="36" rx="12" fill="#57EE9F"/>
<path fill-rule="evenodd" clip-rule="evenodd" d="M20.7314 19.6929L19.185 19.6797L19.1816 21.2295H20.7331L20.7314 19.6929Z" fill="black"/>
<path fill-rule="evenodd" clip-rule="evenodd" d="M19.1816 19.3444H20.7331L20.7314 17.8079L19.185 17.793L19.1816 19.3444Z" fill="black"/>
<path fill-rule="evenodd" clip-rule="evenodd" d="M18.8701 19.3454V17.7939L17.322 17.7956L17.3203 19.3305L18.8701 19.3454Z" fill="black"/>
<path fill-rule="evenodd" clip-rule="evenodd" d="M18.8701 19.6797L17.322 19.6813L17.3203 21.2162L18.8717 21.2311L18.8701 19.6797Z" fill="black"/>
<path fill-rule="evenodd" clip-rule="evenodd" d="M17.4958 13.8201C17.7839 13.5453 18.9727 12.3283 19.1168 12.2654L20.0473 13.2207C20.3668 13.5337 20.6632 13.8284 20.9844 14.1413L24.7446 17.8684C25.0592 18.183 25.3622 18.4827 25.6818 18.7906C25.8987 18.9976 26.4467 19.5241 26.6123 19.7377L25.19 19.7427L25.1784 22.9416C22.4729 22.9317 19.9065 23.4731 17.7922 24.5178C17.2921 24.7646 16.7938 25.0543 16.3715 25.3424C15.4394 25.9782 15.1496 26.2696 14.3979 27.0296L14.0038 27.47C13.5949 27.9568 13.1843 28.6539 13.1031 28.7648C13.1594 29.1655 13.3101 29.4188 13.6793 29.7235C13.7124 29.7516 13.7538 29.7781 13.8002 29.8046C13.9989 29.399 14.8234 28.5165 15.1993 28.1638C15.3814 27.9916 15.5271 27.8376 15.7275 27.6671C17.2425 26.3673 18.9661 25.3722 20.953 24.7099C21.7842 24.4318 23.4266 24.0112 24.2926 23.9615V23.9963C24.4251 23.7115 24.6519 23.4665 24.9168 23.3274L24.9996 23.286C25.4334 23.0906 25.7596 23.1469 26.2861 23.1469C27.3209 23.1469 28.3558 23.1469 29.3923 23.1469C29.7913 23.1469 30.0264 23.1502 30.3046 23.0161L30.543 22.8754C30.5712 22.8538 30.5977 22.8406 30.6225 22.8191C30.8079 22.6618 30.9735 22.4548 31.0563 22.2213C31.0977 22.1021 31.1523 21.9448 31.1523 21.7925V13.3217C31.1523 13.0419 31.0315 12.7753 30.8858 12.5568C30.8344 12.479 30.7086 12.3465 30.639 12.2886C30.5364 12.2058 30.4453 12.1429 30.3162 12.0833C30.192 12.0253 30.0794 11.9872 29.9221 11.9624C29.6754 11.921 26.609 11.9425 26.2861 11.9425C25.6685 11.9425 25.0874 12.022 24.6072 11.5369C24.0889 11.0153 24.1668 10.5682 24.1668 9.89105V6.76171C24.1668 6.1673 24.1403 5.94377 23.8356 5.53315C23.7197 5.37751 23.5641 5.2732 23.4051 5.17716C23.2578 5.08775 22.9813 5 22.7975 5H14.4443C14.2671 5 13.9889 5.0861 13.8432 5.17385C13.7323 5.23843 13.6296 5.303 13.5386 5.39572C13.3978 5.53812 13.2985 5.65733 13.2107 5.85271C13.0833 6.13749 13.0766 6.35439 13.0766 6.76171V10.4176C13.0766 10.8348 12.9905 11.1345 12.724 11.4458C12.517 11.6859 12.2537 11.8332 11.9441 11.9094C11.6875 11.9707 11.2487 11.9425 10.9341 11.9425H7.79482C7.36102 11.9425 7.18054 11.9359 6.86595 12.07C6.63746 12.1677 6.42552 12.3432 6.28479 12.5303C6.14239 12.7191 6 13.0519 6 13.2986V21.7925C6 22.0541 6.13577 22.3455 6.27651 22.5459C6.41725 22.7512 6.62587 22.9101 6.84774 23.0161C7.1259 23.1502 7.36267 23.1469 7.76005 23.1469H10.8778C11.4043 23.1469 11.8547 23.0823 12.2802 23.3042C12.3067 23.3191 12.3315 23.329 12.3613 23.3456L12.522 23.4549C12.8663 23.7248 13.0766 24.1238 13.0766 24.5841V28.24C13.0766 28.4138 13.0816 28.5645 13.0948 28.6986V19.7692L11.4474 19.799C11.4888 19.7079 11.5053 19.7063 11.5798 19.6367L14.0502 17.226C14.1628 17.0571 13.9923 14.6679 14.0966 14.1976H15.8963L15.903 15.3682C16.1265 15.196 16.8153 14.4758 17.1001 14.2009C17.2392 14.0685 17.3584 13.9542 17.4958 13.8201Z" fill="black"/>
<path fill-rule="evenodd" clip-rule="evenodd" d="M22.659 26.8058C19.8922 26.7744 16.9036 27.3903 14.6916 29.0444C14.5061 29.1835 13.9332 29.6487 13.8008 29.806C13.9895 29.9153 14.2578 29.9997 14.4432 29.9997H22.7964C22.9371 29.9997 23.116 29.9484 23.2219 29.9087C23.3395 29.8656 23.4587 29.8011 23.5564 29.7282C23.7021 29.6206 23.8395 29.4848 23.9339 29.3308C24.0763 29.1007 24.1674 28.8159 24.1657 28.5311V26.8936C23.659 26.8621 23.1822 26.8125 22.659 26.8058Z" fill="black"/>
</svg>
