<svg width="88" height="23" viewBox="0 0 88 23" fill="none" xmlns="http://www.w3.org/2000/svg">
<g clip-path="url(#clip0_690_644)">
<g clip-path="url(#clip1_690_644)">
<path d="M8.21463 10.2881C8.48686 10.288 8.75639 10.2342 9.00785 10.1299C9.25931 10.0256 9.48776 9.8728 9.68017 9.68022C9.87257 9.48763 10.0252 9.25903 10.1292 9.00747C10.2333 8.75591 10.2868 8.48632 10.2866 8.21409C10.2864 7.80409 10.1647 7.40336 9.93671 7.06256C9.70876 6.72177 9.38487 6.45622 9.006 6.29951C8.62714 6.14279 8.21031 6.10194 7.80822 6.18212C7.40614 6.2623 7.03686 6.45991 6.74709 6.74997C6.45731 7.04002 6.26006 7.40949 6.18026 7.81165C6.10047 8.21381 6.14172 8.6306 6.29881 9.00932C6.45589 9.38803 6.72175 9.71166 7.06276 9.93928C7.40377 10.1669 7.80462 10.2883 8.21463 10.2881ZM14.7656 16.8431C15.0379 16.843 15.3076 16.7892 15.5591 16.6848C15.8106 16.5805 16.0391 16.4276 16.2315 16.2349C16.4239 16.0422 16.5765 15.8135 16.6805 15.5618C16.7845 15.3101 16.8379 15.0404 16.8376 14.7681C16.8372 14.3581 16.7153 13.9575 16.4872 13.6168C16.2592 13.2762 15.9352 13.0108 15.5563 12.8542C15.1774 12.6977 14.7606 12.6569 14.3586 12.7372C13.9566 12.8175 13.5874 13.0152 13.2977 13.3053C13.0081 13.5954 12.8109 13.9649 12.7312 14.367C12.6515 14.7692 12.6928 15.1859 12.8499 15.5645C13.007 15.9432 13.2729 16.2668 13.6139 16.4944C13.9549 16.7219 14.3557 16.8433 14.7656 16.8431Z" fill="white"/>
<path d="M9.39377 15.8137C8.98977 15.8927 8.72177 16.2867 8.84777 16.6787C9.22424 17.8471 9.93791 18.878 10.899 19.6418C11.86 20.4055 13.0255 20.8679 14.2488 20.9707C15.5992 21.0835 16.9495 20.7516 18.0937 20.0254C19.2378 19.2992 20.113 18.2187 20.5858 16.9487C21.0597 15.6787 21.1065 14.2887 20.7191 12.9897C20.3316 11.6907 19.531 10.5535 18.4388 9.7507C17.4496 9.02452 16.2675 8.60762 15.0416 8.55263C13.8157 8.49763 12.601 8.807 11.5508 9.4417C11.1978 9.6557 11.1418 10.1287 11.3958 10.4537C11.6498 10.7787 12.1158 10.8307 12.4758 10.6307C13.0936 10.2881 13.7805 10.0885 14.4857 10.0468C15.191 10.005 15.8966 10.1221 16.5506 10.3893C17.2045 10.6566 17.7901 11.0673 18.2642 11.5911C18.7383 12.1149 19.0888 12.7384 19.2898 13.4157C19.5842 14.403 19.5485 15.4594 19.1881 16.4246C18.8277 17.3897 18.1622 18.211 17.2928 18.7637C16.6965 19.1424 16.0229 19.3824 15.3216 19.4661C14.6202 19.5498 13.909 19.4751 13.2404 19.2473C12.5718 19.0196 11.9628 18.6447 11.4584 18.1503C10.954 17.6559 10.5669 17.0546 10.3258 16.3907C10.1848 16.0027 9.79877 15.7357 9.39377 15.8137Z" fill="white"/>
<path d="M13.5655 7.07614C13.9685 6.99014 14.2305 6.59214 14.0965 6.20214C13.6997 5.0405 12.9681 4.0222 11.9939 3.27538C11.0197 2.52856 9.84632 2.08661 8.62149 2.00514C7.26942 1.91606 5.92533 2.27165 4.79419 3.01768C3.66306 3.7637 2.80697 4.85921 2.35649 6.13714C1.90451 7.41516 1.88171 8.80574 2.29155 10.0979C2.7014 11.39 3.52152 12.5133 4.62749 13.2971C5.62933 14.006 6.81871 14.4021 8.0455 14.4356C9.27229 14.469 10.4815 14.1383 11.5205 13.4851C11.8705 13.2651 11.9165 12.7911 11.6575 12.4701C11.3975 12.1501 10.9315 12.1061 10.5745 12.3121C9.79296 12.7632 8.8985 12.9809 7.99709 12.9392C7.09567 12.8976 6.22509 12.5984 5.48849 12.0771C4.64719 11.4822 4.02329 10.6287 3.71173 9.6465C3.40016 8.66433 3.41798 7.60725 3.76249 6.63614C4.10613 5.66566 4.75715 4.83387 5.61664 4.26713C6.47613 3.7004 7.49711 3.42969 8.52449 3.49614C9.42507 3.55497 10.2899 3.87072 11.0166 4.40596C11.7432 4.9412 12.3012 5.67351 12.6245 6.51614C12.7725 6.90114 13.1625 7.16214 13.5655 7.07614ZM61.7735 4.57814C61.5155 4.62814 61.1935 4.97714 61.1345 5.27514C61.0685 5.61514 61.0685 14.0451 61.1345 14.3851C61.2675 15.0251 62.0545 15.2901 62.5525 14.8581L62.7845 14.6591V5.01914L62.5775 4.81914C62.4721 4.71825 62.3442 4.64387 62.2044 4.60214C62.0646 4.56041 61.9169 4.55153 61.7735 4.57814ZM82.5845 6.12914C82.3185 6.39514 82.3025 6.44514 82.3025 6.99214V7.57314L81.8465 7.60614C81.1995 7.66414 80.9435 7.87214 80.9105 8.35314C80.8935 8.66014 80.9185 8.76014 81.1085 8.94314C81.2995 9.13314 81.3985 9.16614 81.8135 9.16614H82.3025V11.3401C82.3025 12.5431 82.3435 13.6551 82.3845 13.8201C82.6255 14.6751 83.2055 15.0571 84.2495 15.0571C84.7805 15.0571 84.9795 15.0161 85.2445 14.8671C85.7995 14.5511 85.9155 14.0281 85.5255 13.6381C85.3855 13.4981 85.3025 13.4721 85.0875 13.5301C84.6975 13.6221 84.3165 13.6051 84.1755 13.4891C84.0585 13.3891 84.0425 13.0821 84.0425 11.2731V9.16614H84.6225C85.2355 9.16614 85.6425 9.02614 85.7325 8.79314C85.8405 8.50314 85.7825 8.09614 85.5925 7.87214C85.4185 7.67214 85.3275 7.64014 84.7225 7.60614L84.0425 7.56514V7.11714C84.0425 5.98814 83.2555 5.45714 82.5845 6.12914ZM30.3135 7.43214C29.0035 7.73914 27.9015 8.88414 27.6115 10.2281C27.4875 10.8341 27.4955 11.9381 27.6445 12.4771C27.9435 13.5971 28.7885 14.6171 29.7335 14.9741C31.3335 15.5881 33.9845 14.9581 33.9845 13.9621C33.9845 13.2071 33.2965 12.9081 32.6255 13.3721C32.3435 13.5721 32.2025 13.6051 31.5895 13.6301C30.7695 13.6631 30.4295 13.5551 29.9325 13.0991C29.4185 12.6431 29.2275 12.1611 29.2275 11.3241C29.2195 10.5441 29.4015 10.0041 29.8245 9.54814C30.5205 8.80114 31.9125 8.70214 32.7165 9.33214C33.2145 9.72214 33.9015 9.39914 33.9015 8.77614C33.9015 7.89614 32.8245 7.32414 31.2165 7.34914C30.8935 7.35814 30.4865 7.39114 30.3135 7.43214ZM37.7215 7.46514C37.0773 7.64582 36.4915 7.99195 36.0225 8.46914C35.5209 8.95296 35.1722 9.5732 35.0195 10.2531C34.3985 12.8921 36.1475 15.2231 38.7495 15.2231C39.8195 15.2151 40.6475 14.9081 41.3765 14.2271C42.2135 13.4641 42.6035 12.5271 42.6035 11.2741C42.6035 9.58914 41.6505 8.16214 40.1335 7.58214C39.5115 7.34914 38.3515 7.29214 37.7215 7.46514ZM39.7115 9.14114C41.3845 9.99614 41.3015 12.8091 39.5695 13.5311C38.8405 13.8371 37.6795 13.5641 37.1835 12.9751C36.6275 12.3191 36.4535 11.2571 36.7525 10.3611C36.8459 10.0713 37.0013 9.80532 37.2079 9.58162C37.4145 9.35793 37.6673 9.18192 37.9488 9.06582C38.2303 8.94972 38.5337 8.89631 38.838 8.90932C39.1422 8.92233 39.4399 9.00143 39.7105 9.14114H39.7115ZM54.2825 7.44914C53.0795 7.78914 52.0695 8.91814 51.7955 10.2291C51.6545 10.9341 51.7375 12.3281 51.9615 12.9171C52.5325 14.4101 53.8515 15.2971 55.3595 15.2071C56.0305 15.1651 56.8185 14.8501 57.1415 14.4851C57.3235 14.2851 57.4395 14.2611 57.4395 14.4271C57.4395 14.4931 57.5395 14.6591 57.6555 14.8001C57.8375 15.0241 57.9195 15.0571 58.2685 15.0571C58.6165 15.0571 58.6985 15.0241 58.8815 14.8001L59.0965 14.5431V7.82214L58.8565 7.58114C58.4925 7.21614 57.9365 7.26614 57.5885 7.70514C57.5055 7.79614 57.4385 7.94514 57.4385 8.02114C57.4385 8.22014 57.3985 8.21114 57.0755 7.96214C56.3785 7.43214 55.1525 7.20014 54.2825 7.44914ZM56.2375 9.07514C57.0175 9.44014 57.4645 10.2371 57.4735 11.2821C57.4805 12.6921 56.6525 13.6471 55.4255 13.6471C53.7935 13.6471 52.8065 11.8471 53.5445 10.1871C53.9085 9.35714 54.5545 8.91714 55.4095 8.91714C55.7155 8.91714 56.0305 8.97614 56.2375 9.07514ZM66.9535 7.49914C65.5435 7.95514 64.5915 9.13314 64.3835 10.6761C64.0355 13.2901 65.6685 15.2231 68.2135 15.2231C69.2655 15.2231 70.3015 14.8581 70.8315 14.3031C71.1465 13.9701 71.1555 13.5311 70.8315 13.2651C70.5255 12.9911 70.1855 13.0161 69.6385 13.3311C69.2485 13.5551 69.0665 13.5971 68.4945 13.6311C67.6165 13.6801 67.1185 13.5221 66.6635 13.0411C66.4805 12.8511 66.2655 12.5761 66.1905 12.4271C65.9175 11.8871 65.8105 11.9131 68.5365 11.8871C70.8985 11.8631 71.0305 11.8551 71.2465 11.6891C71.5695 11.4481 71.6365 11.1081 71.4955 10.4271C71.0395 8.21214 68.9345 6.86814 66.9535 7.49914ZM69.0005 9.20814C69.2825 9.38214 69.4645 9.58114 69.6055 9.84714C69.9455 10.5021 69.9615 10.4941 67.8815 10.4941C65.8265 10.4941 65.9095 10.5271 66.2235 9.87214C66.5635 9.16614 67.0695 8.90114 68.0135 8.94214C68.5035 8.95914 68.6695 9.00014 69.0005 9.20814ZM76.2875 7.49014C75.8475 7.64814 75.0525 8.19514 74.9775 8.39414C74.8955 8.59414 74.7625 8.50214 74.7625 8.24514C74.7625 7.85514 74.3725 7.50714 73.9335 7.50714C73.6605 7.50714 73.5355 7.55714 73.3455 7.74714L73.1055 7.98714V14.5421L73.3205 14.8001C73.5025 15.0241 73.5855 15.0571 73.9335 15.0571C74.2815 15.0571 74.3645 15.0241 74.5475 14.8001L74.7625 14.5421V12.4521C74.7625 11.0991 74.7955 10.2531 74.8535 10.0701C75.1105 9.32414 75.6905 8.92614 76.5445 8.91714C77.1575 8.91714 77.5545 9.10014 77.7875 9.49814C77.9375 9.76314 77.9535 9.97114 77.9945 12.1531C78.0355 14.6091 78.0615 14.7911 78.4095 14.9741C78.4925 15.0161 78.7165 15.0571 78.9065 15.0571C79.3205 15.0571 79.6195 14.8001 79.6945 14.3601C79.8015 13.8041 79.6855 9.58114 79.5525 9.12514C79.3125 8.32014 78.8985 7.77214 78.3265 7.53214C77.8625 7.32414 76.7935 7.30814 76.2875 7.49014ZM43.8555 7.72214C43.6575 7.88914 43.5995 8.00514 43.5995 8.22114C43.5995 8.41114 44.0295 9.46514 44.8915 11.3901C46.5245 15.0241 46.4505 14.8831 46.7815 15.0161C47.1045 15.1491 47.5615 15.0661 47.7595 14.8251C47.8255 14.7501 48.5135 13.2981 49.2765 11.6141C50.8095 8.24514 50.8675 8.06314 50.4525 7.70614C50.1385 7.43214 49.6655 7.43214 49.4085 7.70614C49.3085 7.81414 48.8035 8.87614 48.2815 10.0631C47.9511 10.8319 47.6145 11.5979 47.2715 12.3611C47.2125 12.4691 46.9645 11.9791 46.2015 10.2281C45.6045 8.85214 45.1315 7.87214 44.9995 7.73214C44.6935 7.42514 44.2125 7.41714 43.8555 7.72414V7.72214Z" fill="white"/>
</g>
</g>
<defs>
<clipPath id="clip0_690_644">
<rect width="88" height="22" fill="white" transform="translate(0 0.491699)"/>
</clipPath>
<clipPath id="clip1_690_644">
<rect width="88" height="22" fill="white" transform="translate(0 0.491699)"/>
</clipPath>
</defs>
</svg>
