<svg width="88" height="23" viewBox="0 0 88 23" fill="none" xmlns="http://www.w3.org/2000/svg">
<g clip-path="url(#clip0_690_622)">
<g clip-path="url(#clip1_690_622)">
<path d="M29.8986 9.5152C29.7506 8.9972 29.4756 8.5932 29.0756 8.3022C28.6786 8.0082 28.1786 7.8602 27.5756 7.8602C26.7276 7.8602 26.0396 8.1732 25.5126 8.7982C24.9896 9.4192 24.7276 10.3052 24.7276 11.4552C24.7276 12.6092 24.9856 13.4992 25.5026 14.1282C26.0186 14.7572 26.7166 15.0722 27.5976 15.0722C28.3776 15.0722 28.9886 14.8702 29.4326 14.4682C29.8806 14.0622 30.1116 13.5182 30.1256 12.8352H27.7436V11.0782H32.3836V12.4682C32.3836 13.4352 32.1776 14.2682 31.7666 14.9682C31.3657 15.6558 30.7756 16.2136 30.0666 16.5752C29.3476 16.9492 28.5216 17.1352 27.5866 17.1352C26.5466 17.1352 25.6336 16.9082 24.8466 16.4512C24.0582 15.9893 23.4195 15.3103 23.0066 14.4952C22.5696 13.6472 22.3516 12.6412 22.3516 11.4762C22.3516 10.2842 22.5806 9.2632 23.0386 8.4162C23.4976 7.5672 24.1186 6.9192 24.9016 6.4702C25.6846 6.0202 26.5636 5.7962 27.5376 5.7962C28.3756 5.7962 29.1336 5.9542 29.8116 6.2702C30.4659 6.56689 31.0383 7.01817 31.4796 7.5852C31.9126 8.1422 32.1796 8.7852 32.2796 9.5152H29.8986ZM33.4906 16.9852V8.7062H35.7266V10.1512H35.8136C35.9656 9.6372 36.2196 9.2492 36.5766 8.9862C36.933 8.72086 37.3673 8.58092 37.8116 8.5882C38.0556 8.5862 38.2986 8.6142 38.5366 8.6682V10.7062C38.3898 10.6627 38.239 10.6339 38.0866 10.6202C37.9129 10.5961 37.7379 10.5835 37.5626 10.5822C37.0526 10.5822 36.6306 10.7422 36.2956 11.0622C35.9636 11.3782 35.7976 11.7912 35.7976 12.3022V16.9852H33.4906ZM41.2526 17.1412C40.4586 17.1412 39.7996 16.9342 39.2766 16.5212C38.7526 16.1082 38.4916 15.4912 38.4916 14.6722C38.4916 14.0552 38.6376 13.5692 38.9296 13.2172C39.2226 12.8652 39.6046 12.6082 40.0776 12.4472C40.5752 12.2773 41.0917 12.1685 41.6156 12.1232C42.3366 12.0512 42.8536 11.9762 43.1636 11.8972C43.4736 11.8182 43.6296 11.6452 43.6296 11.3802V11.3472C43.6296 11.0062 43.5206 10.7422 43.3046 10.5552C43.0916 10.3682 42.7886 10.2752 42.3946 10.2752C41.9796 10.2752 41.6496 10.3652 41.4046 10.5452C41.1586 10.7242 40.9956 10.9522 40.9166 11.2292L38.7836 11.0562C38.926 10.3262 39.3498 9.68143 39.9636 9.2612C40.5956 8.8192 41.4096 8.5992 42.4056 8.5992C43.0226 8.5992 43.6006 8.6952 44.1376 8.8892C44.6756 9.0832 45.1086 9.3872 45.4376 9.8002C45.7696 10.2102 45.9356 10.7442 45.9356 11.4012V16.9852H43.7486V15.8362H43.6836C43.4737 16.2292 43.1586 16.5561 42.7736 16.7802C42.3736 17.0202 41.8666 17.1412 41.2526 17.1412ZM41.9126 15.5562C42.4186 15.5562 42.8326 15.4112 43.1586 15.1202C43.4836 14.8252 43.6456 14.4602 43.6456 14.0262V13.1472C43.5556 13.2082 43.4146 13.2622 43.2236 13.3092C43.0356 13.3562 42.8336 13.3972 42.6166 13.4332L42.0426 13.5192C41.6386 13.5772 41.3126 13.6892 41.0626 13.8592C40.8176 14.0272 40.6946 14.2742 40.6946 14.5972C40.6946 14.9132 40.8086 15.1522 41.0356 15.3142C41.2666 15.4762 41.5596 15.5562 41.9126 15.5562ZM51.5866 8.7062V10.4312H49.9366V16.9852H47.6296V10.4312H46.4546V8.7062H47.6296V8.1082C47.6296 7.2062 47.8876 6.5342 48.4036 6.0922C48.9236 5.6512 49.5746 5.4292 50.3576 5.4292C50.7116 5.4292 51.0346 5.4562 51.3276 5.5102C51.6236 5.5642 51.8436 5.6132 51.9876 5.6562L51.5816 7.3802C51.4713 7.34688 51.3591 7.32016 51.2456 7.3002C51.1117 7.27495 50.9758 7.26223 50.8396 7.2622C50.4996 7.2622 50.2646 7.3412 50.1296 7.4992C50.0006 7.6542 49.9356 7.8712 49.9356 8.1512V8.7062H51.5866ZM52.4296 16.9852V5.9472H54.7356V10.0972H54.8056C54.9106 9.8702 55.0586 9.6422 55.2506 9.4122C55.4406 9.1822 55.6936 8.9902 56.0076 8.8352C56.3216 8.6772 56.7096 8.5992 57.1716 8.5992C57.7816 8.5992 58.3416 8.7572 58.8506 9.0732C59.3596 9.3852 59.7676 9.8582 60.0746 10.4902C60.3846 11.1192 60.5396 11.9082 60.5396 12.8562C60.5396 13.7802 60.3896 14.5592 60.0896 15.1962C59.7906 15.8282 59.3866 16.3072 58.8776 16.6342C58.3676 16.9582 57.7976 17.1192 57.1666 17.1192C56.7186 17.1192 56.3386 17.0462 56.0246 16.8992C55.735 16.7672 55.4752 16.5781 55.2606 16.3432C55.0791 16.1367 54.9264 15.9066 54.8066 15.6592H54.7036V16.9852H52.4296ZM54.6866 12.8452C54.6866 13.5822 54.8386 14.1752 55.1416 14.6252C55.4486 15.0702 55.8796 15.2922 56.4356 15.2922C57.0026 15.2922 57.4356 15.0662 57.7356 14.6132C58.0346 14.1572 58.1856 13.5682 58.1856 12.8452C58.1856 12.1272 58.0346 11.5452 57.7356 11.0992C57.4396 10.6502 57.0056 10.4262 56.4356 10.4262C55.8756 10.4262 55.4456 10.6452 55.1416 11.0832C54.8386 11.5182 54.6866 12.1052 54.6866 12.8452ZM63.8396 17.1412C63.0456 17.1412 62.3876 16.9342 61.8636 16.5212C61.3406 16.1082 61.0786 15.4912 61.0786 14.6722C61.0786 14.0552 61.2246 13.5692 61.5166 13.2172C61.8096 12.8652 62.1926 12.6082 62.6646 12.4472C63.1622 12.2773 63.6787 12.1686 64.2026 12.1232C64.9236 12.0512 65.4406 11.9762 65.7506 11.8972C66.0606 11.8182 66.2166 11.6452 66.2166 11.3802V11.3472C66.2166 11.0062 66.1086 10.7422 65.8916 10.5552C65.6786 10.3682 65.3756 10.2752 64.9816 10.2752C64.5666 10.2752 64.2366 10.3652 63.9916 10.5452C63.7456 10.7242 63.5836 10.9522 63.5046 11.2292L61.3716 11.0562C61.5138 10.3261 61.9377 9.68127 62.5516 9.2612C63.1836 8.8192 63.9966 8.5992 64.9936 8.5992C65.6106 8.5992 66.1876 8.6952 66.7256 8.8892C67.2636 9.0832 67.6956 9.3872 68.0246 9.8002C68.3576 10.2102 68.5226 10.7442 68.5226 11.4012V16.9852H66.3356V15.8362H66.2716C66.0614 16.229 65.7464 16.5558 65.3616 16.7802C64.9606 17.0202 64.4536 17.1412 63.8396 17.1412ZM64.4996 15.5562C65.0056 15.5562 65.4206 15.4112 65.7456 15.1202C65.9015 14.9843 66.0259 14.816 66.11 14.627C66.1941 14.4381 66.236 14.233 66.2326 14.0262V13.1472C66.1426 13.2082 66.0026 13.2622 65.8106 13.3092C65.6106 13.3592 65.4076 13.3992 65.2046 13.4332L64.6306 13.5192C64.2256 13.5772 63.9006 13.6892 63.6506 13.8592C63.4046 14.0272 63.2816 14.2742 63.2816 14.5972C63.2816 14.9132 63.3966 15.1522 63.6236 15.3142C63.8536 15.4762 64.1456 15.5562 64.4996 15.5562ZM76.6216 11.0662L74.5106 11.1962C74.4481 10.9239 74.2924 10.682 74.0706 10.5122C73.8366 10.3222 73.5186 10.2262 73.1186 10.2262C72.7616 10.2262 72.4576 10.3022 72.2086 10.4532C71.9636 10.6002 71.8426 10.7982 71.8466 11.0452C71.8439 11.1411 71.8635 11.2363 71.9037 11.3234C71.944 11.4105 72.0038 11.4871 72.0786 11.5472C72.2416 11.6832 72.5156 11.7932 72.9016 11.8752L74.4076 12.1772C76.0056 12.5042 76.8076 13.2522 76.8116 14.4192C76.8116 14.9622 76.6496 15.4382 76.3286 15.8472C76.0116 16.2572 75.5746 16.5772 75.0186 16.8072C74.4626 17.0332 73.8256 17.1472 73.1086 17.1472C72.0066 17.1472 71.1306 16.9182 70.4766 16.4622C70.1625 16.2499 69.8979 15.9724 69.7007 15.6487C69.5034 15.325 69.3782 14.9626 69.3336 14.5862L71.6026 14.4682C71.6746 14.8062 71.8406 15.0602 72.1006 15.2332C72.3646 15.4052 72.7016 15.4922 73.1136 15.4922C73.5176 15.4922 73.8426 15.4122 74.0876 15.2552C74.3366 15.0962 74.4626 14.8952 74.4666 14.6512C74.4556 14.2412 74.1006 13.9672 73.3996 13.8262L71.9596 13.5412C70.3496 13.2212 69.5496 12.4322 69.5566 11.1752C69.5526 10.3772 69.8716 9.7482 70.5146 9.2882C71.1606 8.8282 72.0156 8.5982 73.0806 8.5982C74.1306 8.5982 74.9566 8.8192 75.5606 9.2612C76.1666 9.7032 76.5206 10.3052 76.6206 11.0672L76.6216 11.0662ZM81.4426 17.1462C80.5916 17.1462 79.8566 16.9742 79.2396 16.6292C78.6294 16.2884 78.1339 15.7744 77.8156 15.1522C77.4836 14.5122 77.3186 13.7562 77.3186 12.8832C77.3186 12.0322 77.4836 11.2842 77.8156 10.6412C78.1476 9.9982 78.6156 9.4972 79.2176 9.1372C79.8236 8.7782 80.5346 8.5992 81.3516 8.5992C82.0836 8.5992 82.7436 8.7532 83.3316 9.0622C83.9246 9.3712 84.3936 9.8382 84.7396 10.4632C85.0866 11.0852 85.2596 11.8652 85.2596 12.8032V13.4332H79.5966V13.4382C79.5966 14.0562 79.7666 14.5432 80.1066 14.8982C80.4446 15.2552 80.9036 15.4322 81.4806 15.4322C81.8666 15.4322 82.2006 15.3522 82.4826 15.1902C82.7636 15.0282 82.9626 14.7902 83.0776 14.4732L85.2116 14.6132C85.0496 15.3832 84.6366 15.9962 83.9766 16.4572C83.3166 16.9172 82.4716 17.1462 81.4426 17.1462ZM79.5966 12.0102H83.0886C83.0856 11.5182 82.9266 11.1122 82.6126 10.7922C82.2976 10.4722 81.8906 10.3122 81.3886 10.3122C80.8756 10.3122 80.4556 10.4782 80.1286 10.8082C79.7986 11.1382 79.6226 11.5402 79.5966 12.0102Z" fill="white"/>
<path fill-rule="evenodd" clip-rule="evenodd" d="M10.8214 4.53843C10.8553 4.60587 10.8755 4.67936 10.8809 4.75466C10.8863 4.82996 10.8767 4.90558 10.8527 4.97716C10.8287 5.04874 10.7908 5.11486 10.7412 5.17172C10.6915 5.22857 10.6311 5.27504 10.5634 5.30843L4.86737 8.14443L10.3124 10.8544L15.7564 8.14443L13.6764 7.11143L10.5664 8.65743C10.4814 8.70061 10.3871 8.7222 10.2919 8.72028C10.1966 8.71837 10.1033 8.693 10.0201 8.64644C9.93699 8.59988 9.86661 8.53355 9.81519 8.45332C9.76378 8.37308 9.73293 8.28142 9.72537 8.18643C9.71726 8.07168 9.74406 7.95716 9.80224 7.85793C9.86043 7.75869 9.94727 7.67939 10.0514 7.63043L13.4194 5.95643C13.4994 5.91662 13.5875 5.8959 13.6769 5.8959C13.7662 5.8959 13.8544 5.91662 13.9344 5.95643L17.3044 7.63043C17.3757 7.66607 17.4388 7.71615 17.4897 7.77748C17.5406 7.83881 17.5782 7.91005 17.6001 7.98669C17.622 8.06332 17.6278 8.14368 17.617 8.22265C17.6062 8.30162 17.5791 8.37749 17.5374 8.44543C17.4812 8.53624 17.4009 8.60963 17.3054 8.65743L10.5784 12.0054C10.4961 12.0465 10.4053 12.0675 10.3134 12.0664C10.2212 12.068 10.13 12.0474 10.0474 12.0064L3.32137 8.65743C3.25018 8.62167 3.18719 8.57154 3.13636 8.5102C3.08554 8.44885 3.04799 8.37763 3.02609 8.30104C3.0042 8.22445 2.99843 8.14414 3.00914 8.0652C3.01986 7.98627 3.04684 7.91041 3.08837 7.84243C3.14479 7.75145 3.22548 7.67803 3.32137 7.63043L10.0484 4.28243C10.1851 4.2147 10.3431 4.20359 10.4879 4.25151C10.6328 4.29943 10.753 4.40252 10.8224 4.53843H10.8214ZM3.07137 14.5824C3.1222 14.4803 3.20237 14.3957 3.30161 14.3394C3.40084 14.2831 3.51462 14.2577 3.62837 14.2664C3.70386 14.2718 3.77758 14.2918 3.84537 14.3254L10.3154 17.5454L16.7844 14.3254C16.9211 14.2581 17.0789 14.2473 17.2236 14.2954C17.3682 14.3435 17.4882 14.4466 17.5574 14.5824C17.5913 14.6499 17.6115 14.7234 17.6169 14.7987C17.6223 14.874 17.6127 14.9496 17.5887 15.0212C17.5647 15.0927 17.5268 15.1589 17.4772 15.2157C17.4275 15.2726 17.3671 15.319 17.2994 15.3524L10.5724 18.7004C10.4922 18.7404 10.4039 18.7612 10.3144 18.7612C10.2248 18.7612 10.1365 18.7404 10.0564 18.7004L3.32937 15.3524C3.1932 15.2844 3.08957 15.1651 3.0412 15.0208C2.99284 14.8764 3.00369 14.7188 3.07137 14.5824Z" fill="white"/>
<path fill-rule="evenodd" clip-rule="evenodd" d="M3.07188 11.2335C3.10576 11.1659 3.15263 11.1056 3.20981 11.0561C3.26699 11.0066 3.33337 10.9688 3.40515 10.9449C3.47693 10.9211 3.55271 10.9116 3.62816 10.917C3.7036 10.9224 3.77725 10.9427 3.84488 10.9765L10.3149 14.1965L16.7849 10.9765C16.9213 10.911 17.078 10.9015 17.2214 10.9501C17.3648 10.9987 17.4834 11.1015 17.5519 11.2365C17.6199 11.3717 17.6315 11.5283 17.5843 11.6721C17.5371 11.8158 17.4348 11.935 17.2999 12.0035L10.5729 15.3515C10.4927 15.3914 10.4044 15.4121 10.3149 15.4121C10.2254 15.4121 10.1371 15.3914 10.0569 15.3515L3.32888 12.0035C3.19288 11.9353 3.08947 11.816 3.0413 11.6716C2.99313 11.5273 3.00412 11.3698 3.07188 11.2335Z" fill="white"/>
</g>
</g>
<defs>
<clipPath id="clip0_690_622">
<rect width="88" height="22" fill="white" transform="translate(0 0.491699)"/>
</clipPath>
<clipPath id="clip1_690_622">
<rect width="88" height="22" fill="white" transform="translate(0 0.491699)"/>
</clipPath>
</defs>
</svg>
