<svg width="77" height="23" viewBox="0 0 77 23" fill="none" xmlns="http://www.w3.org/2000/svg">
<g clip-path="url(#clip0_755_377)">
<path d="M18.2528 3.23364C16.3817 3.23364 15.5605 4.18238 15.2163 5.04259V3.45695H13.2695V12.3088H15.2163V7.95882C15.2163 5.87109 16.1093 4.87213 17.5604 4.87213C18.7258 4.87213 19.3876 5.45355 19.3876 7.15017V12.3088H21.3344V6.66388C21.333 4.21806 20.1238 3.23364 18.2528 3.23364Z" fill="white"/>
<path d="M30.5557 7.94126C30.5557 5.06863 28.9412 3.23193 26.2928 3.23193C23.5208 3.23193 22.0059 5.23511 22.0059 7.93202C22.0059 10.6448 23.5407 12.5172 26.3167 12.5172C28.2635 12.5172 29.7066 11.5367 30.3073 9.84799H28.3166C27.9246 10.5853 27.211 11.0346 26.318 11.0346C25.0596 11.0346 24.1308 10.1308 23.95 8.49361H30.5358C30.5345 8.49623 30.5557 8.2412 30.5557 7.94126ZM23.9407 7.30042C24.1055 5.69096 25.0064 4.71846 26.3087 4.71846C27.5353 4.71846 28.4283 5.57865 28.5997 7.30042H23.9407Z" fill="white"/>
<path d="M39.1376 0.198486V5.33331H33.361V0.198486H31.2773V12.3087H33.361V7.17397H39.1376V12.3087H41.2252V0.198486H39.1376Z" fill="white"/>
<path d="M50.5108 7.94102C50.5108 5.06838 48.9002 3.23169 46.2478 3.23169C43.4798 3.23169 41.9609 5.23487 41.9609 7.93178C41.9609 10.6445 43.4958 12.5169 46.2718 12.5169C48.2185 12.5169 49.6617 11.5365 50.2623 9.84774H48.2717C47.8797 10.585 47.1661 11.0343 46.2731 11.0343C45.0147 11.0343 44.0898 10.1305 43.909 8.49337H50.4948C50.4948 8.49598 50.5108 8.24096 50.5108 7.94102ZM43.9011 7.30017C44.0619 5.69072 44.9628 4.71822 46.2651 4.71822C47.4916 4.71822 48.3846 5.5784 48.5561 7.30017H43.9011Z" fill="white"/>
<path d="M58.8269 9.98181V6.44854C58.8269 4.59993 57.7735 3.23364 55.057 3.23364C52.1484 3.23364 51.2911 4.74396 51.2034 6.0138H53.0745C53.2177 5.15358 53.8717 4.62372 55.0811 4.62372C56.4948 4.62372 56.9399 5.38481 56.9399 5.89486C56.9399 7.15807 55.5185 7.06162 53.9836 7.29287C52.5083 7.51617 50.834 8.01832 50.834 9.99768C50.834 11.5913 51.9318 12.5189 53.9143 12.5189C55.5606 12.5189 56.4779 11.8661 56.9907 11.0971C57.0703 11.882 57.2073 12.3088 57.2073 12.3088H59.1103C59.1113 12.3088 58.8269 11.508 58.8269 9.98181ZM56.9399 8.36846C56.9399 10.1417 56.1545 11.1724 54.4882 11.1724C53.3907 11.1724 52.8178 10.7059 52.8178 9.90918C52.8178 9.00931 53.5555 8.7107 54.3527 8.55475C55.3906 8.35922 56.4286 8.22442 56.9414 7.70251V8.36846H56.9399Z" fill="white"/>
<path d="M59.959 0.198486V12.3087H61.9138V0.198486H59.959Z" fill="white"/>
<path d="M68.1159 5.05844V3.45694H66.0322V0.378174L64.0775 1.13135V3.45827H62.4102V5.05976H64.0764V9.29868C64.0764 11.4221 64.83 12.3774 66.7607 12.3774C67.3253 12.3774 68.1148 12.2942 68.1148 12.2942V10.7324C68.1148 10.7324 67.7627 10.8077 67.3654 10.8077C66.4681 10.8077 66.0312 10.3809 66.0312 9.13087V5.05976H68.1159V5.05844Z" fill="white"/>
<path d="M73.765 3.23365C71.8898 3.23365 71.0566 4.19032 70.7127 5.05052V0.198486H68.7656V12.3087H70.7127V7.95885C70.7127 5.87108 71.6136 4.87213 73.0648 4.87213C74.2301 4.87213 74.9159 5.45353 74.9159 7.15015V12.3087H76.8624V6.66392C76.8624 4.21807 75.6361 3.23365 73.765 3.23365Z" fill="white"/>
<path d="M6.60106 0.607772C4.30081 0.225898 1.96202 1.30149 0.791293 3.30467C0.0816826 4.52429 -0.0817668 5.85357 0.0338438 7.25291C0.2943 10.4004 2.76598 12.5199 5.51407 12.4432C7.16049 12.4551 8.46281 12.0812 9.5325 11.0769C10.9464 9.75423 11.4713 8.08539 11.4354 6.19319C11.377 3.28485 9.48204 1.08214 6.60106 0.607772ZM4.39383 8.52408C4.0058 8.21351 3.83305 7.80654 3.51678 7.5238C3.42509 7.43658 3.32808 7.26082 3.18457 7.38371C3.07294 7.47888 3.20052 7.60701 3.26031 7.70218C3.49685 8.07214 3.74933 8.43553 3.90481 8.84912C3.96062 8.99317 4.05364 9.15569 3.9367 9.27986C3.79584 9.42786 3.62043 9.31159 3.4716 9.25214C2.95467 9.03675 2.56266 8.6826 2.38991 8.14878C2.10952 7.28859 1.94474 6.37948 1.05972 5.7624C3.05965 5.73067 4.48951 6.77459 4.39383 8.52408ZM5.55124 8.74209C5.44364 8.67865 5.49149 8.54651 5.52336 8.45139C5.71207 7.86999 5.80775 7.27273 5.90338 6.67413C5.93131 6.49842 5.94727 6.32399 5.96719 6.14822C5.91935 6.14031 5.87151 6.12841 5.82366 6.1205C5.55124 6.93316 5.27886 7.74576 4.96258 8.69055C4.68219 8.12897 4.64232 7.63478 4.59449 7.16041C4.41376 5.45188 4.99048 4.02878 6.31272 2.91752C6.71271 2.57924 6.87749 2.62682 7.06614 3.12893C7.85154 5.22858 7.29873 7.00051 5.81571 8.60996C5.74795 8.6866 5.66689 8.80682 5.55124 8.74209ZM9.93382 8.20427C9.25212 8.46325 8.75249 8.93367 8.31128 9.4913C7.78639 10.152 7.12199 10.5193 6.24362 10.3991C6.12402 10.3832 5.99512 10.3793 5.92731 10.255C5.85159 10.107 5.98316 10.0357 6.05092 9.94453C6.28346 9.6221 6.5798 9.36708 6.93195 9.17155C7.16849 9.04465 7.40899 8.91652 7.56848 8.67336C6.91599 8.70508 6.43494 9.14773 5.85025 9.35121C5.85426 8.72228 6.58381 7.92153 7.34123 7.69823C8.22227 7.4392 9.08733 7.52642 9.93783 7.85413C10.0215 7.88585 10.1345 7.90567 10.1464 8.00608C10.1584 8.13687 10.0308 8.1686 9.93382 8.20427Z" fill="white"/>
<path d="M0.359375 21.2445V17.5485H0.775175L2.17144 20.4925L3.56001 17.5485H3.98094V21.2419H3.54718V18.5521L2.29208 21.2445H2.04824L0.793142 18.5521V21.2445H0.359375ZM5.90184 21.3215C5.62977 21.3215 5.39194 21.2616 5.1883 21.1418C4.98641 21.0203 4.82898 20.8518 4.71605 20.6362C4.60312 20.4189 4.54665 20.1656 4.54665 19.8765C4.54665 19.5736 4.60226 19.3118 4.71348 19.0911C4.82471 18.8686 4.97956 18.6975 5.17804 18.5777C5.37824 18.4562 5.61267 18.3955 5.8813 18.3955C6.16025 18.3955 6.3972 18.4597 6.59227 18.588C6.78908 18.7163 6.9362 18.8995 7.03374 19.1373C7.13301 19.3751 7.17578 19.6583 7.16207 19.9868H6.70007V19.8226C6.69494 19.4821 6.62564 19.228 6.49217 19.0603C6.3587 18.8909 6.16025 18.8062 5.8967 18.8062C5.61437 18.8062 5.39964 18.8969 5.25247 19.0782C5.10533 19.2596 5.03175 19.5197 5.03175 19.8585C5.03175 20.1853 5.10533 20.4386 5.25247 20.6182C5.39964 20.7979 5.60924 20.8877 5.8813 20.8877C6.06441 20.8877 6.22354 20.8458 6.3587 20.762C6.49391 20.6782 6.59997 20.5575 6.67697 20.4001L7.11587 20.5515C7.00807 20.7962 6.84555 20.9861 6.6282 21.1213C6.4126 21.2548 6.17051 21.3215 5.90184 21.3215ZM4.87775 19.9868V19.6198H6.92594V19.9868H4.87775ZM8.82178 21.3215C8.56342 21.3215 8.34181 21.2573 8.15701 21.129C7.97221 20.999 7.82935 20.8236 7.72838 20.6028C7.62915 20.3821 7.57951 20.1331 7.57951 19.8559C7.57951 19.5787 7.62915 19.3298 7.72838 19.109C7.82935 18.8883 7.97221 18.7147 8.15701 18.588C8.34181 18.4597 8.56254 18.3955 8.81921 18.3955C9.08101 18.3955 9.30092 18.4588 9.47884 18.5854C9.65682 18.7121 9.79116 18.8857 9.88181 19.1065C9.97421 19.3272 10.0204 19.577 10.0204 19.8559C10.0204 20.1314 9.97421 20.3804 9.88181 20.6028C9.79116 20.8236 9.65682 20.999 9.47884 21.129C9.30092 21.2573 9.08188 21.3215 8.82178 21.3215ZM8.87825 20.9031C9.06479 20.9031 9.21792 20.8586 9.33768 20.7697C9.45749 20.679 9.54558 20.5549 9.60205 20.3975C9.66026 20.2384 9.68931 20.0578 9.68931 19.8559C9.68931 19.6506 9.66026 19.4701 9.60205 19.3144C9.54558 19.1569 9.45831 19.0346 9.34024 18.9473C9.22218 18.8584 9.07249 18.8139 8.89108 18.8139C8.70289 18.8139 8.54714 18.8601 8.42395 18.9525C8.30249 19.0449 8.21178 19.1698 8.15188 19.3272C8.09372 19.4846 8.06461 19.6609 8.06461 19.8559C8.06461 20.0527 8.09459 20.2307 8.15444 20.3898C8.21435 20.5472 8.30418 20.6721 8.42395 20.7645C8.54545 20.8569 8.69688 20.9031 8.87825 20.9031ZM9.68931 21.2445V19.204H9.63798V17.5485H10.0974V21.2445H9.68931ZM10.8679 17.9823V17.51H11.3247V17.9823H10.8679ZM10.8679 21.2445V18.4725H11.3247V21.2445H10.8679ZM13.2627 21.3215C12.9821 21.3215 12.7434 21.259 12.5466 21.1341C12.3515 21.0075 12.2026 20.8338 12.1 20.6131C11.9973 20.3924 11.9443 20.1408 11.9408 19.8585C11.9443 19.5693 11.9982 19.3152 12.1025 19.0962C12.2086 18.8755 12.3601 18.7035 12.5568 18.5803C12.7537 18.4571 12.9906 18.3955 13.2678 18.3955C13.5604 18.3955 13.8119 18.4674 14.0224 18.6111C14.2346 18.7548 14.3766 18.9516 14.4485 19.2014L13.9967 19.3375C13.9386 19.1766 13.8436 19.0517 13.7118 18.9627C13.5818 18.8738 13.4321 18.8293 13.2627 18.8293C13.0727 18.8293 12.9162 18.8738 12.793 18.9627C12.6698 19.05 12.5782 19.1715 12.5183 19.3272C12.4585 19.4812 12.4277 19.6583 12.4259 19.8585C12.4294 20.1665 12.5004 20.4155 12.639 20.6054C12.7793 20.7937 12.9872 20.8877 13.2627 20.8877C13.4441 20.8877 13.5946 20.8467 13.7144 20.7645C13.8342 20.6807 13.9249 20.5601 13.9865 20.4026L14.4485 20.5233C14.3527 20.7816 14.2029 20.9793 13.9993 21.1162C13.7957 21.2531 13.5501 21.3215 13.2627 21.3215ZM14.9485 17.9823V17.51H15.4053V17.9823H14.9485ZM14.9485 21.2445V18.4725H15.4053V21.2445H14.9485ZM18.1492 21.2445V19.8559C18.1492 19.7242 18.1372 19.5976 18.1133 19.4761C18.091 19.3546 18.0508 19.2459 17.9926 19.1501C17.9362 19.0526 17.8592 18.9756 17.7616 18.9191C17.6658 18.8626 17.5443 18.8344 17.3972 18.8344C17.2825 18.8344 17.1782 18.8541 17.084 18.8934C16.9916 18.9311 16.9121 18.9893 16.8453 19.068C16.7786 19.1467 16.7264 19.2459 16.6888 19.3657C16.6528 19.4838 16.6349 19.6232 16.6349 19.7841L16.3346 19.6917C16.3346 19.423 16.3825 19.1929 16.4783 19.0012C16.5758 18.8079 16.7119 18.6599 16.8864 18.5572C17.0627 18.4528 17.2697 18.4006 17.5075 18.4006C17.6872 18.4006 17.8404 18.4289 17.967 18.4853C18.0936 18.5418 18.1988 18.6171 18.2827 18.7112C18.3665 18.8036 18.4324 18.908 18.4803 19.0243C18.5282 19.139 18.5616 19.2562 18.5804 19.376C18.6009 19.494 18.6112 19.6061 18.6112 19.7122V21.2445H18.1492ZM16.1729 21.2445V18.4725H16.5835V19.2143H16.6349V21.2445H16.1729ZM20.4546 21.3215C20.1826 21.3215 19.9447 21.2616 19.7411 21.1418C19.5392 21.0203 19.3818 20.8518 19.2688 20.6362C19.1559 20.4189 19.0994 20.1656 19.0994 19.8765C19.0994 19.5736 19.1551 19.3118 19.2663 19.0911C19.3775 18.8686 19.5324 18.6975 19.7308 18.5777C19.931 18.4562 20.1655 18.3955 20.4341 18.3955C20.713 18.3955 20.95 18.4597 21.1451 18.588C21.3419 18.7163 21.489 18.8995 21.5865 19.1373C21.6858 19.3751 21.7286 19.6583 21.7149 19.9868H21.2529V19.8226C21.2477 19.4821 21.1784 19.228 21.045 19.0603C20.9115 18.8909 20.713 18.8062 20.4495 18.8062C20.1672 18.8062 19.9524 18.8969 19.8053 19.0782C19.6581 19.2596 19.5845 19.5197 19.5845 19.8585C19.5845 20.1853 19.6581 20.4386 19.8053 20.6182C19.9524 20.7979 20.162 20.8877 20.4341 20.8877C20.6172 20.8877 20.7763 20.8458 20.9115 20.762C21.0467 20.6782 21.1528 20.5575 21.2298 20.4001L21.6687 20.5515C21.5609 20.7962 21.3983 20.9861 21.181 21.1213C20.9654 21.2548 20.7233 21.3215 20.4546 21.3215ZM19.4305 19.9868V19.6198H21.4787V19.9868H19.4305ZM23.3335 21.3189C23.0033 21.3189 22.7321 21.2471 22.5199 21.1033C22.3094 20.9579 22.1803 20.7552 22.1323 20.495L22.5994 20.4206C22.6371 20.5712 22.7235 20.691 22.8587 20.7799C22.9939 20.8672 23.1615 20.9108 23.3617 20.9108C23.5517 20.9108 23.7005 20.8715 23.8083 20.7928C23.9161 20.7141 23.97 20.6071 23.97 20.4719C23.97 20.3932 23.9521 20.3299 23.9161 20.282C23.8802 20.2324 23.8058 20.1862 23.6928 20.1434C23.5817 20.1006 23.4131 20.0493 23.1872 19.9894C22.9426 19.9244 22.7501 19.8568 22.6097 19.7866C22.4694 19.7165 22.3693 19.6352 22.3094 19.5428C22.2496 19.4504 22.2196 19.3383 22.2196 19.2066C22.2196 19.044 22.2641 18.902 22.353 18.7805C22.4421 18.6573 22.5661 18.5623 22.7252 18.4956C22.8861 18.4289 23.0726 18.3955 23.2847 18.3955C23.4952 18.3955 23.6834 18.4289 23.8494 18.4956C24.0154 18.5623 24.1489 18.6573 24.2498 18.7805C24.3525 18.902 24.4133 19.044 24.432 19.2066L23.9649 19.2913C23.9427 19.1424 23.8708 19.0252 23.7493 18.9396C23.6295 18.8541 23.4747 18.8087 23.2847 18.8036C23.1051 18.7968 22.9588 18.8284 22.8458 18.8986C22.7347 18.9688 22.679 19.0637 22.679 19.1835C22.679 19.2502 22.6995 19.3075 22.7406 19.3554C22.7834 19.4033 22.8612 19.4487 22.9742 19.4915C23.0889 19.5342 23.2548 19.583 23.4721 19.6378C23.7168 19.6994 23.9093 19.767 24.0496 19.8405C24.1916 19.9124 24.2926 19.998 24.3525 20.0972C24.4124 20.1947 24.4423 20.3154 24.4423 20.4591C24.4423 20.726 24.344 20.9365 24.1471 21.0905C23.9504 21.2428 23.6792 21.3189 23.3335 21.3189Z" fill="white"/>
<path d="M28.747 19.1911C28.747 18.7659 28.4023 18.4211 27.977 18.4211C27.5518 18.4211 27.207 18.7659 27.207 19.1911C27.207 19.6164 27.5518 19.9611 27.977 19.9611C28.4023 19.9611 28.747 19.6164 28.747 19.1911Z" fill="#DBDBDB"/>
<path d="M31.1582 21.2451V17.5491H32.2978C32.3354 17.5491 32.4013 17.5499 32.4954 17.5516C32.5895 17.5533 32.6794 17.5602 32.7649 17.5722C33.0507 17.6098 33.2894 17.7142 33.481 17.8853C33.6744 18.0547 33.8198 18.2703 33.9174 18.5321C34.0149 18.7939 34.0637 19.0822 34.0637 19.3971C34.0637 19.7119 34.0149 20.0002 33.9174 20.262C33.8198 20.5238 33.6744 20.7403 33.481 20.9114C33.2894 21.0808 33.0507 21.1843 32.7649 21.222C32.6794 21.2322 32.5887 21.2391 32.4929 21.2425C32.3988 21.2442 32.3337 21.2451 32.2978 21.2451H31.1582ZM31.6279 20.8087H32.2978C32.3628 20.8087 32.4355 20.807 32.516 20.8036C32.5964 20.7985 32.6665 20.7908 32.7264 20.7805C32.9283 20.7429 33.0918 20.6582 33.2167 20.5264C33.3416 20.3946 33.4331 20.2304 33.4913 20.0336C33.5495 19.8368 33.5786 19.6246 33.5786 19.3971C33.5786 19.1644 33.5486 18.9496 33.4887 18.7528C33.4306 18.5561 33.339 18.3926 33.2141 18.2626C33.0892 18.1326 32.9266 18.0496 32.7264 18.0136C32.6665 18.0017 32.5955 17.994 32.5134 17.9905C32.4313 17.9871 32.3594 17.9854 32.2978 17.9854H31.6279V20.8087ZM35.8329 21.3221C35.5575 21.3221 35.3196 21.2596 35.1194 21.1347C34.9209 21.0098 34.7678 20.837 34.66 20.6162C34.5522 20.3955 34.4983 20.1423 34.4983 19.8565C34.4983 19.5656 34.553 19.3107 34.6625 19.0916C34.7721 18.8726 34.9269 18.7024 35.1271 18.5809C35.3273 18.4577 35.5626 18.3961 35.8329 18.3961C36.1101 18.3961 36.3488 18.4585 36.549 18.5834C36.7492 18.7066 36.9024 18.8786 37.0085 19.0993C37.1163 19.3184 37.1702 19.5707 37.1702 19.8565C37.1702 20.1457 37.1163 20.4006 37.0085 20.6214C36.9007 20.8404 36.7467 21.0124 36.5465 21.1373C36.3463 21.2605 36.1084 21.3221 35.8329 21.3221ZM35.8329 20.8883C36.1204 20.8883 36.3343 20.7925 36.4746 20.6008C36.6149 20.4092 36.6851 20.1611 36.6851 19.8565C36.6851 19.5434 36.6141 19.2944 36.472 19.1096C36.33 18.9231 36.117 18.8298 35.8329 18.8298C35.6396 18.8298 35.4805 18.8735 35.3555 18.9607C35.2306 19.048 35.1374 19.1686 35.0758 19.3226C35.0142 19.4766 34.9834 19.6546 34.9834 19.8565C34.9834 20.1679 35.0552 20.4177 35.199 20.606C35.3427 20.7942 35.554 20.8883 35.8329 20.8883ZM38.9031 21.3221C38.6225 21.3221 38.3838 21.2596 38.187 21.1347C37.992 21.0081 37.8431 20.8344 37.7404 20.6137C37.6378 20.3929 37.5847 20.1414 37.5813 19.8591C37.5847 19.5699 37.6386 19.3158 37.743 19.0968C37.8491 18.876 38.0005 18.7041 38.1973 18.5809C38.394 18.4577 38.6311 18.3961 38.9083 18.3961C39.2009 18.3961 39.4524 18.4679 39.6629 18.6117C39.875 18.7554 40.0171 18.9522 40.0889 19.202L39.6372 19.338C39.579 19.1772 39.4841 19.0523 39.3523 18.9633C39.2223 18.8743 39.0725 18.8298 38.9031 18.8298C38.7132 18.8298 38.5566 18.8743 38.4334 18.9633C38.3102 19.0506 38.2187 19.1721 38.1588 19.3278C38.0989 19.4818 38.0681 19.6589 38.0664 19.8591C38.0698 20.1671 38.1408 20.416 38.2794 20.606C38.4197 20.7942 38.6276 20.8883 38.9031 20.8883C39.0845 20.8883 39.2351 20.8472 39.3549 20.7651C39.4746 20.6813 39.5653 20.5606 39.6269 20.4032L40.0889 20.5238C39.9931 20.7822 39.8434 20.9798 39.6398 21.1167C39.4361 21.2536 39.1906 21.3221 38.9031 21.3221ZM42.1605 21.2451C41.9962 21.2776 41.8336 21.2904 41.6728 21.2836C41.5137 21.2784 41.3716 21.2468 41.2467 21.1886C41.1218 21.1287 41.0268 21.0363 40.9618 20.9114C40.9071 20.8019 40.8771 20.6915 40.872 20.5803C40.8686 20.4674 40.8669 20.3399 40.8669 20.1979V17.7031H41.3237V20.1773C41.3237 20.2903 41.3246 20.3869 41.3263 20.4674C41.3297 20.5478 41.3477 20.6171 41.3802 20.6753C41.4418 20.7848 41.5393 20.8489 41.6728 20.8678C41.808 20.8866 41.9705 20.8815 42.1605 20.8524V21.2451ZM40.3048 18.8504V18.4731H42.1605V18.8504H40.3048ZM43.7886 21.3221C43.5131 21.3221 43.2753 21.2596 43.0751 21.1347C42.8766 21.0098 42.7234 20.837 42.6156 20.6162C42.5078 20.3955 42.4539 20.1423 42.4539 19.8565C42.4539 19.5656 42.5087 19.3107 42.6182 19.0916C42.7277 18.8726 42.8826 18.7024 43.0828 18.5809C43.283 18.4577 43.5182 18.3961 43.7886 18.3961C44.0658 18.3961 44.3045 18.4585 44.5047 18.5834C44.7049 18.7066 44.858 18.8786 44.9642 19.0993C45.0719 19.3184 45.1258 19.5707 45.1258 19.8565C45.1258 20.1457 45.0719 20.4006 44.9642 20.6214C44.8563 20.8404 44.7023 21.0124 44.5021 21.1373C44.3019 21.2605 44.0641 21.3221 43.7886 21.3221ZM43.7886 20.8883C44.0761 20.8883 44.29 20.7925 44.4303 20.6008C44.5706 20.4092 44.6407 20.1611 44.6407 19.8565C44.6407 19.5434 44.5698 19.2944 44.4277 19.1096C44.2857 18.9231 44.0726 18.8298 43.7886 18.8298C43.5952 18.8298 43.4361 18.8735 43.3112 18.9607C43.1863 19.048 43.093 19.1686 43.0314 19.3226C42.9698 19.4766 42.939 19.6546 42.939 19.8565C42.939 20.1679 43.0109 20.4177 43.1546 20.606C43.2984 20.7942 43.5097 20.8883 43.7886 20.8883ZM45.6909 21.2451V18.4731H46.099V19.143L46.0323 19.0557C46.0648 18.9701 46.1067 18.8914 46.1581 18.8196C46.2111 18.7477 46.2702 18.6887 46.3352 18.6425C46.407 18.5843 46.4883 18.5398 46.579 18.509C46.6697 18.4782 46.7621 18.4602 46.8562 18.4551C46.9503 18.4483 47.0384 18.4542 47.1206 18.4731V18.9017C47.0248 18.876 46.9195 18.8692 46.8049 18.8812C46.6902 18.8931 46.5841 18.9351 46.4866 19.0069C46.3976 19.0702 46.3283 19.1472 46.2787 19.2379C46.2308 19.3286 46.1974 19.427 46.1786 19.5331C46.1598 19.6375 46.1504 19.7444 46.1504 19.8539V21.2451H45.6909ZM48.5529 21.3195C48.2226 21.3195 47.9514 21.2476 47.7392 21.1039C47.5288 20.9585 47.3996 20.7557 47.3517 20.4956L47.8188 20.4212C47.8564 20.5717 47.9429 20.6915 48.078 20.7805C48.2132 20.8678 48.3809 20.9114 48.5811 20.9114C48.771 20.9114 48.9199 20.872 49.0277 20.7933C49.1355 20.7146 49.1894 20.6077 49.1894 20.4725C49.1894 20.3938 49.1714 20.3305 49.1355 20.2826C49.0996 20.2329 49.0251 20.1867 48.9122 20.144C48.801 20.1012 48.6324 20.0499 48.4066 19.99C48.1619 19.9249 47.9694 19.8574 47.8291 19.7872C47.6888 19.717 47.5887 19.6358 47.5288 19.5434C47.4689 19.451 47.4389 19.3389 47.4389 19.2071C47.4389 19.0446 47.4834 18.9026 47.5724 18.7811C47.6614 18.6579 47.7854 18.5629 47.9446 18.4962C48.1054 18.4294 48.2919 18.3961 48.5041 18.3961C48.7146 18.3961 48.9028 18.4294 49.0688 18.4962C49.2347 18.5629 49.3682 18.6579 49.4692 18.7811C49.5718 18.9026 49.6326 19.0446 49.6514 19.2071L49.1843 19.2918C49.162 19.143 49.0902 19.0258 48.9687 18.9402C48.8489 18.8546 48.694 18.8093 48.5041 18.8042C48.3244 18.7973 48.1781 18.829 48.0652 18.8991C47.954 18.9693 47.8984 19.0643 47.8984 19.184C47.8984 19.2508 47.9189 19.3081 47.96 19.356C48.0027 19.4039 48.0806 19.4493 48.1935 19.492C48.3082 19.5348 48.4742 19.5836 48.6915 19.6383C48.9362 19.6999 49.1287 19.7675 49.269 19.8411C49.411 19.913 49.5119 19.9985 49.5718 20.0978C49.6317 20.1953 49.6617 20.3159 49.6617 20.4597C49.6617 20.7266 49.5633 20.9371 49.3665 21.0911C49.1697 21.2434 48.8985 21.3195 48.5529 21.3195Z" fill="white"/>
<path d="M53.8994 19.1914C53.8994 18.7661 53.5546 18.4214 53.1294 18.4214C52.7041 18.4214 52.3594 18.7661 52.3594 19.1914C52.3594 19.6166 52.7041 19.9614 53.1294 19.9614C53.5546 19.9614 53.8994 19.6166 53.8994 19.1914Z" fill="#DBDBDB"/>
<path d="M56.3652 21.2451V17.5491H56.8221V20.8113H58.5366V21.2451H56.3652ZM59.7589 21.3221C59.5515 21.3221 59.378 21.2844 59.2378 21.2091C59.0992 21.1321 58.994 21.0312 58.9221 20.9063C58.8518 20.7814 58.8169 20.6445 58.8169 20.4956C58.8169 20.3502 58.8441 20.2244 58.899 20.1183C58.9555 20.0105 59.0341 19.9215 59.1352 19.8514C59.2358 19.7795 59.3564 19.723 59.4971 19.682C59.6285 19.646 59.7758 19.6152 59.9385 19.5896C60.1028 19.5622 60.2686 19.5374 60.4365 19.5151C60.6038 19.4929 60.7604 19.4715 60.9062 19.451L60.7419 19.5459C60.747 19.2995 60.6973 19.1173 60.593 18.9992C60.4904 18.8812 60.3123 18.8221 60.0592 18.8221C59.8913 18.8221 59.744 18.8606 59.6177 18.9376C59.4925 19.0129 59.4047 19.1361 59.3533 19.3072L58.9196 19.1763C58.9863 18.9334 59.1152 18.7426 59.3071 18.604C59.4986 18.4654 59.7512 18.3961 60.0643 18.3961C60.3158 18.3961 60.5314 18.4414 60.7111 18.5321C60.8923 18.6211 61.0222 18.7563 61.1012 18.9376C61.1403 19.0232 61.1654 19.1164 61.1757 19.2174C61.1859 19.3166 61.1911 19.421 61.1911 19.5305V21.2451H60.7855V20.5803L60.8805 20.6419C60.7758 20.8661 60.6295 21.0355 60.4416 21.1501C60.2548 21.2647 60.0274 21.3221 59.7589 21.3221ZM59.8282 20.9396C59.9924 20.9396 60.1341 20.9105 60.2542 20.8524C60.3754 20.7925 60.4729 20.7146 60.5468 20.6188C60.6203 20.5213 60.668 20.4152 60.6906 20.3005C60.7162 20.215 60.7296 20.12 60.7316 20.0156C60.7347 19.9095 60.7368 19.8283 60.7368 19.7718L60.8959 19.8411C60.747 19.8616 60.6007 19.8813 60.457 19.9001C60.3133 19.919 60.1772 19.9395 60.0489 19.9617C59.9206 19.9823 59.8051 20.0071 59.7024 20.0362C59.627 20.0601 59.5561 20.0909 59.4894 20.1286C59.4242 20.1662 59.3713 20.215 59.3302 20.2749C59.2907 20.333 59.2712 20.4058 59.2712 20.493C59.2712 20.5683 59.2897 20.6402 59.3277 20.7086C59.3667 20.7771 59.4268 20.8327 59.5073 20.8755C59.5895 20.9182 59.6963 20.9396 59.8282 20.9396ZM63.1315 21.3221C62.8712 21.3221 62.652 21.2579 62.4744 21.1296C62.2963 20.9995 62.1613 20.8241 62.0689 20.6034C61.978 20.381 61.9328 20.132 61.9328 19.8565C61.9328 19.5776 61.978 19.3278 62.0689 19.107C62.1613 18.8863 62.2963 18.7126 62.4744 18.586C62.6541 18.4594 62.8738 18.3961 63.134 18.3961C63.3907 18.3961 63.6114 18.4602 63.7962 18.5886C63.9826 18.7152 64.1253 18.8889 64.2249 19.1096C64.324 19.3303 64.3737 19.5793 64.3737 19.8565C64.3737 20.1337 64.324 20.3827 64.2249 20.6034C64.1253 20.8241 63.9826 20.9995 63.7962 21.1296C63.6114 21.2579 63.3897 21.3221 63.1315 21.3221ZM61.8558 21.2451V17.5491H62.3153V19.2046H62.2639V21.2451H61.8558ZM63.075 20.9037C63.2578 20.9037 63.4092 20.8575 63.5293 20.7651C63.6489 20.6727 63.7388 20.5478 63.7988 20.3904C63.8584 20.2312 63.8886 20.0533 63.8886 19.8565C63.8886 19.6614 63.8584 19.4852 63.7988 19.3278C63.7403 19.1703 63.6499 19.0454 63.5267 18.953C63.4051 18.8606 63.2501 18.8144 63.0622 18.8144C62.8825 18.8144 62.7336 18.8589 62.6156 18.9479C62.4975 19.0352 62.4092 19.1575 62.3512 19.3149C62.2927 19.4706 62.2639 19.6512 62.2639 19.8565C62.2639 20.0584 62.2922 20.2389 62.3486 20.3981C62.4067 20.5555 62.4955 20.6795 62.6156 20.7702C62.7352 20.8592 62.8882 20.9037 63.075 20.9037ZM67.5118 21.2451C67.3475 21.2776 67.1848 21.2904 67.0241 21.2836C66.865 21.2784 66.7228 21.2468 66.598 21.1886C66.4728 21.1287 66.3778 21.0363 66.3131 20.9114C66.2582 20.8019 66.2284 20.6915 66.2233 20.5803C66.2197 20.4674 66.2182 20.3399 66.2182 20.1979V17.7031H66.675V20.1773C66.675 20.2903 66.6755 20.3869 66.6776 20.4674C66.6807 20.5478 66.6986 20.6171 66.7315 20.6753C66.7931 20.7848 66.8906 20.8489 67.0241 20.8678C67.1591 20.8866 67.3218 20.8815 67.5118 20.8524V21.2451ZM65.6561 18.8504V18.4731H67.5118V18.8504H65.6561ZM69.1606 21.3221C68.8885 21.3221 68.6503 21.2622 68.447 21.1424C68.2448 21.0209 68.0877 20.8524 67.9748 20.6368C67.8618 20.4195 67.8054 20.1662 67.8054 19.877C67.8054 19.5742 67.8608 19.3124 67.9722 19.0916C68.0831 18.8692 68.2381 18.6981 68.4368 18.5783C68.637 18.4568 68.8711 18.3961 69.14 18.3961C69.4188 18.3961 69.6559 18.4602 69.851 18.5886C70.0476 18.7169 70.1949 18.9 70.2925 19.1378C70.3916 19.3757 70.4342 19.6589 70.4208 19.9874H69.9588V19.8231C69.9537 19.4826 69.8844 19.2285 69.7509 19.0608C69.6174 18.8914 69.4188 18.8067 69.1554 18.8067C68.8731 18.8067 68.658 18.8974 68.5112 19.0788C68.3639 19.2602 68.2905 19.5203 68.2905 19.8591C68.2905 20.1859 68.3639 20.4391 68.5112 20.6188C68.658 20.7985 68.868 20.8883 69.14 20.8883C69.3228 20.8883 69.4819 20.8464 69.6174 20.7625C69.7525 20.6787 69.8587 20.5581 69.9357 20.4006L70.3746 20.5521C70.2668 20.7968 70.1041 20.9867 69.8869 21.1219C69.6713 21.2553 69.4291 21.3221 69.1606 21.3221ZM68.1365 19.9874V19.6204H70.1847V19.9874H68.1365ZM72.0394 21.3195C71.7088 21.3195 71.4377 21.2476 71.2257 21.1039C71.0152 20.9585 70.8859 20.7557 70.8382 20.4956L71.3053 20.4212C71.3428 20.5717 71.429 20.6915 71.5645 20.7805C71.6995 20.8678 71.8674 20.9114 72.0676 20.9114C72.2575 20.9114 72.4064 20.872 72.5142 20.7933C72.622 20.7146 72.6759 20.6077 72.6759 20.4725C72.6759 20.3938 72.6579 20.3305 72.622 20.2826C72.5861 20.2329 72.5116 20.1867 72.3987 20.144C72.2873 20.1012 72.1189 20.0499 71.8931 19.99C71.6482 19.9249 71.4557 19.8574 71.3156 19.7872C71.1749 19.717 71.0748 19.6358 71.0153 19.5434C70.9552 19.451 70.9254 19.3389 70.9254 19.2071C70.9254 19.0446 70.9696 18.9026 71.0589 18.7811C71.1477 18.6579 71.2719 18.5629 71.4311 18.4962C71.5917 18.4294 71.7781 18.3961 71.9906 18.3961C72.2011 18.3961 72.3889 18.4294 72.5553 18.4962C72.7211 18.5629 72.8545 18.6579 72.9557 18.7811C73.0583 18.9026 73.1189 19.0446 73.1379 19.2071L72.6707 19.2918C72.6482 19.143 72.5763 19.0258 72.4552 18.9402C72.335 18.8546 72.1805 18.8093 71.9906 18.8042C71.8109 18.7973 71.6646 18.829 71.5517 18.8991C71.4403 18.9693 71.3849 19.0643 71.3849 19.184C71.3849 19.2508 71.4054 19.3081 71.4465 19.356C71.4891 19.4039 71.5671 19.4493 71.68 19.492C71.7945 19.5348 71.9603 19.5836 72.178 19.6383C72.4223 19.6999 72.6148 19.7675 72.7555 19.8411C72.8971 19.913 72.9983 19.9985 73.0583 20.0978C73.1179 20.1953 73.1482 20.3159 73.1482 20.4597C73.1482 20.7266 73.0496 20.9371 72.853 21.0911C72.6559 21.2434 72.3848 21.3195 72.0394 21.3195ZM75.2615 21.2451C75.0973 21.2776 74.9351 21.2904 74.7739 21.2836C74.6147 21.2784 74.4731 21.2468 74.3478 21.1886C74.2231 21.1287 74.1281 21.0363 74.0629 20.9114C74.0085 20.8019 73.9782 20.6915 73.9731 20.5803C73.97 20.4674 73.9679 20.3399 73.9679 20.1979V17.7031H74.4248V20.1773C74.4248 20.2903 74.4258 20.3869 74.4274 20.4674C74.431 20.5478 74.4489 20.6171 74.4813 20.6753C74.5429 20.7848 74.6404 20.8489 74.7739 20.8678C74.9094 20.8866 75.0716 20.8815 75.2615 20.8524V21.2451ZM73.4058 18.8504V18.4731H75.2615V18.8504H73.4058Z" fill="white"/>
</g>
<defs>
<clipPath id="clip0_755_377">
<rect width="77" height="22.5867" fill="white" transform="translate(0 0.198486)"/>
</clipPath>
</defs>
</svg>
