<svg width="101" height="23" viewBox="0 0 101 23" fill="none" xmlns="http://www.w3.org/2000/svg">
<g clip-path="url(#clip0_690_601)">
<path d="M10.1687 15.6983C10.1687 15.6983 9.48188 15.0681 5.72468 14.4863C5.72468 14.4863 3.66832 14.3086 3.6562 13.0198C3.6562 13.0198 3.6562 11.8805 5.34896 11.7836C5.34896 11.7836 7.58308 11.4927 8.91628 13.2945L11.312 11.9775C11.312 11.9775 10.201 9.31514 6.11656 9.1495C6.11656 9.1495 3.28856 8.99194 1.88668 10.41C1.66852 10.6281 0.67468 11.4685 0.707 13.4117C0.73022 13.8783 0.856357 14.3339 1.07637 14.746C1.29639 15.1581 1.60483 15.5164 1.9796 15.7953C2.90924 16.4054 3.95432 16.8179 5.05 17.0073C5.8176 17.177 6.63368 17.3103 7.22352 17.4113C7.55034 17.4421 7.85261 17.598 8.06718 17.8465C8.28174 18.0949 8.392 18.4167 8.37492 18.7445C8.36926 19.0503 8.26403 19.3459 8.07521 19.5865C7.88638 19.8271 7.62425 19.9995 7.32856 20.0777C6.20578 20.395 5.00403 20.2692 3.97132 19.7262C3.3433 19.3435 2.80685 18.8277 2.39976 18.2153L0 19.5C0 19.5 0.4646 21.3139 3.56328 22.534C5.29887 23.1429 7.19297 23.1243 8.91628 22.4815C8.91628 22.4815 10.9363 21.8634 11.4736 19.2778C11.4736 19.2778 12.0028 16.9669 10.1687 15.6983Z" fill="white"/>
<path d="M100.863 0.702129C100.84 0.555184 100.809 0.40955 100.77 0.265809C100.742 0.171782 100.68 0.0913517 100.597 0.0395692C100.558 0.0184316 100.516 0.00537965 100.472 0.00121175C100.428 -0.00295615 100.384 0.00184762 100.342 0.0153292C100.303 0.0314782 100.269 0.0574319 100.242 0.0906893C100.216 0.123947 100.199 0.163387 100.193 0.205209C100.176 0.270175 100.176 0.338204 100.193 0.403169L100.265 0.892009C100.265 0.892009 100.318 1.37277 100.318 1.57477C100.336 2.0119 100.317 2.44975 100.261 2.88373C100.213 3.25581 100.14 3.62426 100.043 3.98665C99.9582 4.26541 99.8047 4.73405 99.6997 4.98049C99.5946 5.22693 99.3846 5.69153 99.1826 6.05917C98.9806 6.42681 98.6291 7.10553 98.4392 7.38833C98.2493 7.67113 97.6837 8.60033 97.5666 8.72961C97.4494 8.85889 97.3484 9.07705 97.1302 9.35985C96.9121 9.64265 97.0252 9.52953 96.6656 10.0103C96.3061 10.491 96.0839 10.8546 96.0839 10.8546C96.0839 10.8546 95.6274 11.5697 95.6274 11.5859C95.6274 11.602 95.3728 11.9899 95.2234 12.3696C95.069 12.687 94.9341 13.0135 94.8194 13.3473C94.6705 13.8078 94.5517 14.2774 94.4638 14.7532C94.3184 15.5612 94.3305 15.743 94.3144 15.7713C94.2982 15.7996 94.2012 16.854 94.1972 17.1207C94.1972 17.1207 94.1164 18.8862 94.1447 19.0276C94.1447 19.0276 94.1447 20.2598 94.181 20.2759C94.2174 20.2921 94.2457 21.3344 94.274 21.3829C94.3076 21.6729 94.3602 21.9603 94.4315 22.2434C94.4677 22.359 94.5109 22.4724 94.5608 22.5828C94.6137 22.6609 94.6923 22.7181 94.783 22.7444C94.783 22.7444 94.985 22.805 95.082 22.6676C95.1226 22.5994 95.1423 22.5207 95.1385 22.4414C95.1328 22.2963 95.1166 22.1518 95.09 22.0091L95.0496 21.6414V21.395V20.991C95.0477 20.7441 95.0599 20.4972 95.086 20.2517C95.1091 19.98 95.1496 19.7102 95.2072 19.4437C95.279 19.1341 95.3735 18.8303 95.49 18.5347C95.6314 18.2236 95.6031 18.2559 95.9384 17.5247C95.9384 17.5247 96.1606 17.0318 96.3222 16.753C96.4838 16.4743 96.7262 16.0905 96.7262 16.0905C96.7262 16.0905 97.3242 15.1694 97.3444 15.1492C97.3646 15.129 98.3826 13.6422 98.3826 13.6422C98.3826 13.6422 99.0896 12.5716 99.0977 12.5191C99.3405 12.1087 99.5578 11.6837 99.7482 11.2465C99.9865 10.6607 100.104 10.3577 100.152 10.1315C100.201 9.90525 100.423 9.20229 100.479 8.94777L100.641 8.15997L100.77 7.31561C100.77 7.31561 100.916 5.96625 100.908 5.96625C100.9 5.96625 100.992 4.69769 100.992 4.69769L101.001 3.63517V2.82717V2.01917L100.936 1.14653L100.863 0.702129Z" fill="white" fill-opacity="0.4"/>
<path d="M84.1484 0.70199C84.1718 0.555045 84.2029 0.40941 84.2413 0.26567C84.2748 0.168302 84.3441 0.0873796 84.4352 0.0394299C84.4731 0.0183985 84.5149 0.00539173 84.558 0.00122119C84.6011 -0.00294935 84.6446 0.00180576 84.6857 0.0151899C84.7249 0.0313389 84.7592 0.0572925 84.7853 0.09055C84.8115 0.123807 84.8287 0.163247 84.8352 0.20507C84.853 0.2697 84.8543 0.33773 84.8392 0.40303L84.7665 0.89187C84.7665 0.89187 84.714 1.37263 84.714 1.57463C84.6963 2.01176 84.7152 2.44961 84.7706 2.88359C84.8207 3.25534 84.8936 3.62367 84.9887 3.98651C85.0736 4.26527 85.2311 4.73391 85.3362 4.98035C85.4412 5.22679 85.6311 5.71159 85.8331 6.08731C86.0351 6.46303 86.3906 7.13367 86.5765 7.41647C86.7623 7.69927 87.3319 8.62847 87.4491 8.76179C87.5663 8.89511 87.6672 9.10519 87.8854 9.38799C88.1036 9.67079 87.9945 9.55767 88.35 10.0384C88.7055 10.5192 88.9358 10.8828 88.9358 10.8828C88.9358 10.8828 89.3883 11.5979 89.3883 11.614C89.3883 11.6302 89.6428 12.018 89.8125 12.3978C89.9686 12.7144 90.1036 13.041 90.2165 13.3755C90.3678 13.8366 90.4866 14.3077 90.572 14.7854C90.7215 15.5934 90.7053 15.7712 90.7215 15.7995C90.7376 15.8277 90.8346 16.8822 90.8387 17.1488C90.8387 17.1488 90.9194 18.9183 90.8912 19.0557C90.8912 19.0557 90.871 20.2919 90.8548 20.3041C90.8386 20.3162 90.7902 21.3666 90.7659 21.411C90.7325 21.7013 90.6785 21.9889 90.6043 22.2715C90.57 22.3878 90.5268 22.5013 90.475 22.6109C90.4221 22.6891 90.3435 22.7463 90.2528 22.7725C90.2528 22.7725 90.0508 22.8371 89.9579 22.6957C89.9152 22.6297 89.894 22.5521 89.8973 22.4735C89.903 22.3271 89.9192 22.1813 89.9458 22.0372L89.9862 21.6736L90.0064 21.4272V21.0232C90.0101 20.7763 89.9993 20.5295 89.9741 20.2839C89.949 20.0122 89.9072 19.7424 89.8488 19.4759C89.7795 19.167 89.6849 18.8643 89.566 18.5709C89.4246 18.2558 89.457 18.2881 89.1176 17.5569C89.1176 17.5569 88.8954 17.064 88.7136 16.7852C88.5318 16.5065 88.3096 16.1227 88.3096 16.1227C88.3096 16.1227 87.7157 15.2016 87.6915 15.1813C87.6672 15.1611 86.6532 13.6744 86.6532 13.6744C86.6532 13.6744 85.9462 12.6038 85.9381 12.5513C85.6944 12.1414 85.4771 11.7164 85.2877 11.2787C85.0493 10.6929 84.9362 10.3899 84.8837 10.1637C84.8312 9.93743 84.613 9.23447 84.5605 8.97995C84.508 8.72543 84.3948 8.19215 84.3948 8.19215L84.2696 7.34779C84.2696 7.34779 84.1242 5.99843 84.1282 5.99843C84.1323 5.99843 84.0434 4.72987 84.0434 4.72987L84.0312 3.63503V2.82703V2.01903L84.0959 1.14639L84.1484 0.70199Z" fill="white"/>
<path d="M51.8095 21.4075V22.773H42.873V9.65112H44.3234V21.4035L51.8095 21.4075Z" fill="white"/>
<path d="M77.3728 20.3083C77.1972 20.6487 76.9353 20.9371 76.6133 21.1446C76.2713 21.3503 75.8926 21.4875 75.4983 21.5486C75.0808 21.6068 74.6591 21.6298 74.2378 21.6173H70.6462V17.2904V14.8866V10.8224H73.5752C74.2893 10.7913 75.0043 10.8579 75.7003 11.0204C76.1363 11.1523 76.5087 11.4399 76.7466 11.8284C76.988 12.2202 77.1114 12.6732 77.1022 13.1333C77.1139 13.6045 76.9721 14.0667 76.6982 14.4503C76.4095 14.8218 76.0061 15.0874 75.5508 15.2058C74.9708 15.3388 74.3758 15.3945 73.7813 15.3714H73.6762V16.5228H73.9833C74.6741 16.4988 75.3647 16.5791 76.0316 16.7612C76.5147 16.9117 76.934 17.2187 77.2234 17.6338C77.512 18.0587 77.6616 18.5626 77.6516 19.0761C77.6585 19.509 77.5571 19.9367 77.3567 20.3204M78.4475 17.044C78.0368 16.4985 77.4502 16.1118 76.787 15.9492L76.4598 15.8482L76.8638 15.6421C77.3412 15.4041 77.7293 15.0189 77.9708 14.5432C78.257 14.0526 78.4089 13.4952 78.4111 12.9272C78.4071 12.3339 78.2348 11.7539 77.9142 11.2547C77.5885 10.7311 77.1107 10.3195 76.5446 10.075C75.7797 9.7816 74.9637 9.64423 74.1449 9.671H69.2969V22.7687H74.2378C74.9552 22.7812 75.6715 22.7066 76.3709 22.5465C76.8751 22.4305 77.3514 22.2163 77.7728 21.9162C78.1693 21.5998 78.4873 21.1961 78.702 20.7366C78.9547 20.2154 79.0847 19.6432 79.0818 19.064C79.0934 18.3424 78.8771 17.6355 78.4636 17.044" fill="white"/>
<path d="M13 9.66675H16.2482L19.3307 14.842L22.4172 9.66675H25.6614L20.8214 17.7427V22.7725H17.8359V17.7427L13 9.66675Z" fill="white"/>
<path d="M36.3042 22.7725L30.7653 14.3612V22.7725H28.002V9.66675H30.9512L36.4698 18.0619V9.66675H39.2372V22.7725H36.3042Z" fill="white"/>
<path d="M66.789 22.7728L61.3875 9.66699H61.3834H59.6866H59.6826L54.2852 22.7728H55.982L60.535 11.7274L65.0881 22.7728H66.789Z" fill="white"/>
</g>
<defs>
<clipPath id="clip0_690_601">
<rect width="101" height="22.9836" fill="white"/>
</clipPath>
</defs>
</svg>
