<svg width="667" height="183" viewBox="0 0 667 183" fill="none" xmlns="http://www.w3.org/2000/svg">
<g clip-path="url(#clip0_621_759)">
<g filter="url(#filter0_d_621_759)">
<path d="M349.754 222.786C348.323 224.704 346.845 226.896 345.255 228.928C342.649 232.106 339.551 234.721 335.627 236.095C331.187 237.689 328.071 235.713 328.528 230.981C328.837 227.263 330.125 223.575 331.294 219.923C333.033 214.286 334.927 208.733 336.743 203.139C336.956 202.557 336.974 201.969 337.212 200.603C335.882 201.78 335.039 202.421 334.309 203.223C323.886 213.348 315.493 225.062 307.445 237.062C302.311 244.754 297.176 252.447 294.357 261.385C293.312 264.806 292.612 268.512 292.541 272.158C292.434 280.863 296.346 286.353 304.537 289.068C309.273 290.62 314.259 291.71 319.144 292.248C334.696 294.043 350.217 294.23 365.822 291.673C375.082 290.184 384.454 288.854 393.779 287.797C397.714 287.326 401.667 287.561 405.62 287.796C407.264 287.884 409.045 288.643 410.553 289.355C412.755 290.44 413.948 292.476 413.871 295.024C413.794 297.571 412.44 299.531 410.102 300.364C406.255 301.78 402.285 303.427 398.308 303.975C373.259 307.624 348.134 311.232 322.73 309.81C313.648 309.304 304.62 308.33 296.144 304.665C283.721 299.275 276.794 289.773 275.476 276.318C274.378 265.969 276.871 256.158 280.996 246.827C290.374 225.885 302.91 206.84 318.283 189.92C323.031 184.609 329.009 180.158 334.784 175.897C337.591 173.823 341.319 172.443 344.791 171.722C354.104 169.763 361.761 175.875 362.022 185.375C362.141 189.223 361.239 193.119 360.301 196.896C359.405 200.596 357.963 204.201 356.562 207.729C355.761 209.588 356.241 210.544 357.986 211.184C364.622 213.46 371.122 216.36 377.9 217.817C392.627 220.961 407.412 223.44 422.192 226.115C442.664 229.862 462.436 236.019 481.056 245.242C488.356 248.872 495.236 253.469 501.753 258.37C511.719 265.923 518.029 276.388 522.065 288.119C525.811 299.096 524.386 309.88 519.798 320.256C501.374 362.818 455.48 382.832 411.473 367.717C398.124 363.123 386.265 355.945 375.604 346.724C373.847 345.181 372.298 343.252 371.105 341.216C370.286 339.78 370.031 337.85 370.12 336.205C370.227 333.972 371.871 332.766 373.966 333.495C377.343 334.616 380.756 335.854 383.843 337.515C393.37 342.741 403.027 347.539 413.479 350.674C428.829 355.249 444.321 356.415 459.973 352.291C481.632 346.619 497.326 333.357 507.149 313.251C510.995 305.363 510.728 297.353 506.816 289.274C500.726 276.737 490.796 268.008 479.002 261.264C456.684 248.558 432.674 241.215 407.205 238.065C392.983 236.387 378.821 234.044 365.198 229.403C359.922 227.56 355.019 225.021 349.754 222.786Z" fill="#3F3F3F"/>
</g>
<path d="M47.6388 268.134C46.7781 268.07 45.9174 268.005 45.1339 267.981C28.259 267.166 11.4613 266.392 -5.49085 265.535C-9.05221 265.312 -12.6492 264.97 -16.2047 264.55C-18.7451 264.279 -19.8195 262.207 -18.9232 259.801C-17.2078 254.949 -13.8305 252.186 -8.61311 252.106C-5.00426 252.056 -1.2767 251.971 2.32622 252.117C20.9344 252.67 39.5425 253.223 58.1862 253.895C60.9285 253.976 63.5936 254.016 66.2824 254.567C73.1796 255.988 75.6311 263.082 71.1141 268.518C69.7311 270.164 68.081 271.566 66.3182 272.808C59.7534 277.242 53.0343 281.592 46.3924 285.984C40.629 289.853 34.83 293.604 29.0665 297.473C28.3068 297.96 27.6597 298.608 27.1196 299.611C27.9862 299.48 28.9715 299.313 29.8381 299.182C45.1104 295.949 60.3827 292.716 75.6906 289.601C80.0296 288.749 84.5169 288.177 88.9567 287.877C97.5218 287.308 102.276 293.451 99.0533 301.475C97.4863 305.312 94.8332 308.763 92.3402 312.102C89.0282 316.593 85.2947 320.757 81.7927 325.047C81.9055 325.207 82.0183 325.367 82.1311 325.527C83.0036 325.2 83.8702 325.069 84.7071 324.623C91.5212 321.021 98.3352 317.418 105.191 313.739C108.699 311.843 112.058 309.667 115.637 308.008C124.066 304.179 130.453 306.919 133.759 315.569C134.774 318.305 135.51 321.191 136.483 324.005C137.386 326.581 138.169 329.193 139.35 331.621C142.894 338.905 148.557 343.545 156.825 345.007C178.353 348.824 200.814 334.821 207.509 313.132C211.242 301.2 211.171 289.313 206.547 277.564C201.306 264.189 193.619 252.585 181.439 244.339C174.714 239.824 167.253 237.602 159.18 237.44C151.381 237.326 144.638 239.872 138.988 245.195C133.859 250.103 133.563 254.723 137.7 260.534C144.621 270.232 158.872 274.814 170.239 267.189C171.758 266.214 173.432 265.322 175.171 264.864C178.531 263.983 181.522 264.896 183.796 267.513C185.992 270.089 186.491 273.046 185.375 276.229C184.989 277.316 184.407 278.397 183.748 279.436C181.398 283.25 179.202 287.146 176.584 290.717C174.293 293.865 171.58 296.687 168.832 299.391C166.731 301.446 165.218 300.931 164.956 297.903C164.547 294.595 164.766 291.228 164.826 287.974C164.814 287.072 165.116 286.139 165.312 284.851C164.214 284.857 163.312 284.87 162.41 284.882C148.218 284.813 136.341 279.518 127.425 268.348C118.581 257.416 118.967 244.679 128.535 234.294C137.741 224.212 149.369 219.615 162.991 220.373C178.572 221.189 191.666 227.736 202.421 239C213.824 250.911 221.795 264.759 225.149 280.902C229.821 304.028 225.719 325.519 208.732 342.666C191.542 360.003 170.649 364.992 147.209 356.96C136.46 353.267 129.29 345.326 124.897 334.997C123.211 331.102 122.238 326.994 120.908 322.993C120.623 322.043 120.499 320.98 120.267 319.561C117.727 320.584 115.703 321.387 113.714 322.308C106.716 325.513 99.7895 328.955 92.7558 332.041C89.2182 333.623 85.4195 334.765 81.6682 335.634C72.9844 337.533 67.9331 332.127 70.8534 323.741C72.5272 318.966 75.4415 314.659 78.0057 310.264C79.5786 307.525 81.4602 304.953 83.5554 301.799C81.9053 301.907 80.7301 301.872 79.626 302.074C66.6508 304.552 53.6756 307.03 40.6648 309.389C34.1594 310.569 27.6539 311.748 21.1188 312.613C18.5606 312.929 15.67 312.569 13.1414 311.905C8.90335 310.72 6.99799 306.31 8.84393 302.324C9.81141 300.156 11.2834 298.16 12.9038 296.443C19.8365 288.922 28.0573 282.89 36.4324 276.941C40.3202 274.154 44.2436 271.485 48.2086 268.74C47.704 268.568 47.6329 268.33 47.6388 268.134Z" fill="#3F3F3F"/>
<g filter="url(#filter2_d_621_759)">
<path d="M148.762 75.2049C151.558 74.8173 154.199 74.3466 156.989 74.1549C161.037 73.8438 165.025 74.1976 168.528 76.3807C170.451 77.6147 172.237 79.4722 173.116 81.538C174.582 84.9158 171.822 88.0111 168.112 87.5086C157.802 86.1431 147.99 87.7343 139.075 93.3925C137.918 94.0642 136.683 94.6943 135.454 95.1285C131.81 96.3539 128.629 93.945 129.293 90.1206C129.543 88.3628 130.54 86.5096 131.644 85.0126C132.748 83.5156 134.279 82.149 135.911 81.3345C138.737 79.9671 139.307 77.9835 138.606 75.2169C137.882 71.9396 137.71 68.561 136.629 65.3908C134.356 58.8901 129.732 54.9086 122.71 55.0137C117.178 55.1239 111.629 55.8219 106.144 56.9533C97.4663 58.6567 88.9309 60.8351 80.3183 62.9719C58.232 68.5132 37.0834 65.0996 16.4096 56.3654C-7.47537 46.202 -26.2676 29.7177 -42.1693 9.71046C-49.9509 -0.0527663 -57.0085 -10.4221 -64.3094 -20.5241C-64.8732 -21.3254 -65.5143 -22.1681 -66.3453 -23.2127C-66.7192 -22.5178 -67.0041 -22.1732 -67.1347 -21.7456C-71.7644 -8.70321 -74.2098 4.71791 -73.0225 18.6C-72.2389 27.6846 -69.277 36.0493 -64.2495 43.534C-62.3738 46.3356 -59.9046 48.9587 -57.097 50.7681C-52.948 53.598 -48.1876 55.6615 -43.5578 58.1527C-42.7566 56.2937 -42.0206 54.0012 -40.8988 51.9163C-39.6107 49.5226 -38.2456 47.1704 -36.5361 45.103C-34.2984 42.4236 -30.7964 42.0178 -28.0541 43.3937C-25.2763 44.8884 -23.7983 47.8743 -24.7658 51.3367C-25.8697 55.4226 -27.2824 59.3425 -28.5823 63.4226C-30.8793 70.6504 -32.007 78.1091 -31.8467 85.763C-31.7754 88.5894 -31.1047 91.0413 -28.8907 93.0292C-27.935 93.8421 -27.2228 94.9224 -26.552 96.0799C-25.0978 98.5551 -25.5667 99.7964 -28.2258 100.855C-33.188 102.865 -40.4294 99.8646 -43.0412 94.1777C-44.4776 91.1146 -45.3502 87.5583 -45.7954 84.1324C-46.3177 80.6649 -46.1338 77.1793 -46.0269 73.6521C-46.021 72.1617 -46.3594 71.6809 -47.7958 71.2067C-56.3015 68.5219 -64.6292 65.1363 -71.384 59.0124C-82.2996 49.1561 -87.3984 36.256 -89.0486 22.1248C-91.6546 -0.586149 -88.2121 -22.3328 -75.9255 -42.2083C-71.8003 -48.9503 -65.7638 -50.183 -59.9291 -44.7533C-57.5251 -42.5637 -55.4061 -40.0294 -53.6847 -37.3109C-48.3248 -29.1495 -43.0421 -21.0296 -38.0798 -12.6838C-28.0426 4.16794 -15.2631 18.5123 0.377314 30.3135C12.9906 39.7888 26.8977 46.6744 42.3125 50.3883C52.4328 52.8465 62.5233 52.4012 72.6672 50.1922C82.2592 48.0844 91.7799 45.7393 101.336 43.5128C108.364 41.9173 115.38 40.7136 122.657 41.2437C135.021 42.1211 144.601 49.4665 148.596 61.2747C150.002 65.3175 150.192 69.4027 149.011 73.4471C148.922 73.7975 148.792 74.2251 148.78 74.617C148.614 74.9259 148.726 75.0861 148.762 75.2049Z" fill="#3F3F3F"/>
</g>
<g filter="url(#filter3_d_621_759)">
<path d="M-54.6505 218.571C-52.2228 216.094 -50.1988 213.997 -48.2163 211.977C-32.4633 196.754 -16.7103 181.532 -0.957364 166.31C-0.310396 165.662 0.532485 165.02 1.3694 164.575C3.04324 163.683 4.56865 163.807 6.02289 164.987C7.43557 166.245 7.73831 167.902 7.06166 169.529C6.39095 170.961 5.60155 172.428 4.5094 173.533C-1.57454 180.217 -7.70005 186.978 -14.0511 193.418C-24.005 203.596 -34.1905 213.649 -44.4115 223.583C-48.7741 227.807 -53.2851 231.753 -57.8377 235.776C-60.1348 237.825 -62.2123 237.803 -63.9811 235.358C-65.3344 233.435 -66.3257 231.208 -66.8837 228.917C-67.5425 226.073 -67.7266 223.086 -68.0293 220.135C-68.6526 214.821 -70.8607 210.048 -73.8523 205.252C-74.6595 206.013 -75.2649 206.583 -75.7932 207.195C-83.9427 216.053 -92.0151 224.953 -100.242 233.77C-102.189 235.909 -104.521 237.84 -106.735 239.735C-107.821 240.645 -109.175 241.31 -110.522 241.78C-112.344 242.393 -114.137 242.026 -115.461 240.418C-116.707 238.851 -116.654 237.087 -115.704 235.507C-114.552 233.737 -113.282 231.931 -111.899 230.285C-102.432 219.348 -92.9234 208.334 -83.379 197.438C-82.0791 195.947 -81.8179 195.091 -83.379 193.554C-96.6808 180.92 -112.232 172.652 -130.419 169.837C-143.18 167.849 -154.428 171.555 -164.365 179.85C-174.942 188.597 -171.404 202.549 -160.963 207.37C-156.517 209.464 -151.947 211.326 -147.341 213.306C-145.899 209.701 -144.617 206.209 -143.103 202.841C-142.011 200.442 -140.764 198.125 -139.209 195.975C-137.322 193.206 -134.004 192.403 -131.416 193.696C-128.709 194.953 -127.231 197.939 -128.389 201.199C-130.335 207.222 -132.674 213.232 -134.971 219.166C-137.138 224.671 -139.304 230.177 -141.779 235.517C-143.251 238.807 -145.186 241.848 -147.08 244.813C-148.682 247.236 -150.861 247.956 -152.796 247.114C-154.849 246.308 -155.959 244.117 -155.205 241.237C-153.692 235.28 -151.947 229.448 -150.237 223.497C-150.012 222.523 -149.668 221.514 -149.365 220.581C-152.992 219.924 -156.47 219.546 -159.895 218.699C-169.273 216.342 -176.853 211.566 -181.127 202.496C-187.24 189.448 -185.24 176.484 -174.847 166.045C-162.43 153.509 -147.128 149.296 -129.92 152.082C-114.351 154.585 -100.474 161.155 -87.9377 170.589C-82.4176 174.754 -77.2239 179.341 -71.6385 183.94C-70.7066 182.948 -69.65 181.724 -68.5163 180.542C-60.7467 172.574 -53.0898 164.447 -45.2074 156.639C-42.8628 154.316 -39.9425 152.403 -37.0341 150.881C-35.479 150.025 -33.0869 150.017 -31.3359 150.462C-28.653 151.208 -27.5371 154.497 -28.9913 157.2C-30.1962 159.439 -31.787 161.471 -33.6032 163.182C-43.8005 172.333 -53.2381 182.29 -62.4085 192.491C-63.1801 193.37 -63.8271 194.018 -62.9249 195.3C-58.3959 202.417 -54.9651 209.54 -54.6505 218.571Z" fill="#3F3F3F"/>
</g>
<g filter="url(#filter4_d_621_759)">
<path d="M142.555 137.783C156.384 112.265 178.471 101.546 205.84 106.714C212.351 107.927 218.922 109.77 225 112.343C230.384 114.543 235.174 118.216 240.219 121.229C240.836 121.561 241.287 122.202 241.822 122.689C251.799 132.439 252.328 144.772 243.068 155.323C237.501 161.787 230.39 166.126 222.211 168.197C213.913 170.304 205.366 171.58 196.996 173.449C190.087 175.009 183.178 176.569 176.412 178.604C171.111 180.133 166.553 183.057 162.445 186.622C160.795 188.025 159.032 189.267 157.347 190.55C153.619 193.224 150.912 193.262 147.517 190.14C139.967 183.091 135.48 174.602 135.604 164.015C135.705 154.211 138.643 145.237 142.555 137.783ZM151.245 177.11C165.864 168.248 181.041 161.678 198.16 160.931C200.516 160.805 202.956 160.525 205.282 160.084C209.936 159.202 214.667 158.362 219.255 157.047C225.665 155.12 231.102 151.672 234.883 145.94C237.964 141.325 237.697 137.198 233.494 133.543C230.894 131.347 227.932 129.455 224.876 128.109C214.927 123.851 204.267 122.397 193.571 123.412C181.498 124.583 171.271 129.536 163.49 139.19C159.168 144.631 155.738 150.452 153.423 156.974C151.227 163.459 150.046 170.092 151.245 177.11Z" fill="#3F3F3F"/>
</g>
<g filter="url(#filter5_d_621_759)">
<path d="M11.6557 138.245C12.1483 138.809 12.2611 138.969 12.4926 139.094C23.8712 145.316 35.0005 152.002 47.2932 156.525C49.7743 157.462 52.2435 158.79 54.4754 160.19C56.7428 161.709 57.5322 164.125 56.8021 166.222C56.0661 168.514 53.9887 169.786 51.1277 169.74C46.308 169.636 42.2955 167.477 38.2059 165.277C29.1006 160.377 19.9123 155.633 10.6824 150.965C7.7086 149.464 4.52709 148.35 1.51179 146.927C0.0041406 146.215 -1.46197 145.426 -2.76188 144.328C-6.47166 141.237 -6.98809 136.279 -3.29023 133.29C6.67559 125.31 17.2825 118.172 29.3733 113.824C32.1096 112.807 35.5107 113.144 38.5141 113.664C49.0855 115.469 58.4638 120.416 67.7115 125.79C75.3803 130.215 83.1322 134.486 90.7655 138.792C91.2284 139.041 91.733 139.213 92.7005 139.634C92.6174 138.494 92.4453 137.705 92.3918 136.879C91.5014 126.144 90.2608 115.32 89.8808 104.561C89.6493 99.2583 90.7948 93.8007 92.0116 88.5805C92.6823 85.8546 94.3323 83.1578 96.202 80.9775C100.262 76.391 106.661 77.4442 108.839 83.1967C110.002 86.2125 110.881 89.5728 110.709 92.6666C109.795 108.604 111 124.488 111.184 140.419C111.273 146.541 110.501 152.598 110.08 158.744C109.973 159.682 109.671 160.615 109.368 161.547C108.02 165.9 105.136 166.638 102.061 163.291C100.239 161.315 99.0992 158.81 97.5975 156.608C96.998 155.688 96.3629 154.649 95.5141 154.192C79.9865 146.435 64.3758 138.832 48.8422 131.27C47.5661 130.683 46.1653 130.327 44.7704 129.776C37.2499 126.924 30.0263 127.22 23.1054 131.76C19.4669 134.084 15.6444 136.01 11.6557 138.245Z" fill="#3F3F3F"/>
</g>
<g filter="url(#filter6_d_621_759)">
<path d="M13.5243 -33.5081C16.9492 -31.3665 20.3325 -29.1478 23.9592 -27.1964C37.4212 -19.8532 51.1265 -12.7775 64.5055 -5.2799C70.9813 -1.59631 77.1662 2.62781 83.2324 6.88762C89.6785 11.551 86.6099 17.0691 82.0217 19.6786C79.9086 20.8318 77.7955 21.985 75.54 22.6633C64.1437 26.0903 52.5752 28.7276 40.5734 28.8417C25.5148 28.904 12.4564 23.7696 3.46381 11.2638C-5.11324 -0.719778 -8.19392 -14.2267 -5.20249 -28.8476C-4.14006 -34.1508 -0.911109 -37.1929 3.44563 -37.338C4.8583 -37.3744 6.37188 -36.8588 7.76675 -36.3074C9.70177 -35.4653 11.5893 -34.3501 13.4412 -33.3537C13.4412 -33.3537 13.4828 -33.4309 13.5243 -33.5081ZM65.4731 10.6747C64.6659 10.1408 64.3988 9.89746 64.013 9.68986C55.1511 4.52321 46.1229 -0.334578 37.4272 -5.8101C28.0014 -11.778 18.8665 -18.2865 9.48818 -24.5276C8.02801 -25.5124 6.40165 -26.1884 4.47257 -27.2263C5.31549 -18.8069 6.76978 -11.1538 10.438 -4.10174C14.5159 3.66855 20.7958 8.64078 28.8207 11.6643C41.0363 16.1461 52.9906 13.7164 65.4731 10.6747Z" fill="#3F3F3F"/>
</g>
<g filter="url(#filter7_d_621_759)">
<path d="M316.503 169.744C315.654 170.581 313.951 172.453 312.063 173.927C307.362 177.67 302.507 181.331 297.652 184.992C293.319 188.236 291.841 187.839 287.187 184.837C283.032 182.203 278.504 180.264 274.016 178.248C270.496 176.653 266.727 175.521 263.172 173.807C261.587 173.054 260.062 171.636 259.13 170.039C257.895 168.08 258.952 165.562 261.047 163.702C266.686 158.77 272.36 153.957 277.999 149.025C280.937 146.524 284.089 146.029 287.525 147.779C295.479 151.859 303.51 155.981 311.464 160.062C312.004 160.353 312.627 160.489 313.25 160.625C317.655 161.501 319.24 164.843 316.503 169.744ZM270.674 168.185C276.77 171.466 282.249 174.413 287.846 177.326C288.309 177.575 289.342 177.135 289.746 176.754C293.046 173.95 296.31 171.026 299.575 168.103C300.501 167.307 301.427 166.511 302.471 165.679C296.423 163.42 290.689 161.131 285.027 159.08C284.445 158.867 283.578 158.998 283.02 159.295C279.014 162.118 275.043 165.06 270.674 168.185Z" fill="#3F3F3F"/>
</g>
<path d="M249.134 213.951C244.522 222.522 232.912 226.531 224.21 222.546C217.521 219.445 214.873 212.345 217.242 205.354C221.028 194.248 230.953 191.523 238.681 192.694C249.258 194.303 254.203 204.531 249.134 213.951ZM237.429 205.562C236.568 205.497 235.167 205.142 233.826 205.416C232.17 205.719 230.502 206.415 229.024 207.313C228.145 207.836 226.976 208.899 227.071 209.647C227.083 210.55 228.145 211.719 229.113 212.14C232.092 213.445 236.847 211.821 238.693 209.13C239.399 207.817 239.393 206.719 237.429 205.562Z" fill="#3F3F3F"/>
<g filter="url(#filter9_d_621_759)">
<path d="M444.249 186.603C444.202 186.876 444.237 186.994 444.196 187.072C433.999 194.928 422.881 199.5 409.835 195.269C397.061 191.084 392.36 175.411 396.384 164.233C396.723 163.42 396.984 162.564 397.447 161.519C401.073 163.47 404.587 165.262 407.977 167.284C408.362 167.492 408.446 168.632 408.428 169.22C408.38 172.082 407.739 175.123 408.244 177.883C409.045 182.497 411.58 184.259 416.198 184.553C420.934 184.811 425.143 183.093 429.167 180.976C430.959 180.049 432.253 180.048 433.909 181.039C437.263 182.943 440.854 184.776 444.249 186.603Z" fill="#3F3F3F"/>
</g>
<g filter="url(#filter10_d_621_759)">
<path d="M16.239 89.2322C14.0073 93.0101 10.4103 96.5512 5.34128 98.2049C-2.42248 100.798 -9.88951 96.1832 -10.5425 87.9655C-10.7621 84.8602 -10.0321 81.4692 -8.92214 78.4817C-7.38485 74.3302 -4.03718 71.2524 -0.315571 68.7741C7.64404 63.5975 17.1589 67.9205 18.6785 77.3015C19.3017 81.3211 18.5242 84.9853 16.239 89.2322ZM6.7182 79.9272C3.47142 79.6738 0.883513 82.2643 0.657989 85.8272C0.527419 87.5493 1.29905 87.9644 2.80669 87.3816C5.15125 86.353 6.89629 83.1098 6.7182 79.9272Z" fill="#3F3F3F"/>
</g>
<g filter="url(#filter11_d_621_759)">
<path d="M272.989 126.714C271.796 125.972 270.484 125.267 269.374 124.371C267.463 122.745 266.988 120.299 267.95 118.327C268.953 116.277 271.303 115.053 273.719 115.556C275.043 115.87 276.283 116.338 277.559 116.926C288.422 122.073 299.284 127.221 310.146 132.368C311.962 133.246 313.814 134.243 315.541 135.471C318.076 137.233 318.664 139.839 317.221 142.15C315.862 144.306 313.452 144.901 310.704 143.721C302.311 139.902 294.001 135.929 285.608 132.11C281.471 130.183 277.286 128.528 273.108 126.678C273.031 126.637 272.989 126.714 272.989 126.714Z" fill="#3F3F3F"/>
</g>
<g filter="url(#filter12_d_621_759)">
<path d="M124.931 203.079C122.812 207.017 120.556 208.99 117.654 210.316C115.825 211.125 114.466 210.692 113.653 209.06C112.763 207.386 111.837 205.593 111.54 203.741C110.727 199.519 110.032 195.262 109.729 191.017C109.433 186.575 112.086 183.124 115.956 182.219C119.784 181.391 123.642 183.467 125.364 187.48C127.78 193.161 126.866 198.744 124.931 203.079Z" fill="#3F3F3F"/>
</g>
<g filter="url(#filter13_d_621_759)">
<path d="M193.696 84.3468C196.741 80.9069 199.382 77.8473 202.178 74.8708C203.596 73.3439 205.858 73.7641 207.098 75.527C209.093 78.2928 211.087 81.0587 212.963 83.8603C213.301 84.3411 213.675 84.9406 213.853 85.5343C214.536 87.5943 213.592 88.9784 211.396 88.9916C206.731 88.9706 201.982 89.1041 197.323 88.8871C196.147 88.8522 194.64 88.1405 193.921 87.2562C193.393 86.5737 193.749 85.1721 193.696 84.3468Z" fill="#3F3F3F"/>
</g>
<g filter="url(#filter14_d_621_759)">
<path d="M76.2456 96.4289C77.3734 98.0315 78.4003 99.0819 78.9108 100.352C80.2463 104.158 81.3029 108.112 82.401 111.989C82.6859 112.938 82.6919 114.037 82.4663 115.011C81.8609 118.17 78.7684 119.294 76.6019 117.033C72.7616 113.075 69.9599 108.481 68.9508 102.959C68.5116 100.632 69.0517 98.3333 71.2835 97.1444C72.6724 96.5973 74.5124 96.6912 76.2456 96.4289Z" fill="#3F3F3F"/>
</g>
<g filter="url(#filter15_d_621_759)">
<path d="M329.895 153.549C327.117 152.055 326.161 148.653 327.692 145.992C329.224 143.331 332.625 142.373 335.361 143.945C337.943 145.433 338.941 148.758 337.528 151.383C335.997 154.045 332.595 155.003 329.895 153.549Z" fill="#3F3F3F"/>
</g>
</g>
<defs>
<filter id="filter0_d_621_759" x="273.217" y="171.357" width="252.99" height="205.371" filterUnits="userSpaceOnUse" color-interpolation-filters="sRGB">
<feFlood flood-opacity="0" result="BackgroundImageFix"/>
<feColorMatrix in="SourceAlpha" type="matrix" values="0 0 0 0 0 0 0 0 0 0 0 0 0 0 0 0 0 0 127 0" result="hardAlpha"/>
<feOffset dy="2"/>
<feGaussianBlur stdDeviation="1"/>
<feComposite in2="hardAlpha" operator="out"/>
<feColorMatrix type="matrix" values="0 0 0 0 0 0 0 0 0 0 0 0 0 0 0 0 0 0 0.25 0"/>
<feBlend mode="normal" in2="BackgroundImageFix" result="effect1_dropShadow_621_759"/>
<feBlend mode="normal" in="SourceGraphic" in2="effect1_dropShadow_621_759" result="shape"/>
</filter>
<filter id="filter2_d_621_759" x="-91.8647" y="-48.1545" width="267.381" height="153.635" filterUnits="userSpaceOnUse" color-interpolation-filters="sRGB">
<feFlood flood-opacity="0" result="BackgroundImageFix"/>
<feColorMatrix in="SourceAlpha" type="matrix" values="0 0 0 0 0 0 0 0 0 0 0 0 0 0 0 0 0 0 127 0" result="hardAlpha"/>
<feOffset dy="2"/>
<feGaussianBlur stdDeviation="1"/>
<feComposite in2="hardAlpha" operator="out"/>
<feColorMatrix type="matrix" values="0 0 0 0 0 0 0 0 0 0 0 0 0 0 0 0 0 0 0.25 0"/>
<feBlend mode="normal" in2="BackgroundImageFix" result="effect1_dropShadow_621_759"/>
<feBlend mode="normal" in="SourceGraphic" in2="effect1_dropShadow_621_759" result="shape"/>
</filter>
<filter id="filter3_d_621_759" x="-186.567" y="150.17" width="195.974" height="101.281" filterUnits="userSpaceOnUse" color-interpolation-filters="sRGB">
<feFlood flood-opacity="0" result="BackgroundImageFix"/>
<feColorMatrix in="SourceAlpha" type="matrix" values="0 0 0 0 0 0 0 0 0 0 0 0 0 0 0 0 0 0 127 0" result="hardAlpha"/>
<feOffset dy="2"/>
<feGaussianBlur stdDeviation="1"/>
<feComposite in2="hardAlpha" operator="out"/>
<feColorMatrix type="matrix" values="0 0 0 0 0 0 0 0 0 0 0 0 0 0 0 0 0 0 0.25 0"/>
<feBlend mode="normal" in2="BackgroundImageFix" result="effect1_dropShadow_621_759"/>
<feBlend mode="normal" in="SourceGraphic" in2="effect1_dropShadow_621_759" result="shape"/>
</filter>
<filter id="filter4_d_621_759" x="133.602" y="105.448" width="118.073" height="91.0723" filterUnits="userSpaceOnUse" color-interpolation-filters="sRGB">
<feFlood flood-opacity="0" result="BackgroundImageFix"/>
<feColorMatrix in="SourceAlpha" type="matrix" values="0 0 0 0 0 0 0 0 0 0 0 0 0 0 0 0 0 0 127 0" result="hardAlpha"/>
<feOffset dy="2"/>
<feGaussianBlur stdDeviation="1"/>
<feComposite in2="hardAlpha" operator="out"/>
<feColorMatrix type="matrix" values="0 0 0 0 0 0 0 0 0 0 0 0 0 0 0 0 0 0 0.25 0"/>
<feBlend mode="normal" in2="BackgroundImageFix" result="effect1_dropShadow_621_759"/>
<feBlend mode="normal" in="SourceGraphic" in2="effect1_dropShadow_621_759" result="shape"/>
</filter>
<filter id="filter5_d_621_759" x="-7.81787" y="78.1133" width="121.009" height="95.6282" filterUnits="userSpaceOnUse" color-interpolation-filters="sRGB">
<feFlood flood-opacity="0" result="BackgroundImageFix"/>
<feColorMatrix in="SourceAlpha" type="matrix" values="0 0 0 0 0 0 0 0 0 0 0 0 0 0 0 0 0 0 127 0" result="hardAlpha"/>
<feOffset dy="2"/>
<feGaussianBlur stdDeviation="1"/>
<feComposite in2="hardAlpha" operator="out"/>
<feColorMatrix type="matrix" values="0 0 0 0 0 0 0 0 0 0 0 0 0 0 0 0 0 0 0.25 0"/>
<feBlend mode="normal" in2="BackgroundImageFix" result="effect1_dropShadow_621_759"/>
<feBlend mode="normal" in="SourceGraphic" in2="effect1_dropShadow_621_759" result="shape"/>
</filter>
<filter id="filter6_d_621_759" x="-8.31641" y="-37.3398" width="97.2305" height="70.1821" filterUnits="userSpaceOnUse" color-interpolation-filters="sRGB">
<feFlood flood-opacity="0" result="BackgroundImageFix"/>
<feColorMatrix in="SourceAlpha" type="matrix" values="0 0 0 0 0 0 0 0 0 0 0 0 0 0 0 0 0 0 127 0" result="hardAlpha"/>
<feOffset dy="2"/>
<feGaussianBlur stdDeviation="1"/>
<feComposite in2="hardAlpha" operator="out"/>
<feColorMatrix type="matrix" values="0 0 0 0 0 0 0 0 0 0 0 0 0 0 0 0 0 0 0.25 0"/>
<feBlend mode="normal" in2="BackgroundImageFix" result="effect1_dropShadow_621_759"/>
<feBlend mode="normal" in="SourceGraphic" in2="effect1_dropShadow_621_759" result="shape"/>
</filter>
<filter id="filter7_d_621_759" x="256.603" y="146.741" width="63.252" height="44.5203" filterUnits="userSpaceOnUse" color-interpolation-filters="sRGB">
<feFlood flood-opacity="0" result="BackgroundImageFix"/>
<feColorMatrix in="SourceAlpha" type="matrix" values="0 0 0 0 0 0 0 0 0 0 0 0 0 0 0 0 0 0 127 0" result="hardAlpha"/>
<feOffset dy="2"/>
<feGaussianBlur stdDeviation="1"/>
<feComposite in2="hardAlpha" operator="out"/>
<feColorMatrix type="matrix" values="0 0 0 0 0 0 0 0 0 0 0 0 0 0 0 0 0 0 0.25 0"/>
<feBlend mode="normal" in2="BackgroundImageFix" result="effect1_dropShadow_621_759"/>
<feBlend mode="normal" in="SourceGraphic" in2="effect1_dropShadow_621_759" result="shape"/>
</filter>
<filter id="filter9_d_621_759" x="392.984" y="161.519" width="53.2651" height="39.3621" filterUnits="userSpaceOnUse" color-interpolation-filters="sRGB">
<feFlood flood-opacity="0" result="BackgroundImageFix"/>
<feColorMatrix in="SourceAlpha" type="matrix" values="0 0 0 0 0 0 0 0 0 0 0 0 0 0 0 0 0 0 127 0" result="hardAlpha"/>
<feOffset dy="2"/>
<feGaussianBlur stdDeviation="1"/>
<feComposite in2="hardAlpha" operator="out"/>
<feColorMatrix type="matrix" values="0 0 0 0 0 0 0 0 0 0 0 0 0 0 0 0 0 0 0.25 0"/>
<feBlend mode="normal" in2="BackgroundImageFix" result="effect1_dropShadow_621_759"/>
<feBlend mode="normal" in="SourceGraphic" in2="effect1_dropShadow_621_759" result="shape"/>
</filter>
<filter id="filter10_d_621_759" x="-12.5815" y="66.5588" width="33.4668" height="36.3684" filterUnits="userSpaceOnUse" color-interpolation-filters="sRGB">
<feFlood flood-opacity="0" result="BackgroundImageFix"/>
<feColorMatrix in="SourceAlpha" type="matrix" values="0 0 0 0 0 0 0 0 0 0 0 0 0 0 0 0 0 0 127 0" result="hardAlpha"/>
<feOffset dy="2"/>
<feGaussianBlur stdDeviation="1"/>
<feComposite in2="hardAlpha" operator="out"/>
<feColorMatrix type="matrix" values="0 0 0 0 0 0 0 0 0 0 0 0 0 0 0 0 0 0 0.25 0"/>
<feBlend mode="normal" in2="BackgroundImageFix" result="effect1_dropShadow_621_759"/>
<feBlend mode="normal" in="SourceGraphic" in2="effect1_dropShadow_621_759" result="shape"/>
</filter>
<filter id="filter11_d_621_759" x="265.467" y="115.443" width="54.5269" height="32.8745" filterUnits="userSpaceOnUse" color-interpolation-filters="sRGB">
<feFlood flood-opacity="0" result="BackgroundImageFix"/>
<feColorMatrix in="SourceAlpha" type="matrix" values="0 0 0 0 0 0 0 0 0 0 0 0 0 0 0 0 0 0 127 0" result="hardAlpha"/>
<feOffset dy="2"/>
<feGaussianBlur stdDeviation="1"/>
<feComposite in2="hardAlpha" operator="out"/>
<feColorMatrix type="matrix" values="0 0 0 0 0 0 0 0 0 0 0 0 0 0 0 0 0 0 0.25 0"/>
<feBlend mode="normal" in2="BackgroundImageFix" result="effect1_dropShadow_621_759"/>
<feBlend mode="normal" in="SourceGraphic" in2="effect1_dropShadow_621_759" result="shape"/>
</filter>
<filter id="filter12_d_621_759" x="107.707" y="182.039" width="21.1099" height="32.6736" filterUnits="userSpaceOnUse" color-interpolation-filters="sRGB">
<feFlood flood-opacity="0" result="BackgroundImageFix"/>
<feColorMatrix in="SourceAlpha" type="matrix" values="0 0 0 0 0 0 0 0 0 0 0 0 0 0 0 0 0 0 127 0" result="hardAlpha"/>
<feOffset dy="2"/>
<feGaussianBlur stdDeviation="1"/>
<feComposite in2="hardAlpha" operator="out"/>
<feColorMatrix type="matrix" values="0 0 0 0 0 0 0 0 0 0 0 0 0 0 0 0 0 0 0.25 0"/>
<feBlend mode="normal" in2="BackgroundImageFix" result="effect1_dropShadow_621_759"/>
<feBlend mode="normal" in="SourceGraphic" in2="effect1_dropShadow_621_759" result="shape"/>
</filter>
<filter id="filter13_d_621_759" x="191.627" y="73.9326" width="24.4443" height="19.0806" filterUnits="userSpaceOnUse" color-interpolation-filters="sRGB">
<feFlood flood-opacity="0" result="BackgroundImageFix"/>
<feColorMatrix in="SourceAlpha" type="matrix" values="0 0 0 0 0 0 0 0 0 0 0 0 0 0 0 0 0 0 127 0" result="hardAlpha"/>
<feOffset dy="2"/>
<feGaussianBlur stdDeviation="1"/>
<feComposite in2="hardAlpha" operator="out"/>
<feColorMatrix type="matrix" values="0 0 0 0 0 0 0 0 0 0 0 0 0 0 0 0 0 0 0.25 0"/>
<feBlend mode="normal" in2="BackgroundImageFix" result="effect1_dropShadow_621_759"/>
<feBlend mode="normal" in="SourceGraphic" in2="effect1_dropShadow_621_759" result="shape"/>
</filter>
<filter id="filter14_d_621_759" x="66.8101" y="96.429" width="17.8159" height="25.793" filterUnits="userSpaceOnUse" color-interpolation-filters="sRGB">
<feFlood flood-opacity="0" result="BackgroundImageFix"/>
<feColorMatrix in="SourceAlpha" type="matrix" values="0 0 0 0 0 0 0 0 0 0 0 0 0 0 0 0 0 0 127 0" result="hardAlpha"/>
<feOffset dy="2"/>
<feGaussianBlur stdDeviation="1"/>
<feComposite in2="hardAlpha" operator="out"/>
<feColorMatrix type="matrix" values="0 0 0 0 0 0 0 0 0 0 0 0 0 0 0 0 0 0 0.25 0"/>
<feBlend mode="normal" in2="BackgroundImageFix" result="effect1_dropShadow_621_759"/>
<feBlend mode="normal" in="SourceGraphic" in2="effect1_dropShadow_621_759" result="shape"/>
</filter>
<filter id="filter15_d_621_759" x="324.964" y="143.185" width="15.207" height="15.042" filterUnits="userSpaceOnUse" color-interpolation-filters="sRGB">
<feFlood flood-opacity="0" result="BackgroundImageFix"/>
<feColorMatrix in="SourceAlpha" type="matrix" values="0 0 0 0 0 0 0 0 0 0 0 0 0 0 0 0 0 0 127 0" result="hardAlpha"/>
<feOffset dy="2"/>
<feGaussianBlur stdDeviation="1"/>
<feComposite in2="hardAlpha" operator="out"/>
<feColorMatrix type="matrix" values="0 0 0 0 0 0 0 0 0 0 0 0 0 0 0 0 0 0 0.25 0"/>
<feBlend mode="normal" in2="BackgroundImageFix" result="effect1_dropShadow_621_759"/>
<feBlend mode="normal" in="SourceGraphic" in2="effect1_dropShadow_621_759" result="shape"/>
</filter>
<clipPath id="clip0_621_759">
<rect width="1127.55" height="784" fill="white" transform="translate(-326.725 -228.337) rotate(28.2835)"/>
</clipPath>
</defs>
</svg>
