<svg width={33} height={36} viewBox="0 0 33 36" fill="none" xmlns="http://www.w3.org/2000/svg">
                                        <path d="M14.2495 0.5C17.6489 0.500222 20.9323 1.73704 23.487 3.97976C26.0417 6.22248 27.6934 9.31794 28.134 12.6888L32.0715 18.882C32.3305 19.2897 32.278 19.897 31.6777 20.156L28.2495 21.6225V26.75C28.2495 27.6783 27.8807 28.5685 27.2243 29.2249C26.568 29.8813 25.6777 30.25 24.7495 30.25H21.2512L21.2495 35.5H5.49946V29.0355C5.49946 26.9705 4.73646 25.0158 3.32071 23.2518C1.67169 21.1928 0.637923 18.7099 0.338522 16.089C0.0391211 13.4681 0.486268 10.816 1.62844 8.4382C2.77062 6.06039 4.56135 4.05365 6.79429 2.6492C9.02724 1.24475 11.6116 0.499735 14.2495 0.5ZM13.322 10.5852C12.7445 10.0273 11.9709 9.71843 11.168 9.72525C10.365 9.73206 9.59681 10.054 9.02888 10.6217C8.46095 11.1894 8.13872 11.9574 8.13158 12.7604C8.12444 13.5634 8.43297 14.337 8.99071 14.9148L14.2495 20.1753L19.5082 14.9148C19.8007 14.6322 20.0339 14.2942 20.1943 13.9205C20.3547 13.5469 20.4391 13.145 20.4426 12.7384C20.446 12.3317 20.3685 11.9285 20.2144 11.5521C20.0604 11.1758 19.8329 10.8339 19.5453 10.5464C19.2577 10.2589 18.9157 10.0316 18.5393 9.87768C18.1629 9.72377 17.7596 9.64637 17.353 9.64998C16.9463 9.6536 16.5445 9.73816 16.1709 9.89874C15.7973 10.0593 15.4594 10.2927 15.177 10.5852L14.2495 11.5128L13.322 10.5852Z" fill="url(#paint0_linear_690_562)" />
                                        <defs>
                                        <linearGradient id="paint0_linear_690_562" x1="16.2336" y1="2.16667" x2="16.2336" y2="35.5" gradientUnits="userSpaceOnUse">
                                            <stop stopColor="#38CDCE" />
                                            <stop offset={1} stopColor="#41EBC0" />
                                        </linearGradient>
                                        </defs>
                                    </svg>