<svg width={41} height={34} viewBox="0 0 41 34" fill="none" xmlns="http://www.w3.org/2000/svg">
                                        <path d="M10.4994 0C11.6134 0 12.6816 0.442499 13.4693 1.23015C14.2569 2.0178 14.6994 3.08609 14.6994 4.2C14.6994 5.31391 14.2569 6.3822 13.4693 7.16985C12.6816 7.9575 11.6134 8.4 10.4994 8.4C9.38554 8.4 8.31725 7.9575 7.5296 7.16985C6.74194 6.3822 6.29945 5.31391 6.29945 4.2C6.29945 3.08609 6.74194 2.0178 7.5296 1.23015C8.31725 0.442499 9.38554 0 10.4994 0ZM5.77445 31.5V26.25H4.60632C3.89101 26.25 3.3857 25.5478 3.60882 24.8653L5.64976 18.7359L3.77288 21.2166C3.0707 22.1419 1.75163 22.3191 0.832883 21.6234C-0.0858671 20.9278 -0.269617 19.6087 0.426008 18.6834L4.29132 13.5844C5.76132 11.6419 8.06476 10.5 10.4994 10.5C12.9341 10.5 15.2376 11.6419 16.7076 13.5844L20.5729 18.6834C21.2751 19.6087 21.0913 20.9278 20.166 21.6234C19.2407 22.3191 17.9216 22.1419 17.226 21.2166L15.3491 18.7359L17.3901 24.8653C17.6198 25.5478 17.1079 26.25 16.3926 26.25H15.2244V31.5C15.2244 32.6616 14.286 33.6 13.1244 33.6C11.9629 33.6 11.0244 32.6616 11.0244 31.5V26.25H9.97444V31.5C9.97444 32.6616 9.03601 33.6 7.87445 33.6C6.71288 33.6 5.77445 32.6616 5.77445 31.5ZM31.4994 0C32.6134 0 33.6816 0.442499 34.4693 1.23015C35.2569 2.0178 35.6994 3.08609 35.6994 4.2C35.6994 5.31391 35.2569 6.3822 34.4693 7.16985C33.6816 7.9575 32.6134 8.4 31.4994 8.4C30.3855 8.4 29.3172 7.9575 28.5296 7.16985C27.7419 6.3822 27.2994 5.31391 27.2994 4.2C27.2994 3.08609 27.7419 2.0178 28.5296 1.23015C29.3172 0.442499 30.3855 0 31.4994 0ZM30.9744 25.2V31.5C30.9744 32.6616 30.036 33.6 28.8744 33.6C27.7129 33.6 26.7744 32.6616 26.7744 31.5V19.7203L25.9279 21.0656C25.311 22.05 24.0116 22.3387 23.0338 21.7219C22.056 21.105 21.7607 19.8056 22.3776 18.8278L25.7704 13.44C26.9254 11.6091 28.9401 10.4934 31.0991 10.4934H31.9063C34.0719 10.4934 36.0866 11.6025 37.2351 13.44L40.6279 18.8344C41.2448 19.8187 40.9494 21.1116 39.9716 21.7284C38.9938 22.3453 37.6944 22.05 37.0776 21.0722L36.2244 19.7203V31.5C36.2244 32.6616 35.286 33.6 34.1244 33.6C32.9629 33.6 32.0244 32.6616 32.0244 31.5V25.2H30.9744Z" fill="url(#paint0_linear_690_572)" />
                                        <defs>
                                        <linearGradient id="paint0_linear_690_572" x1="20.4771" y1={0} x2="20.4771" y2="33.6" gradientUnits="userSpaceOnUse">
                                            <stop stopColor="#FB791B" />
                                            <stop offset="0.848958" stopColor="#FC4F46" />
                                        </linearGradient>
                                        </defs>
                                    </svg>