<svg width={36} height={34} viewBox="0 0 36 34" fill="none" xmlns="http://www.w3.org/2000/svg">
<path d="M14.6673 6.99969C13.7506 6.99969 12.9662 6.67357 12.314 6.02135C11.6617 5.36913 11.3351 4.58413 11.334 3.66635C11.3329 2.74857 11.6595 1.96413 12.314 1.31302C12.9684 0.661908 13.7529 0.335241 14.6673 0.333019C15.5817 0.330797 16.3667 0.657464 17.0223 1.31302C17.6779 1.96857 18.004 2.75302 18.0006 3.66635C17.9973 4.57969 17.6712 5.36469 17.0223 6.02135C16.3734 6.67802 15.5884 7.00413 14.6673 6.99969ZM25.5006 26.9997C26.6673 26.9997 27.6534 26.5969 28.459 25.7914C29.2645 24.9858 29.6673 23.9997 29.6673 22.833C29.6673 21.6664 29.2645 20.6802 28.459 19.8747C27.6534 19.0691 26.6673 18.6664 25.5006 18.6664C24.334 18.6664 23.3479 19.0691 22.5423 19.8747C21.7367 20.6802 21.334 21.6664 21.334 22.833C21.334 23.9997 21.7367 24.9858 22.5423 25.7914C23.3479 26.5969 24.334 26.9997 25.5006 26.9997ZM29.5006 29.1664C28.8895 29.5552 28.2506 29.8469 27.584 30.0414C26.9173 30.2358 26.2229 30.333 25.5006 30.333C23.4173 30.333 21.6467 29.6041 20.189 28.1464C18.7312 26.6886 18.0017 24.9175 18.0006 22.833C17.9995 20.7486 18.729 18.978 20.189 17.5214C21.649 16.0647 23.4195 15.3352 25.5006 15.333C27.5817 15.3308 29.3529 16.0602 30.814 17.5214C32.2751 18.9825 33.004 20.753 33.0006 22.833C33.0006 23.5552 32.9034 24.2497 32.709 24.9164C32.5145 25.583 32.2229 26.2219 31.834 26.833L35.1673 30.1664C35.4729 30.4719 35.6256 30.8608 35.6256 31.333C35.6256 31.8052 35.4729 32.1941 35.1673 32.4997C34.8617 32.8052 34.4729 32.958 34.0006 32.958C33.5284 32.958 33.1395 32.8052 32.834 32.4997L29.5006 29.1664ZM16.334 28.6247C16.7506 29.2914 17.2434 29.9025 17.8123 30.458C18.3812 31.0136 18.9995 31.5136 19.6673 31.958V31.9997C19.6673 32.4719 19.5073 32.868 19.1873 33.188C18.8673 33.508 18.4717 33.6675 18.0006 33.6664C17.5295 33.6652 17.134 33.5052 16.814 33.1864C16.494 32.8675 16.334 32.4719 16.334 31.9997V28.6247ZM13.0006 23.6664V31.9997C13.0006 32.4719 12.8406 32.868 12.5206 33.188C12.2006 33.508 11.8051 33.6675 11.334 33.6664C10.8629 33.6652 10.4673 33.5052 10.1473 33.1864C9.8273 32.8675 9.6673 32.4719 9.6673 31.9997V11.9997C8.27841 11.8886 6.90341 11.7358 5.5423 11.5414C4.18119 11.3469 2.82008 11.0969 1.45897 10.7914C0.986746 10.6802 0.60508 10.4164 0.313968 9.99969C0.0228574 9.58302 -0.0538093 9.13857 0.0839684 8.66635C0.221746 8.19413 0.506746 7.84691 0.938968 7.62469C1.37119 7.40246 1.8223 7.34691 2.2923 7.45802C4.32008 7.93024 6.36897 8.24969 8.43897 8.41635C10.509 8.58302 12.5851 8.66635 14.6673 8.66635C16.7495 8.66635 18.8262 8.58302 20.8973 8.41635C22.9684 8.24969 25.0167 7.93024 27.0423 7.45802C27.5145 7.34691 27.9662 7.40246 28.3973 7.62469C28.8284 7.84691 29.1129 8.19413 29.2506 8.66635C29.3884 9.13857 29.3123 9.58302 29.0223 9.99969C28.7323 10.4164 28.3501 10.6802 27.8756 10.7914C26.5145 11.0969 25.1534 11.3469 23.7923 11.5414C22.4312 11.7358 21.0562 11.8886 19.6673 11.9997V13.708C18.1673 14.6802 16.959 15.9652 16.0423 17.563C15.1256 19.1608 14.6673 20.9175 14.6673 22.833V23.2497C14.6673 23.3886 14.6812 23.5275 14.709 23.6664H13.0006Z" fill="url(#paint0_linear_690_557)" />
<defs>
<linearGradient id="paint0_linear_690_557" x1="12.1415" y1="-0.320587" x2="25.9055" y2="32.4169" gradientUnits="userSpaceOnUse">
<stop stopColor="#8A4FF3" />
<stop offset={1} stopColor="#9E7DDA" />
</linearGradient>
</defs>
</svg>