<svg width={32} height={42} viewBox="0 0 32 42" fill="none" xmlns="http://www.w3.org/2000/svg">
                                        <path fillRule="evenodd" clipRule="evenodd" d="M9.05592 7.26629C9.05592 5.42436 9.78762 3.65787 11.0901 2.35543C12.3925 1.05299 14.159 0.321289 16.0009 0.321289C17.8428 0.321289 19.6093 1.05299 20.9118 2.35543C22.2142 3.65787 22.9459 5.42436 22.9459 7.26629C22.9459 9.10822 22.2142 10.8747 20.9118 12.1771C19.6093 13.4796 17.8428 14.2113 16.0009 14.2113C14.159 14.2113 12.3925 13.4796 11.0901 12.1771C9.78762 10.8747 9.05592 9.10822 9.05592 7.26629ZM2.33892 18.6423C3.75266 17.3002 5.62761 16.552 7.57692 16.552C9.52623 16.552 11.4012 17.3002 12.8149 18.6423L12.8449 18.6723L16.0009 21.8283L19.1599 18.6723L19.1899 18.6423C20.6033 17.302 22.477 16.5548 24.4249 16.5548C26.3728 16.5548 28.2465 17.302 29.6599 18.6423C30.362 19.3081 30.9213 20.1098 31.3037 20.9986C31.6862 21.8874 31.8839 22.8448 31.8847 23.8124C31.8856 24.78 31.6896 25.7376 31.3086 26.6271C30.9277 27.5165 30.3698 28.3192 29.6689 28.9863L17.0449 41.2563C16.7649 41.5284 16.3899 41.6807 15.9994 41.6807C15.609 41.6807 15.2339 41.5284 14.9539 41.2563L2.33292 28.9863C1.63228 28.3195 1.07457 27.5171 0.693662 26.6281C0.312759 25.739 0.116627 24.7817 0.117189 23.8145C0.11775 22.8473 0.314992 21.8902 0.696927 21.0016C1.07886 20.113 1.63751 19.3083 2.33892 18.6423Z" fill="url(#paint0_linear_690_589)" />
                                        <defs>
                                        <linearGradient id="paint0_linear_690_589" x1="10.9334" y1="-0.489679" x2="31.7623" y2="35.1313" gradientUnits="userSpaceOnUse">
                                            <stop stopColor="#8A4FF3" />
                                            <stop offset={1} stopColor="#9E7DDA" />
                                        </linearGradient>
                                        </defs>
                                    </svg>