<svg width={36} height={26} viewBox="0 0 36 26" fill="none" xmlns="http://www.w3.org/2000/svg">
                                        <path d="M5.61875 25.3816C4.04375 23.8066 2.79717 21.9546 1.879 19.8254C0.960836 17.6962 0.501169 15.4212 0.500002 13.0004C0.498836 10.5796 0.958502 8.30456 1.879 6.17539C2.7995 4.04622 4.04609 2.19414 5.61875 0.619141L7.5 2.50039C6.12917 3.87122 5.05759 5.44622 4.28525 7.22539C3.51292 9.00456 3.12617 10.9296 3.125 13.0004C3.12384 15.0712 3.51059 16.9962 4.28525 18.7754C5.05992 20.5546 6.1315 22.1296 7.5 23.5004L5.61875 25.3816ZM9.3375 21.6629C8.22917 20.5546 7.35417 19.2566 6.7125 17.7691C6.07084 16.2816 5.75 14.6921 5.75 13.0004C5.75 11.3087 6.07084 9.71914 6.7125 8.23164C7.35417 6.74414 8.22917 5.44622 9.3375 4.33789L11.175 6.17539C10.3 7.05039 9.61459 8.07122 9.11875 9.23789C8.62292 10.4046 8.375 11.6587 8.375 13.0004C8.375 14.3421 8.62292 15.5962 9.11875 16.7629C9.61459 17.9296 10.3 18.9504 11.175 19.8254L9.3375 21.6629ZM16.25 20.8754C16.25 20.2046 16.0243 19.5413 15.5728 18.8856C15.1213 18.23 14.6178 17.5446 14.0625 16.8294C13.5072 16.1142 13.0043 15.3699 12.554 14.5964C12.1037 13.8229 11.8773 12.9992 11.875 12.1254C11.875 10.4337 12.4729 8.98997 13.6688 7.79414C14.8646 6.59831 16.3083 6.00039 18 6.00039C19.6917 6.00039 21.1354 6.59831 22.3313 7.79414C23.5271 8.98997 24.125 10.4337 24.125 12.1254C24.125 13.0004 23.8993 13.8246 23.4478 14.5981C22.9963 15.3716 22.4928 16.1148 21.9375 16.8276C21.3822 17.5405 20.8793 18.2265 20.429 18.8856C19.9787 19.5448 19.7523 20.2081 19.75 20.8754H16.25ZM16.25 25.2504V22.6254H19.75V25.2504H16.25ZM26.6625 21.6629L24.825 19.8254C25.7 18.9504 26.3854 17.9296 26.8813 16.7629C27.3771 15.5962 27.625 14.3421 27.625 13.0004C27.625 11.6587 27.3771 10.4046 26.8813 9.23789C26.3854 8.07122 25.7 7.05039 24.825 6.17539L26.6625 4.33789C27.7708 5.44622 28.6458 6.74414 29.2875 8.23164C29.9292 9.71914 30.25 11.3087 30.25 13.0004C30.25 14.6921 29.9292 16.2816 29.2875 17.7691C28.6458 19.2566 27.7708 20.5546 26.6625 21.6629ZM30.3813 25.3816L28.5 23.5004C29.8708 22.1296 30.943 20.5546 31.7165 18.7754C32.49 16.9962 32.8762 15.0712 32.875 13.0004C32.8738 10.9296 32.4871 9.00456 31.7148 7.22539C30.9424 5.44622 29.8708 3.87122 28.5 2.50039L30.3813 0.619141C31.9563 2.19414 33.2034 4.04622 34.1228 6.17539C35.0421 8.30456 35.5012 10.5796 35.5 13.0004C35.4988 15.4212 35.0392 17.6962 34.121 19.8254C33.2028 21.9546 31.9563 23.8066 30.3813 25.3816Z" fill="url(#paint0_linear_690_594)" />
                                        <defs>
                                        <linearGradient id="paint0_linear_690_594" x1={18} y1="1.79831" x2={18} y2="25.3816" gradientUnits="userSpaceOnUse">
                                            <stop stopColor="#38CDCE" />
                                            <stop offset={1} stopColor="#41EBC0" />
                                        </linearGradient>
                                        </defs>
                                    </svg>