<svg width={34} height={33} viewBox="0 0 34 33" fill="none" xmlns="http://www.w3.org/2000/svg">
    <path d="M9.32121 0.708252C4.31871 0.708252 0.666504 5.93404 0.666504 11.569C0.666504 13.0832 0.902254 14.5332 1.31817 15.9103C1.52262 16.5843 1.76635 17.2405 2.04938 17.8787C5.98525 26.7797 16.9582 32.2058 16.9582 32.2058C16.9582 32.2058 19.3856 30.9274 22.367 28.6657C20.4791 27.3317 17.8686 25.0748 16.6093 22.1289C16.4576 21.7748 16.3273 21.4119 16.2193 21.0422C15.9905 20.2647 15.8737 19.4587 15.8724 18.6483C15.8724 15.5385 17.8207 12.6558 20.4877 12.6558C22.3392 12.6558 23.7125 13.9495 24.5606 15.7838C25.4088 13.9495 26.783 12.6558 28.6335 12.6558C30.3988 12.6558 31.8478 13.917 32.6269 15.6707C33.0246 14.3578 33.2498 12.9874 33.2498 11.569C33.2498 5.93404 29.5976 0.708252 24.5951 0.708252C21.124 0.708252 18.548 3.05329 16.9582 6.37871C15.3683 3.05329 12.7923 0.708252 9.32121 0.708252ZM31.7702 18.055C31.9128 18.057 32.0537 18.0871 32.1848 18.1436C32.3158 18.2001 32.4344 18.2819 32.5338 18.3842C32.6332 18.4866 32.7115 18.6075 32.7642 18.7401C32.8168 18.8728 32.8428 19.0145 32.8406 19.1571C32.7927 22.7125 31.0725 25.1323 29.4012 26.6321C28.7057 27.2539 27.9425 27.7955 27.1261 28.2469C26.8068 28.4232 26.4786 28.5828 26.1428 28.7251C26.1147 28.7353 26.0927 28.7443 26.0767 28.752L26.0566 28.7596L26.0489 28.7625L26.046 28.7635C25.7793 28.8539 25.4878 28.8372 25.2331 28.717C24.9784 28.5967 24.7803 28.3822 24.6807 28.1188C24.581 27.8553 24.5875 27.5635 24.6988 27.3047C24.8102 27.046 25.0176 26.8406 25.2775 26.7318L25.2823 26.7299L25.3168 26.7155L25.4739 26.6484C26.3747 26.2288 27.209 25.6792 27.9503 25.0173C29.3044 23.8003 30.6307 21.9171 30.669 19.1265C30.6709 18.9838 30.7009 18.8429 30.7573 18.7118C30.8136 18.5807 30.8953 18.462 30.9975 18.3625C31.0998 18.263 31.2207 18.1846 31.3533 18.1319C31.4858 18.0791 31.6275 18.053 31.7702 18.055Z" fill="url(#paint0_linear_992_7146)" />
    <defs>
    <linearGradient id="paint0_linear_992_7146" x1="11.7605" y1="0.0906533" x2="25.0585" y2="30.7199" gradientUnits="userSpaceOnUse">
        <stop stopColor="#FFC85C" />
        <stop offset={1} stopColor="#E31E1E" />
    </linearGradient>
    </defs>
</svg>