<svg width={32} height={30} viewBox="0 0 32 30" fill="none" xmlns="http://www.w3.org/2000/svg">
                                        <path d="M10.7492 7.125C11.6774 7.125 12.5677 6.75625 13.224 6.09987C13.8804 5.4435 14.2492 4.55326 14.2492 3.625C14.2492 2.69674 13.8804 1.8065 13.224 1.15013C12.5677 0.493749 11.6774 0.125 10.7492 0.125C9.8209 0.125 8.93066 0.493749 8.27428 1.15013C7.61791 1.8065 7.24916 2.69674 7.24916 3.625C7.24916 4.55326 7.61791 5.4435 8.27428 6.09987C8.93066 6.75625 9.8209 7.125 10.7492 7.125ZM5.95066 12.3181C6.08551 12.1565 6.22679 12.0003 6.37416 11.85V27.25C6.37388 27.6976 6.54514 28.1283 6.85272 28.4536C7.1603 28.7788 7.58081 28.9738 8.02776 28.9984C8.47471 29.0231 8.91412 28.8755 9.25561 28.5861C9.5971 28.2967 9.8147 27.8874 9.86366 27.4425L10.5654 21.125H10.9329L11.6347 27.4425C11.6836 27.8874 11.9012 28.2967 12.2427 28.5861C12.5842 28.8755 13.0236 29.0231 13.4706 28.9984C13.9175 28.9738 14.338 28.7788 14.6456 28.4536C14.9532 28.1283 15.1244 27.6976 15.1242 27.25V15.315C15.2554 14.6185 15.7463 13.6096 16.5207 12.662C17.2145 13.5151 17.6809 14.4172 17.8612 15.098C17.8428 16.5426 16.6799 21.9493 16.2022 24.1184C16.1758 24.2348 16.1739 24.3554 16.1966 24.4726C16.2193 24.5898 16.266 24.701 16.3339 24.7991C16.4017 24.8973 16.4892 24.9804 16.5908 25.043C16.6924 25.1057 16.8058 25.1466 16.924 25.1631C20.1554 25.6068 22.9475 25.6059 26.1518 25.1981C26.7494 25.122 27.0985 24.4596 26.8815 23.897C26.2367 22.2231 25.1867 18.7467 25.1867 13.8432V11.283C25.5279 11.5455 25.8867 11.8902 26.2437 12.3181C27.1685 13.4267 27.7425 14.6964 27.8178 15.4856C27.8563 15.8277 28.0276 16.141 28.2949 16.3579C28.5622 16.5749 28.9041 16.6781 29.2467 16.6454C29.5894 16.6127 29.9056 16.4466 30.127 16.1831C30.3484 15.9195 30.4574 15.5794 30.4305 15.2362C30.2879 13.7348 29.3805 11.9804 28.2597 10.6372C27.1712 9.33175 25.5305 8 23.6904 8H19.6409C18.5183 8 17.4525 8.45062 16.5242 9.092C15.5993 8.45062 14.5362 8 13.4162 8H8.50391C6.66378 8 5.02403 9.33175 3.93466 10.6372C2.81466 11.9804 1.90641 13.7348 1.76378 15.2362C1.73688 15.5794 1.84589 15.9195 2.06732 16.1831C2.28875 16.4466 2.60487 16.6127 2.94756 16.6454C3.29025 16.6781 3.63208 16.5749 3.89937 16.3579C4.16666 16.141 4.33803 15.8277 4.37653 15.4856C4.45178 14.6964 5.02578 13.4267 5.95153 12.3181" fill="url(#paint0_linear_690_577)" />
                                        <path d="M0.25 18.9375C0.25 18.3573 0.480468 17.8009 0.890704 17.3907C1.30094 16.9805 1.85734 16.75 2.4375 16.75C3.01766 16.75 3.57406 16.9805 3.9843 17.3907C4.39453 17.8009 4.625 18.3573 4.625 18.9375V28.125C4.625 28.3571 4.53281 28.5796 4.36872 28.7437C4.20462 28.9078 3.98206 29 3.75 29C3.51794 29 3.29538 28.9078 3.13128 28.7437C2.96719 28.5796 2.875 28.3571 2.875 28.125V18.9375C2.875 18.8215 2.82891 18.7102 2.74686 18.6281C2.66481 18.5461 2.55353 18.5 2.4375 18.5C2.32147 18.5 2.21019 18.5461 2.12814 18.6281C2.04609 18.7102 2 18.8215 2 18.9375V19.8239C2 20.0559 1.90781 20.2785 1.74372 20.4426C1.57962 20.6067 1.35706 20.6989 1.125 20.6989C0.892936 20.6989 0.670376 20.6067 0.506282 20.4426C0.342187 20.2785 0.25 20.0559 0.25 19.8239V18.9375ZM21.6875 7.125C22.6158 7.125 23.506 6.75625 24.1624 6.09987C24.8188 5.4435 25.1875 4.55326 25.1875 3.625C25.1875 2.69674 24.8188 1.8065 24.1624 1.15013C23.506 0.493749 22.6158 0.125 21.6875 0.125C20.7592 0.125 19.869 0.493749 19.2126 1.15013C18.5562 1.8065 18.1875 2.69674 18.1875 3.625C18.1875 4.55326 18.5562 5.4435 19.2126 6.09987C19.869 6.75625 20.7592 7.125 21.6875 7.125ZM29.5625 16.75C28.9823 16.75 28.4259 16.9805 28.0157 17.3907C27.6055 17.8009 27.375 18.3573 27.375 18.9375V19.8239C27.375 20.0559 27.4672 20.2785 27.6313 20.4426C27.7954 20.6067 28.0179 20.6989 28.25 20.6989C28.4821 20.6989 28.7046 20.6067 28.8687 20.4426C29.0328 20.2785 29.125 20.0559 29.125 19.8239V18.9375C29.125 18.8215 29.1711 18.7102 29.2531 18.6281C29.3352 18.5461 29.4465 18.5 29.5625 18.5C29.6785 18.5 29.7898 18.5461 29.8719 18.6281C29.9539 18.7102 30 18.8215 30 18.9375V28.125C30 28.3571 30.0922 28.5796 30.2563 28.7437C30.4204 28.9078 30.6429 29 30.875 29C31.1071 29 31.3296 28.9078 31.4937 28.7437C31.6578 28.5796 31.75 28.3571 31.75 28.125V18.9375C31.75 18.3573 31.5195 17.8009 31.1093 17.3907C30.6991 16.9805 30.1427 16.75 29.5625 16.75ZM17.3125 28.4645V26.508C18.3542 26.6425 19.402 26.7249 20.452 26.7547L19.892 28.8093C19.8089 29.1166 19.6169 29.3832 19.3519 29.5595C19.0868 29.7358 18.7667 29.8098 18.4511 29.7676C18.1356 29.7254 17.8461 29.57 17.6366 29.3303C17.4272 29.0905 17.312 28.7829 17.3125 28.4645ZM23.4839 28.8093L22.9116 26.7119C23.9663 26.6449 25.0175 26.5325 26.0625 26.375V28.4645C26.0622 28.7823 25.9467 29.0892 25.7373 29.3282C25.5279 29.5673 25.2389 29.7223 24.9239 29.7644C24.6089 29.8065 24.2894 29.7329 24.0245 29.5572C23.7597 29.3816 23.5676 29.1158 23.4839 28.8093Z" fill="url(#paint1_linear_690_577)" />
                                        <defs>
                                        <linearGradient id="paint0_linear_690_577" x1="3.02483" y1="14.3949" x2="30.4346" y2="14.3949" gradientUnits="userSpaceOnUse">
                                            <stop offset="0.242834" stopColor="#F5B92E" />
                                            <stop offset={1} stopColor="#FAD52F" />
                                        </linearGradient>
                                        <linearGradient id="paint1_linear_690_577" x1="1.63971" y1="14.7794" x2="31.75" y2="14.7794" gradientUnits="userSpaceOnUse">
                                            <stop offset="0.242834" stopColor="#F5B92E" />
                                            <stop offset={1} stopColor="#FAD52F" />
                                        </linearGradient>
                                        </defs>
                                    </svg>