<svg width={41} height={32} viewBox="0 0 41 32" fill="none" xmlns="http://www.w3.org/2000/svg">
                                        <path d="M36.4375 13.727C35.5313 13.329 34.5522 13.124 33.5625 13.125H7.6875C6.69788 13.124 5.71885 13.3287 4.8125 13.7261C3.53151 14.2862 2.44147 15.2075 1.6756 16.3772C0.909734 17.5469 0.501224 18.9144 0.5 20.3125V30.375C0.5 30.7562 0.65145 31.1219 0.921034 31.3915C1.19062 31.6611 1.55625 31.8125 1.9375 31.8125C2.31875 31.8125 2.68438 31.6611 2.95397 31.3915C3.22355 31.1219 3.375 30.7562 3.375 30.375V29.6562C3.37733 29.4664 3.4538 29.2849 3.58809 29.1506C3.72238 29.0163 3.90385 28.9398 4.09375 28.9375H37.1562C37.3461 28.9398 37.5276 29.0163 37.6619 29.1506C37.7962 29.2849 37.8727 29.4664 37.875 29.6562V30.375C37.875 30.7562 38.0265 31.1219 38.296 31.3915C38.5656 31.6611 38.9313 31.8125 39.3125 31.8125C39.6937 31.8125 40.0594 31.6611 40.329 31.3915C40.5985 31.1219 40.75 30.7562 40.75 30.375V20.3125C40.7486 18.9145 40.34 17.5472 39.5742 16.3777C38.8083 15.2082 37.7183 14.2871 36.4375 13.727ZM31.4062 0.1875H9.84375C8.50938 0.1875 7.22966 0.717577 6.28612 1.66112C5.34258 2.60466 4.8125 3.88438 4.8125 5.21875V11.6875C4.81254 11.7432 4.82552 11.7981 4.85042 11.8479C4.87532 11.8977 4.91146 11.9411 4.95598 11.9745C5.0005 12.008 5.05219 12.0306 5.10696 12.0407C5.16174 12.0508 5.2181 12.048 5.2716 12.0325C6.05635 11.803 6.86988 11.6868 7.6875 11.6875H8.06754C8.15624 11.6881 8.24202 11.6558 8.30837 11.5969C8.37471 11.538 8.41694 11.4567 8.42691 11.3686C8.50532 10.6661 8.83971 10.0172 9.36623 9.54574C9.89274 9.07425 10.5745 8.81322 11.2812 8.8125H16.3125C17.0197 8.81255 17.7021 9.07329 18.2292 9.54484C18.7563 10.0164 19.0911 10.6657 19.1695 11.3686C19.1795 11.4567 19.2217 11.538 19.2881 11.5969C19.3544 11.6558 19.4402 11.6881 19.5289 11.6875H21.7265C21.8152 11.6881 21.901 11.6558 21.9673 11.5969C22.0337 11.538 22.0759 11.4567 22.0859 11.3686C22.1642 10.6666 22.4982 10.0181 23.0242 9.54664C23.5501 9.07521 24.2312 8.81388 24.9375 8.8125H29.9688C30.676 8.81255 31.3584 9.07329 31.8855 9.54484C32.4125 10.0164 32.7473 10.6657 32.8258 11.3686C32.8358 11.4567 32.878 11.538 32.9443 11.5969C33.0107 11.6558 33.0965 11.6881 33.1852 11.6875H33.5625C34.3802 11.6871 35.1937 11.8036 35.9784 12.0334C36.032 12.0489 36.0884 12.0517 36.1433 12.0416C36.1981 12.0315 36.2498 12.0087 36.2944 11.9752C36.3389 11.9416 36.375 11.8981 36.3999 11.8482C36.4247 11.7983 36.4376 11.7433 36.4375 11.6875V5.21875C36.4375 3.88438 35.9074 2.60466 34.9639 1.66112C34.0203 0.717577 32.7406 0.1875 31.4062 0.1875Z" fill="url(#paint0_linear_690_567)" />
                                        <defs>
                                        <linearGradient id="paint0_linear_690_567" x1="20.625" y1="0.1875" x2="20.625" y2="31.8125" gradientUnits="userSpaceOnUse">
                                            <stop stopColor="#60A0FB" />
                                            <stop offset="0.0001" stopColor="#74ADFF" />
                                            <stop offset="0.843325" stopColor="#3A55F8" />
                                        </linearGradient>
                                        </defs>
                                    </svg>