<svg width={34} height={36} viewBox="0 0 34 36" fill="none" xmlns="http://www.w3.org/2000/svg">
                                        <path d="M12.8222 2.57362C10.0371 2.57362 5.76709 4.181 7.25197 14.135C7.27471 14.2855 7.30447 14.4482 7.33509 14.6224C7.60634 16.1195 8.02459 18.4374 5.36284 20.3484C7.17321 21.8341 9.75184 23.319 12.8852 23.9621C12.7614 24.6728 12.6061 25.3775 12.4197 26.0744C12.1651 27.0089 11.6313 27.6712 10.6776 27.9539C9.83759 28.2024 8.95734 28.4036 8.05609 28.6101C7.82421 28.6626 7.59059 28.716 7.35609 28.7711C6.23171 29.0327 5.08547 29.3224 4.06959 29.7319C3.05109 30.1431 2.10434 30.697 1.42009 31.523C0.72359 32.3656 0.35084 33.4279 0.376215 34.7561C0.384965 35.1691 0.738465 35.4999 1.17247 35.4999H32.8282C33.2622 35.4999 33.6157 35.1691 33.6245 34.7561C33.6498 33.4279 33.278 32.3656 32.5806 31.523C31.8972 30.697 30.9496 30.1422 29.932 29.7319C28.9152 29.3215 27.769 29.0319 26.6437 28.7702L25.9455 28.6101C25.0433 28.4036 24.1631 28.2024 23.3231 27.9539C22.3693 27.6712 21.8356 27.0089 21.581 26.0744C21.3582 25.2447 21.1811 24.4035 21.0507 23.5544C23.4465 22.8334 25.9927 21.5375 28.6378 19.4681L28.6256 19.4559C27.384 18.2676 25.0565 16.0399 24.8911 10.7514C24.8911 3.46962 20.2483 -2.93013 12.8222 2.57362Z" fill="url(#paint0_linear_690_584)" />
                                        <defs>
                                        <linearGradient id="paint0_linear_690_584" x1="15.8128" y1="30.6867" x2="24.7578" y2="0.336361" gradientUnits="userSpaceOnUse">
                                            <stop offset="0.175952" stopColor="#3366ED" />
                                            <stop offset={1} stopColor="#85A6FD" />
                                        </linearGradient>
                                        </defs>
                                    </svg>